<svg xmlns="http://www.w3.org/2000/svg" xmlns:xlink="http://www.w3.org/1999/xlink" viewBox="0 0 146.86 29.95"><defs><style>.cls-1{fill:#fff;}.cls-2{fill:#1f3570;}.cls-3{fill:#7e868a;}.cls-4{mask:url(#mask);}</style><mask id="mask" x="4.64" y="0" width="9.08" height="29.95" maskUnits="userSpaceOnUse"><g id="mask-2"><polygon id="path-1" class="cls-1" points="4.64 0 13.72 0 13.72 29.95 4.64 29.95 4.64 0"/></g></mask></defs><title>Asset 1</title><g id="Layer_2" data-name="Layer 2"><g id="UHC"><path id="Fill-4" class="cls-2" d="M19.7,12.53h4.79v.64c-1.29.08-1.41.32-1.41,1.35v8.59c0,1.86,1.05,2.81,2.53,2.81a2.58,2.58,0,0,0,2.74-2.84V14.72c0-1-.32-1.47-1.54-1.55v-.64h3.82v.64c-1.21.08-1.53.52-1.53,1.55v7.92c0,2.47-1.09,3.92-3.87,3.92s-4.11-1.51-4.11-4v-8c0-1-.12-1.27-1.42-1.35Z"/><path id="Fill-6" class="cls-2" d="M30.34,26.24V25.6c1,0,1.28-.4,1.28-1V18.36c0-.86-.24-1-1.32-1V16.7l2.92-.13V18.5h0a3,3,0,0,1,2.67-2c1.66,0,2.44,1.08,2.44,2.84v5.3c0,.68.28,1,1.23,1v.64h-3v-7.1c0-1.32-.5-1.76-1.18-1.76-1,0-2.13,1.4-2.13,3.35V24.6c0,.6.32,1,1.27,1v.64Z"/><path id="Fill-8" class="cls-2" d="M43,13.61c0,.76-.42,1.28-1,1.28s-1-.52-1-1.28.42-1.28,1-1.28S43,12.85,43,13.61Zm-3,12.63V25.6c1,0,1.28-.4,1.28-1V18.25c0-.86-.24-1-1.28-1v-.64l3-.11V24.6c0,.6.32,1,1.28,1v.64Z"/><path id="Fill-10" class="cls-2" d="M47.4,13V16.7h2.41v.75H47.4v7c0,.88.3,1.24.85,1.24s1.16-.42,1.16-2.54v-.56h.64v.94c0,2-.74,2.91-2.25,2.91-1.32,0-2.11-.83-2.11-2.43v-6.6H44.45v-.59c1.44-.6,2.2-1.28,2.32-3.84Z"/><path id="Fill-12" class="cls-2" d="M58.21,21.41c0-2.87-1.39-4.95-3.6-4.95s-3.85,2.08-3.85,5c0,2.51,1.63,5,4.1,5,2.24,0,3.22-1.73,3.4-3.52l-.64-.12c-.2,1.37-.82,2.89-2.56,2.89-1.33,0-2.35-1.52-2.35-4.32Zm-5.5-.75c0-2.56.76-3.56,1.9-3.56s1.65,1,1.65,3.56Z"/><path id="Fill-14" class="cls-2" d="M63.64,13.15c1,0,1.3.18,1.3,1v3.58l0,0a2.25,2.25,0,0,0-2-1.33c-2.09,0-3.67,2.15-3.67,5,0,3.14,1.66,5,3.45,5A2.41,2.41,0,0,0,65,24.84h0v1.4l2.79-.11v-.64c-.8,0-1.16-.3-1.16-1.38V12.4l-3,.13Zm-2.47,8.37c0-3.07.72-4.31,1.81-4.31s2,1.48,2,4.31c0,3.44-1.06,4.31-2.12,4.31S61.17,24.6,61.17,21.52Z"/><path id="Fill-16" class="cls-2" d="M68.3,26.24V25.6c1.2-.08,1.4-.32,1.4-1.36V14.52c0-1-.2-1.27-1.4-1.35v-.64h4.83v.64c-1.23.08-1.47.32-1.47,1.35v4.13H76V14.52c0-1-.24-1.27-1.47-1.35v-.64h4.82v.64c-1.2.08-1.4.32-1.4,1.35v9.72c0,1,.2,1.28,1.4,1.36v.64H74.49V25.6c1.23-.08,1.47-.32,1.47-1.36V19.4h-4.3v4.84c0,1,.24,1.28,1.47,1.36v.64Z"/><path id="Fill-18" class="cls-2" d="M87.07,21.41c0-2.87-1.4-4.95-3.61-4.95s-3.85,2.08-3.85,5c0,2.51,1.63,5,4.11,5,2.23,0,3.21-1.73,3.38-3.52l-.63-.12c-.2,1.37-.82,2.89-2.56,2.89-1.33,0-2.35-1.52-2.35-4.32Zm-5.51-.75c0-2.56.76-3.56,1.9-3.56s1.65,1,1.65,3.56Z"/><path id="Fill-20" class="cls-2" d="M94.91,23.49c0,1.43-.2,1.87-.58,1.87s-.41-.26-.41-.83V19c0-1.5-.86-2.52-3.1-2.52-1.73,0-3,1.08-3,2.44,0,.8.4,1.2,1,1.2a1,1,0,0,0,1-1.16c0-.58-.2-1.06-.84-1.12a2.09,2.09,0,0,1,1.69-.72c1.06,0,1.58.5,1.58,1.64v1.64c-1.72.64-4.86,1.58-4.86,3.85a2.19,2.19,0,0,0,2.42,2.25,2.52,2.52,0,0,0,2.48-1.55h0c.12,1.07.66,1.55,1.61,1.55,1.24,0,1.66-.89,1.66-3ZM92.2,22.27c0,2.26-.92,3.46-1.94,3.46-.61,0-1.09-.52-1.09-1.58,0-1.7,1.43-2.45,3-3Z"/><path id="Fill-22" class="cls-2" d="M95.29,26.24V25.6c1,0,1.28-.4,1.28-1V14.23c0-.68-.34-1-1.32-1.08v-.64l3-.11V24.6c0,.6.32,1,1.28,1v.64Z"/><path id="Fill-24" class="cls-2" d="M102.45,13V16.7h2.4v.75h-2.4v7c0,.88.3,1.24.84,1.24s1.16-.42,1.16-2.54v-.56h.64v.94c0,2-.74,2.91-2.24,2.91-1.32,0-2.12-.83-2.12-2.43v-6.6H99.49v-.59c1.44-.6,2.2-1.28,2.32-3.84Z"/><path id="Fill-26" class="cls-2" d="M105,26.24V25.6c1,0,1.28-.4,1.28-1V14.19c0-.86-.24-1-1.32-1v-.62l3-.13v5.86h0a2.73,2.73,0,0,1,2.5-1.8c1.54,0,2.49,1.08,2.49,2.84v5.3c0,.6.34,1,1.24,1v.64h-3v-7c0-1.4-.5-1.86-1.22-1.86-1,0-2.1,1.32-2.1,3.24v4c0,.6.32,1,1.28,1v.64Z"/><path id="Fill-28" class="cls-2" d="M121.7,22.93c-.18,1.89-1.06,3.58-3.26,3.58-2,0-3.89-1.81-3.89-4.77,0-2.5,1.73-5.3,4.14-5.3a2.53,2.53,0,0,1,2.77,2.61c0,.95-.3,1.47-1,1.47-.55,0-.93-.48-.93-1.2s.3-1.19.81-1.19a1.07,1.07,0,0,1,.31.08l0,0A1.71,1.71,0,0,0,119,17.06c-1.49,0-2.49,1.51-2.49,4.34,0,3.38,1,4.34,2.21,4.34,1.61,0,2.13-1.48,2.35-2.89Z"/><path id="Fill-30" class="cls-2" d="M130,23.51c0,1.45-.2,1.9-.58,1.9s-.42-.26-.42-.85V19c0-1.51-.86-2.52-3.11-2.52-1.75,0-3,1.07-3,2.44,0,.81.39,1.21,1,1.21a1,1,0,0,0,1-1.17c0-.59-.19-1.07-.83-1.13a2.11,2.11,0,0,1,1.7-.73c1.08,0,1.6.51,1.6,1.66v1.65c-1.73.63-4.89,1.58-4.89,3.87a2.21,2.21,0,0,0,2.44,2.27,2.52,2.52,0,0,0,2.49-1.57h0c.12,1.08.66,1.57,1.62,1.57,1.23,0,1.64-.9,1.64-3Zm-2.72-1.24c0,2.27-.92,3.47-2,3.47-.62,0-1.1-.52-1.1-1.58,0-1.71,1.44-2.48,3.05-3Z"/><path id="Fill-32" class="cls-2" d="M130.85,26.25v-.62c.84,0,1.16-.4,1.16-1V19.16c0-1.36-.24-1.8-1.24-1.84v-.65l2.76-.12v2.32h0c.26-1,1-2.43,2.17-2.43a1.55,1.55,0,0,1,1.45,1.73c0,.86-.41,1.31-.94,1.31s-.9-.28-.9-1.19a.89.89,0,0,1,.86-1,.57.57,0,0,0-.51-.25c-1.35,0-2,3-2,4.71v2.85c0,.61.32,1,1.67,1v.62Z"/><path id="Fill-34" class="cls-2" d="M144.65,21.43c0-2.91-1.39-5-3.61-5s-3.85,2.08-3.85,5c0,2.5,1.63,5,4.11,5,2.24,0,3.21-1.74,3.39-3.52l-.62-.12c-.2,1.36-.82,2.87-2.57,2.87-1.34,0-2.36-1.51-2.36-4.31Zm-5.51-.76c0-2.59.76-3.61,1.9-3.61s1.67,1,1.67,3.61Z"/><path id="Fill-36" class="cls-2" d="M145.09,14.9h.36a.24.24,0,0,1,.25.26.25.25,0,0,1-.25.28h-.36Zm0,.76h.28a.22.22,0,0,1,.26.2,1.72,1.72,0,0,0,.07.57H146a2.93,2.93,0,0,1-.07-.45c0-.35-.08-.41-.3-.44h0a.42.42,0,1,0-.1-.83h-.69v1.72h.28Zm.28-1.59a1.5,1.5,0,1,0,1.49,1.49A1.49,1.49,0,0,0,145.37,14.07Zm0,.23a1.27,1.27,0,1,1-1.27,1.27A1.26,1.26,0,0,1,145.37,14.3Z"/><path id="Fill-38" class="cls-2" d="M2.33,26.24h.59l.07,0H3l.07,0h0l.06,0h0l.07,0,0,0,.08,0,0,0,.07,0,0,0,.07-.05,0,0,.07-.06,0,0,.07-.06,0,0a.23.23,0,0,0,.07-.07l0,0,.08-.07,0,0,.07-.08,0-.05a.27.27,0,0,0,.07-.08s0,0,0,0l.07-.09,0,0,.07-.09a.43.43,0,0,1,0-.07l.06-.1,0-.07.06-.1,0-.08.06-.11,0-.08.06-.12.05-.1L5,24s0-.07,0-.11a.61.61,0,0,0,0-.12l0-.11s0-.09.05-.13,0-.08,0-.12l.06-.14a.84.84,0,0,1,0-.17l0-.11.09-.29A29.87,29.87,0,0,0,6,16.44V4.14L0,7.35V20c0,4.83.87,6,1.94,6.18h0Z"/><path id="Fill-40" class="cls-3" d="M3.84,27.54c2.37-.32,3.74-2.95,4.07-4.24a24.18,24.18,0,0,0,.62-6.5v-14L6,4.14l1.33.3V15.68a30,30,0,0,1-.54,7.12c-.66,2.38-1.86,3.34-2.7,3.65L2,26.21h0a1.84,1.84,0,0,0,1.37,1.3Z"/><path id="Fill-42" class="cls-3" d="M3.3,27.51a2,2,0,0,0,1.35,1.21l.54.05c2.47,0,4.09-2.44,4.67-3.7.84-1.88,1.25-4.54,1.25-8.37V1.4L8.53,2.78l1.36.31v13c0,3.26-.13,6-.92,8.09a5.48,5.48,0,0,1-3.46,3.53l-1.67-.2Z"/><g id="Group-46"><g class="cls-4"><path id="Fill-44" class="cls-3" d="M11.11,1.4l1.39.31V16.12c0,4.43-.46,7.45-1.44,9.49A5.89,5.89,0,0,1,7.11,29l-1.92-.23-.55-.05A2.58,2.58,0,0,0,6.79,30a5.19,5.19,0,0,0,3.09-1.1c2.92-2,3.84-6.53,3.84-12.61V0Z"/></g></g></g></g></svg>