<?xml version="1.0" standalone="no"?>
<!DOCTYPE svg PUBLIC "-//W3C//DTD SVG 1.1//EN" "http://www.w3.org/Graphics/SVG/1.1/DTD/svg11.dtd" >
<svg xmlns="http://www.w3.org/2000/svg">
<metadata></metadata>
<defs>
<font id="uhc_sansregular" horiz-adv-x="1024" >
<font-face units-per-em="2048" ascent="1366" descent="-682" />
<missing-glyph horiz-adv-x="512" />
<glyph unicode="&#xfb01;" horiz-adv-x="952" d="M0 885v100h168v84q0 93 6.5 134.5t28.5 74.5q59 98 215 98q45 0 94 -8v-102q-49 8 -80 8q-98 0 -125 -53q-18 -32 -18 -138v-98h198v-100h-198v-885h-121v885h-168zM649 1262q0 40 28.5 70t65.5 30q38 0 67.5 -31t29.5 -71q0 -42 -29 -73.5t-68 -31.5q-38 0 -66 32 t-28 75zM682 0v985h121v-985h-121z" />
<glyph unicode="&#xfb02;" horiz-adv-x="952" d="M0 885v100h168v84q0 93 6.5 134.5t28.5 74.5q59 98 215 98q45 0 94 -8v-102q-49 8 -80 8q-98 0 -125 -53q-18 -32 -18 -138v-98h198v-100h-198v-885h-121v885h-168zM682 0v1366h121v-1366h-121z" />
<glyph unicode="&#xfb03;" horiz-adv-x="1468" d="M0 885v100h168v84q0 93 6.5 134.5t28.5 74.5q59 98 215 98q45 0 94 -8v-102q-49 8 -80 8q-98 0 -125 -53q-18 -32 -18 -138v-98h198v-100h-198v-885h-121v885h-168zM514 885v100h168v84q0 93 6.5 134.5t28.5 74.5q59 98 215 98q45 0 94 -8v-102q-49 8 -80 8 q-98 0 -125 -53q-18 -32 -18 -138v-98h198v-100h-198v-885h-121v885h-168zM1163 1262q0 40 28.5 70t65.5 30q38 0 67.5 -31t29.5 -71q0 -42 -29 -73.5t-68 -31.5q-38 0 -66 32t-28 75zM1196 0v985h121v-985h-121z" />
<glyph unicode="&#xfb04;" horiz-adv-x="1468" d="M0 885v100h168v84q0 93 6.5 134.5t28.5 74.5q59 98 215 98q45 0 94 -8v-102q-49 8 -80 8q-98 0 -125 -53q-18 -32 -18 -138v-98h198v-100h-198v-885h-121v885h-168zM514 885v100h168v84q0 93 6.5 134.5t28.5 74.5q59 98 215 98q45 0 94 -8v-102q-49 8 -80 8 q-98 0 -125 -53q-18 -32 -18 -138v-98h198v-100h-198v-885h-121v885h-168zM1196 0v1366h121v-1366h-121z" />
<glyph horiz-adv-x="0" />
<glyph horiz-adv-x="682" />
<glyph unicode=" "  horiz-adv-x="512" />
<glyph unicode="&#x09;" horiz-adv-x="512" />
<glyph unicode="&#xa0;" horiz-adv-x="512" />
<glyph unicode="!" horiz-adv-x="538" d="M197 88q0 40 28.5 70t65.5 30q38 0 67 -31t29 -71q0 -42 -28.5 -73t-67.5 -31q-38 0 -66 31.5t-28 74.5zM225 965v401h129v-401l-28 -623h-72z" />
<glyph unicode="&#x22;" horiz-adv-x="581" d="M92 1366h129l-16 -547h-94zM358 1366h129l-16 -547h-94z" />
<glyph unicode="#" horiz-adv-x="1202" d="M82 424v86h207l71 364h-192v87h209l80 403h98l-82 -403h367l82 403h96l-84 -403h186v-87h-202l-72 -364h190v-86h-209l-84 -424h-94l84 424h-366l-84 -424h-97l84 424h-188zM383 510h367l71 364h-366z" />
<glyph unicode="$" horiz-adv-x="1120" d="M74 436h129q6 -320 303 -360v565q-115 26 -176 50t-109 61q-112 84 -112 262q0 150 96 254q56 57 125 85.5t176 37.5v149h102v-149q170 -6 284.5 -119t115.5 -277v-18h-129q-1 136 -74.5 220.5t-196.5 92.5v-553q230 -52 328 -129q51 -40 81 -108t30 -146q0 -87 -38 -162 t-108 -126q-62 -44 -126 -65t-167 -28v-163h-102v165q-221 23 -323 131.5t-109 329.5zM238 1004q0 -101 57 -153.5t211 -90.5v530q-73 -4 -119.5 -24t-83.5 -62q-65 -74 -65 -200zM608 74q91 6 146 28.5t96 69.5q65 71 65 176q0 104 -70.5 166.5t-236.5 103.5v-544z" />
<glyph unicode="%" horiz-adv-x="1558" d="M70 1004q0 174 78.5 267t226.5 93t225.5 -92.5t77.5 -267.5q0 -173 -78.5 -267t-224.5 -94t-225.5 94.5t-79.5 266.5zM172 1001q0 -130 53.5 -201t151.5 -71q94 0 147.5 73t53.5 199q0 128 -54.5 202.5t-148.5 74.5q-96 0 -149.5 -73t-53.5 -204zM336 -41l790 1419h103 l-787 -1419h-106zM887 334q0 172 79.5 266t225.5 94q148 0 225.5 -94t77.5 -272q0 -169 -79 -262t-222 -93q-148 0 -227.5 94t-79.5 267zM989 334q0 -134 52.5 -204.5t152.5 -70.5q92 0 146.5 73.5t54.5 197.5q0 130 -55 204t-150 74t-148 -72t-53 -202z" />
<glyph unicode="&#x26;" horiz-adv-x="1230" d="M88 344q0 177 164 303q99 75 174 113q-91 113 -128.5 187t-37.5 143q0 121 85 197.5t220 76.5q130 0 213.5 -75.5t83.5 -194.5q0 -103 -63 -187t-205 -172l289 -354q40 101 47 223h112q-1 -73 -25.5 -167.5t-55.5 -147.5l243 -289h-153l-156 188q-144 -215 -397 -215 q-182 0 -296 103.5t-114 267.5zM211 346q0 -114 86.5 -193t210.5 -79q190 0 319 198l-335 410q-157 -91 -219 -165t-62 -171zM373 1092q0 -50 36 -114.5t121 -162.5q220 123 220 270q0 77 -54 129t-133 52q-82 0 -136 -49.5t-54 -124.5z" />
<glyph unicode="'" horiz-adv-x="315" d="M92 1366h129l-16 -547h-94z" />
<glyph unicode="(" horiz-adv-x="567" d="M88 498q0 223 73 455.5t199 412.5h95q-118 -186 -182 -413t-64 -459q0 -222 63 -443.5t183 -417.5h-95q-144 235 -208 439.5t-64 425.5z" />
<glyph unicode=")" horiz-adv-x="567" d="M115 -367q118 187 181.5 414t63.5 459q0 222 -62.5 442t-182.5 418h94q144 -237 208 -440.5t64 -423.5q0 -223 -73 -456t-199 -413h-94z" />
<glyph unicode="*" horiz-adv-x="1120" d="M272 1139l25 71l221 -80v236h80v-236l221 80l27 -71l-223 -76l137 -189l-60 -45l-143 193l-139 -191l-66 46l142 186z" />
<glyph unicode="+" horiz-adv-x="1120" d="M100 618v89h414v413h88v-413h414v-89h-414v-413h-88v413h-414z" />
<glyph unicode="," horiz-adv-x="456" d="M115 94q0 46 30.5 80.5t71.5 34.5q57 0 88 -46t31 -130q0 -120 -51 -193.5t-148 -95.5v82q54 20 81 61t30 109q-20 -4 -25 -4q-47 0 -77.5 29t-30.5 73z" />
<glyph unicode="-" horiz-adv-x="454" d="M0 451v108h455v-108h-455z" />
<glyph unicode="." horiz-adv-x="456" d="M133 94q0 40 28.5 70.5t65.5 30.5q38 0 67.5 -31.5t29.5 -71.5q0 -42 -29 -73t-68 -31q-38 0 -66 31.5t-28 74.5z" />
<glyph unicode="/" horiz-adv-x="806" d="M-76 -367l709 1733h98l-704 -1733h-103z" />
<glyph unicode="0" horiz-adv-x="1155" d="M94 666q0 322 88 491q121 238 400 238q132 0 235 -63.5t158 -178.5q84 -172 84 -477q0 -291 -82 -459q-57 -120 -159.5 -183t-239.5 -63q-244 0 -364 172.5t-120 522.5zM223 659q0 -231 58 -378q37 -95 116 -149t181 -54q98 0 176 55.5t118 153.5q58 143 58 393 q0 608 -348 608q-182 0 -270.5 -155t-88.5 -474z" />
<glyph unicode="1" horiz-adv-x="1155" d="M250 1038v97q112 2 175 12t108 40t66.5 76.5t39.5 131.5h100v-1395h-131v1038h-53h-135h-113h-57z" />
<glyph unicode="2" horiz-adv-x="1155" d="M111 0q12 183 100.5 299t333.5 270q201 132 271.5 221t70.5 211q0 129 -83.5 208t-219.5 79q-89 0 -159 -38t-108 -107q-45 -84 -51 -238h-123q-1 233 116 361.5t331 128.5q195 0 310.5 -107t115.5 -287q0 -176 -131 -313q-50 -53 -112 -99t-206 -140 q-165 -104 -230 -174t-85 -164h29h38h703v-111h-911z" />
<glyph unicode="3" horiz-adv-x="1155" d="M86 414v30h121q0 -127 47 -208q43 -74 124 -116t181 -42q149 0 247.5 88.5t98.5 222.5q0 157 -121 236q-45 30 -100.5 42.5t-144.5 12.5q-39 0 -64 -4v104h19h36q157 0 242.5 66.5t85.5 187.5q0 117 -80.5 186.5t-214.5 69.5q-152 0 -235.5 -89t-89.5 -259h-119 q7 221 123 338t327 117q187 0 301.5 -99t114.5 -260q0 -112 -63 -192.5t-172 -106.5q138 -29 211 -116t73 -222q0 -192 -131.5 -311t-345.5 -119q-215 0 -343 120.5t-128 322.5z" />
<glyph unicode="4" horiz-adv-x="1155" d="M86 342v119l649 934h105v-949h209v-104h-209v-342h-115v342h-639zM188 446h64h74h399v551q0 132 2 232q-108 -171 -125 -195l-301 -432q-10 -15 -19.5 -27.5t-33.5 -45.5t-60 -83z" />
<glyph unicode="5" horiz-adv-x="1155" d="M106 399h121q10 -151 101 -238t237 -87q149 0 247.5 105t98.5 265q0 163 -97 266t-251 103q-197 0 -307 -162l-111 4l138 711h690v-111h-600l-66 -321q-3 -15 -18 -82q-1 -5 -3.5 -15t-6.5 -26.5t-7 -30.5q116 140 316 140q198 0 325 -131.5t127 -335.5 q0 -209 -135 -346.5t-340 -137.5q-204 0 -330 117.5t-129 312.5z" />
<glyph unicode="6" horiz-adv-x="1155" d="M111 651q0 360 129 552t372 192q175 0 282.5 -94.5t129.5 -266.5h-125q-20 120 -96.5 187t-196.5 67q-251 0 -336 -299q-35 -125 -41 -330q55 117 154.5 179.5t230.5 62.5q193 0 318 -128.5t125 -326.5q0 -206 -131 -340.5t-330 -134.5q-124 0 -226.5 55.5t-162.5 155.5 q-51 83 -73.5 195t-22.5 274zM256 442q0 -157 96 -260.5t242 -103.5t240 101.5t94 258.5q0 155 -93.5 256t-236.5 101q-151 0 -246.5 -99t-95.5 -254z" />
<glyph unicode="7" horiz-adv-x="1155" d="M158 1249v117h889v-113q-242 -248 -388.5 -575t-171.5 -678h-135q17 324 176 670t398 581q-96 -2 -142 -2h-626z" />
<glyph unicode="8" horiz-adv-x="1155" d="M102 389q0 136 74.5 230.5t206.5 125.5q-106 29 -165.5 108t-59.5 189q0 158 115.5 255.5t304.5 97.5t303 -94.5t114 -251.5q0 -113 -57 -191t-166 -113q279 -71 279 -346q0 -198 -128 -313t-348 -115q-216 0 -344.5 113.5t-128.5 304.5zM231 391q0 -143 93.5 -228 t250.5 -85q158 0 252.5 85t94.5 228q0 136 -95 218.5t-252 82.5t-250.5 -82t-93.5 -219zM281 1036q0 -112 81 -178.5t216 -66.5q137 0 215.5 66t78.5 181q0 116 -78 183t-214 67q-138 0 -218.5 -67.5t-80.5 -184.5z" />
<glyph unicode="9" horiz-adv-x="1155" d="M96 924q0 205 130 338t331 133q146 0 253.5 -68.5t166.5 -196.5q35 -79 50 -174.5t15 -236.5q0 -283 -71 -451q-60 -146 -167.5 -221.5t-252.5 -75.5q-175 0 -290 99t-130 262h121q17 -117 98.5 -185.5t202.5 -68.5q137 0 225.5 95t120.5 278q18 97 21 272 q-38 -82 -80 -129q-52 -60 -131 -92.5t-170 -32.5q-193 0 -318 128.5t-125 326.5zM225 930q0 -155 92.5 -255t237.5 -100q148 0 242 100t94 255q0 153 -95.5 255.5t-236.5 102.5q-148 0 -241 -100t-93 -258z" />
<glyph unicode=":" horiz-adv-x="491" d="M168 94q0 40 28.5 70.5t65.5 30.5q38 0 67 -31.5t29 -71.5q0 -42 -28.5 -73t-67.5 -31q-38 0 -66 31.5t-28 74.5zM168 874q0 40 28.5 70.5t65.5 30.5q38 0 67 -31.5t29 -71.5q0 -42 -28.5 -73t-67.5 -31q-38 0 -66 31.5t-28 74.5z" />
<glyph unicode=";" horiz-adv-x="491" d="M147 94q0 46 31 80.5t72 34.5q57 0 88 -46t31 -130q0 -120 -51 -193.5t-148 -95.5v82q54 20 81 61t30 109q-20 -4 -25 -4q-47 0 -78 29t-31 73zM168 874q0 40 28.5 70.5t65.5 30.5q38 0 67 -31.5t29 -71.5q0 -42 -28.5 -73t-67.5 -31q-38 0 -66 31.5t-28 74.5z" />
<glyph unicode="&#x3c;" d="M68 629v112l886 410v-129l-749 -338l749 -336v-129z" />
<glyph unicode="=" horiz-adv-x="1120" d="M100 471v88h916v-88h-916zM100 766v88h916v-88h-916z" />
<glyph unicode="&#x3e;" d="M70 219v129l747 338l-747 336v129l886 -410v-112z" />
<glyph unicode="?" horiz-adv-x="1011" d="M102 942q3 92 18 153.5t48 114.5q54 88 147.5 136.5t210.5 48.5q177 0 287.5 -98.5t110.5 -256.5q0 -130 -76 -231q-30 -40 -154 -156q-76 -70 -97.5 -126.5t-23.5 -186.5h-114q1 62 2.5 97t11 74t20 61.5t39.5 60t59 67.5t87 86q121 121 121 246q0 114 -77 185t-200 71 q-177 0 -256 -139q-24 -40 -34 -84t-15 -123h-115zM422 88q0 40 28 70t66 30q37 0 65.5 -31t28.5 -71q0 -41 -29 -72.5t-67 -31.5q-37 0 -64.5 31.5t-27.5 74.5z" />
<glyph unicode="@" horiz-adv-x="1775" d="M90 588q0 161 63.5 309t170.5 255t254.5 170.5t308.5 63.5q159 0 306 -63.5t254.5 -169.5t171.5 -251t64 -302q0 -199 -112 -332t-279 -133q-172 0 -172 166v4h-4q-70 -102 -139 -141t-178 -39q-143 0 -223 68.5t-80 191.5q0 75 26 122t90 87q44 28 110 44t206 34 q115 13 143.5 33.5t28.5 87.5q0 170 -215 170q-112 0 -167.5 -47t-64.5 -150h-118q7 82 29 130.5t69 88.5q92 80 260 80q162 0 245 -73t83 -216v-473q0 -34 16 -49.5t51 -15.5q120 0 197.5 99.5t77.5 254.5q0 139 -53.5 265t-143.5 217.5t-215.5 145.5t-263.5 54 q-137 0 -262 -54.5t-215.5 -146.5t-144.5 -219t-54 -266q0 -187 90.5 -346.5t246.5 -252.5t339 -93t354 77l29 -92q-182 -90 -385 -90q-161 0 -308.5 63.5t-254 170.5t-169.5 254.5t-63 308.5zM616 391q0 -74 49 -119t130 -45q132 0 218.5 74t86.5 188v138h-4 q-15 -30 -142 -47q-162 -23 -223 -45q-60 -23 -87.5 -57.5t-27.5 -86.5z" />
<glyph unicode="A" horiz-adv-x="1275" d="M18 0l551 1370h146l545 -1370h-146l-164 430h-624l-168 -430h-140zM365 535h546l-196 505q-57 149 -74 207q-17 -45 -76 -200z" />
<glyph unicode="B" horiz-adv-x="1318" d="M166 0v1366h551q106 0 172.5 -12t120.5 -41q80 -44 125 -120.5t45 -168.5q0 -112 -64.5 -193.5t-173.5 -107.5q87 -19 139 -49q72 -44 112 -118t40 -165q0 -114 -55.5 -203.5t-157.5 -140.5q-100 -47 -270 -47h-584zM295 113h407q202 0 283 51q119 75 119 225 q0 138 -99 202t-313 64h-397v-542zM295 760h364q163 0 240 26q69 26 110.5 86t41.5 134q0 154 -136 217q-64 30 -223 30h-397v-493z" />
<glyph unicode="C" horiz-adv-x="1380" d="M94 680q0 212 79.5 375t224.5 252.5t333 89.5q270 0 432 -174q112 -121 127 -267h-129q-34 152 -150.5 240t-283.5 88q-227 0 -365.5 -166t-138.5 -436q0 -273 136.5 -436.5t363.5 -163.5q192 0 311 115t144 325h129q-22 -252 -181.5 -402.5t-406.5 -150.5 q-283 0 -454 194.5t-171 516.5z" />
<glyph unicode="D" horiz-adv-x="1363" d="M166 0v1366h475q147 0 248.5 -32.5t183.5 -104.5q95 -88 146 -222t51 -298q0 -361 -193 -557q-82 -83 -178.5 -117.5t-247.5 -34.5h-485zM295 113h326q141 0 223 26t145 90q152 158 152 471q0 282 -146 428q-64 66 -148 95.5t-206 29.5h-346v-1140z" />
<glyph unicode="E" horiz-adv-x="1198" d="M166 0v1366h948v-113h-819v-489h766v-113h-766v-538h827v-113h-956z" />
<glyph unicode="F" horiz-adv-x="1075" d="M166 0v1366h872v-113h-743v-489h661v-113h-661v-651h-129z" />
<glyph unicode="G" horiz-adv-x="1462" d="M92 670q0 214 81.5 379.5t229.5 256.5t338 91q229 0 383 -123t185 -330h-127q-26 152 -147.5 246t-293.5 94q-236 0 -378 -167t-142 -445q0 -267 142 -428.5t378 -161.5q141 0 251 63.5t165 178.5q55 110 55 264h-467v106h582v-694h-86l-27 254q-62 -135 -187.5 -210 t-291.5 -75q-188 0 -334.5 88t-227.5 247.5t-81 365.5z" />
<glyph unicode="H" horiz-adv-x="1404" d="M164 0v1366h129v-594h819v594h129v-1366h-129v659h-819v-659h-129z" />
<glyph unicode="I" horiz-adv-x="456" d="M164 0v1366h129v-1366h-129z" />
<glyph unicode="J" horiz-adv-x="950" d="M27 401q0 27 2 54h125v-15q0 -129 14 -186q44 -166 252 -166q148 0 211 94q45 64 45 238v958h129v-975q0 -110 -13.5 -173t-48.5 -117q-31 -50 -63 -74t-88 -39q-92 -25 -184 -25q-120 0 -209.5 48.5t-130.5 136.5q-41 83 -41 241z" />
<glyph unicode="K" horiz-adv-x="1284" d="M166 0v1366h129v-735q50 50 90 86l705 649h174l-615 -557l645 -809h-166l-571 719l-262 -238v-481h-129z" />
<glyph unicode="L" horiz-adv-x="1097" d="M164 0v1366h129v-1253h770v-113h-899z" />
<glyph unicode="M" horiz-adv-x="1656" d="M166 0v1366h178l397 -975q74 -198 93 -256q68 192 92 254l389 977h180v-1366h-125v825q5 332 16 430l-16 -41l-22 -65q-13 -34 -54 -141l-401 -1008h-117l-409 995q-40 100 -91 252q15 -249 15 -418v-829h-125z" />
<glyph unicode="N" horiz-adv-x="1404" d="M166 0v1366h145l635 -926q108 -155 178 -286q-8 140 -8 360v852h125v-1366h-145l-633 915q-97 148 -125.5 194.5t-54.5 100.5q1 -13 6 -98v-74v-59l2 -96v-883h-125z" />
<glyph unicode="O" horiz-adv-x="1474" d="M94 682q0 323 178.5 519t472.5 196q184 0 329 -91t225.5 -254.5t80.5 -371.5q0 -210 -80.5 -371.5t-227.5 -250.5t-337 -89q-287 0 -464 196.5t-177 516.5zM223 686q0 -272 141 -438t373 -166q230 0 372 165t142 433q0 267 -142 435.5t-366 168.5q-236 0 -378 -163 t-142 -435z" />
<glyph unicode="P" horiz-adv-x="1241" d="M166 0v1366h545q115 0 184 -15.5t127 -52.5q156 -107 156 -317q0 -218 -152 -324q-56 -41 -125.5 -58t-173.5 -17h-432v-582h-129zM295 694h395q90 0 143.5 10.5t94.5 36.5q121 76 121 234q0 159 -117 231q-44 28 -96 37.5t-152 9.5h-389v-559z" />
<glyph unicode="Q" horiz-adv-x="1466" d="M94 678q0 211 81 374.5t227.5 254t334.5 90.5q286 0 464.5 -197.5t178.5 -513.5q0 -166 -52 -306.5t-150 -238.5l194 -147l-65 -82l-215 164q-63 -49 -158.5 -78t-194.5 -29q-287 0 -466 196.5t-179 512.5zM223 682q0 -273 142 -436.5t378 -163.5q141 0 250 72l-182 135 l68 84l202 -158q88 95 129 209t41 262q0 267 -142.5 432.5t-371.5 165.5q-230 0 -372 -166t-142 -436z" />
<glyph unicode="R" horiz-adv-x="1351" d="M158 0v1366h600q180 0 282 -61q160 -102 160 -308q0 -131 -69.5 -219t-196.5 -119q60 -9 100 -29.5t74 -60.5q40 -56 51 -106t23 -232q8 -106 19.5 -155t35.5 -76h-145q-30 46 -35 188q-2 91 -9 152.5t-24.5 111t-42.5 78.5t-67.5 48t-95.5 25.5t-130 6.5h-401v-610h-129 zM287 715h385q195 0 280 49q119 69 119 225q0 159 -131 225q-74 39 -223 39h-430v-538z" />
<glyph unicode="S" horiz-adv-x="1202" d="M55 438v15h125q3 -85 20.5 -140.5t55.5 -101.5q111 -133 354 -133q178 0 278.5 75t100.5 207q0 149 -160 215q-78 33 -301 84q-135 32 -198.5 54.5t-112.5 56.5q-57 40 -88 105t-31 145q0 174 128 275.5t349 101.5q229 0 358 -110.5t138 -313.5h-125q-27 315 -381 315 q-160 0 -250 -68.5t-90 -191.5q0 -116 84 -168q42 -25 100.5 -44t184.5 -48q156 -35 227.5 -57t124.5 -52q168 -100 168 -286q0 -93 -40.5 -172t-115.5 -135q-129 -97 -358 -97q-254 0 -399.5 125.5t-145.5 343.5z" />
<glyph unicode="T" horiz-adv-x="1146" d="M29 1253v113h1089v-113h-479v-1253h-129v1253h-481z" />
<glyph unicode="U" horiz-adv-x="1351" d="M145 551v815h129v-819q0 -121 14.5 -190.5t49.5 -125.5q99 -153 348 -153q238 0 330 147q35 55 49 128t14 196v817h129v-819q0 -146 -18 -226t-68 -155q-135 -197 -438 -197q-335 0 -467 221q-40 66 -56 147t-16 214z" />
<glyph unicode="V" horiz-adv-x="1206" d="M18 1366h146l356 -983q4 -12 55 -162q8 -34 33 -110q56 184 86 270l357 985h139l-508 -1366h-152z" />
<glyph unicode="W" horiz-adv-x="1787" d="M29 1366h137l252 -948q50 -200 65 -283q12 73 68 285l270 946h150l276 -960q22 -84 27 -109q8 -32 22 -94q9 -32 15 -68q18 93 61 268l258 963h131l-379 -1366h-141l-276 963q-58 217 -70 280q-29 -119 -74 -276l-274 -967h-141z" />
<glyph unicode="X" horiz-adv-x="1169" d="M12 0l496 702l-465 664h154l303 -436q52 -80 86 -137l16 26q25 38 27 41q13 21 28 44t17 26l311 436h145l-466 -664l493 -702h-158l-342 489q-8 14 -59 95l-14 22q-3 -4 -6 -8.5t-5 -6.5t-2 -3q-58 -86 -65 -96l-344 -492h-150z" />
<glyph unicode="Y" horiz-adv-x="1185" d="M-12 1366h155l381 -571q48 -74 74 -121q14 23 39.5 65.5t30.5 51.5l383 575h149l-541 -801v-565h-129v565z" />
<glyph unicode="Z" horiz-adv-x="1175" d="M57 0v117l838 1063l35 41q2 2 6 7t10.5 13t11.5 14q-109 -2 -180 -2h-657v113h985v-115l-832 -1054q-15 -21 -30 -39q-3 -3 -39 -49q35 2 80 2l116 2h723v-113h-1067z" />
<glyph unicode="[" horiz-adv-x="567" d="M152 -367v1733h309v-96h-197v-1540h197v-97h-309z" />
<glyph unicode="\" horiz-adv-x="806" d="M76 1366h98l709 -1733h-103z" />
<glyph unicode="]" horiz-adv-x="567" d="M106 -270h197v1540h-197v96h310v-1733h-310v97z" />
<glyph unicode="^" d="M72 776l366 592h148l366 -592h-125l-317 504l-313 -504h-125z" />
<glyph unicode="_" d="M0 -154h1024v-88h-1024v88z" />
<glyph unicode="`" d="M260 1405h148l190 -272h-96z" />
<glyph unicode="a" horiz-adv-x="1021" d="M72 260q0 171 151 244q51 25 131 40.5t244 33.5q91 9 124.5 37.5t33.5 95.5q0 103 -63 152.5t-193 49.5q-127 0 -192.5 -56t-74.5 -173h-120q11 94 35.5 147.5t76.5 96.5q106 86 289 86q363 0 363 -316v-524q0 -35 17.5 -54.5t49.5 -19.5q20 0 41 9v-101q-31 -8 -74 -8 q-80 0 -113.5 38t-33.5 128v6h-2q-79 -115 -155 -158t-201 -43q-157 0 -245.5 77t-88.5 212zM193 266q0 -89 58 -140.5t157 -51.5q148 0 248 88.5t100 218.5v158h-4q-15 -22 -49 -32.5t-136 -25.5q-169 -24 -239 -49t-102.5 -64.5t-32.5 -101.5z" />
<glyph unicode="b" horiz-adv-x="1146" d="M152 0v1366h120v-565q44 101 136.5 157t216.5 56q201 0 320.5 -141t119.5 -377q0 -241 -120 -383t-324 -142q-264 0 -357 222v-193h-112zM268 494q0 -192 92.5 -307t247.5 -115q154 0 245 115t91 307q0 190 -90.5 304.5t-241.5 114.5q-160 0 -252 -112t-92 -307z" />
<glyph unicode="c" horiz-adv-x="1017" d="M84 483q0 242 125 386.5t334 144.5q172 0 278.5 -89.5t126.5 -250.5h-123q-23 117 -94 178t-186 61q-155 0 -247.5 -114t-92.5 -307q0 -192 89.5 -306t240.5 -114q123 0 201.5 73.5t97.5 206.5h120q-25 -180 -134.5 -280.5t-280.5 -100.5q-206 0 -330.5 140t-124.5 372z " />
<glyph unicode="d" horiz-adv-x="1148" d="M84 494q0 236 120.5 378t321.5 142q249 0 351 -211v563h120v-1366h-112v197q-104 -226 -355 -226q-205 0 -325.5 141.5t-120.5 381.5zM205 494q0 -193 91 -307.5t245 -114.5q157 0 248.5 113t91.5 307q0 197 -95 309t-241 112q-158 0 -249 -112t-91 -307z" />
<glyph unicode="e" horiz-adv-x="1044" d="M84 483q0 233 126.5 382t324.5 149q126 0 225.5 -65t154.5 -183q54 -117 54 -303l-764 2q4 -190 90.5 -291.5t243.5 -101.5q240 0 303 254h114q-34 -171 -142.5 -263t-276.5 -92q-206 0 -329.5 139.5t-123.5 372.5zM207 563h639q-7 161 -92.5 255.5t-223.5 94.5 q-137 0 -220 -90t-103 -260z" />
<glyph unicode="f" horiz-adv-x="532" d="M0 885v100h168v84q0 93 6.5 134.5t28.5 74.5q59 98 215 98q45 0 94 -8v-102q-49 8 -80 8q-98 0 -125 -53q-18 -32 -18 -138v-98h198v-100h-198v-885h-121v885h-168z" />
<glyph unicode="g" horiz-adv-x="1122" d="M84 504q0 230 120 370t318 140q115 0 197 -52t139 -161v184h113v-891q0 -111 -13.5 -179t-46.5 -124q-51 -87 -149 -132.5t-234 -45.5q-183 0 -288 78t-117 221h123q27 -201 284 -201q168 0 245 84.5t77 270.5l2 163q-56 -111 -139 -163t-205 -52q-194 0 -310 133.5 t-116 356.5zM205 516q0 -184 86.5 -292.5t232.5 -108.5q149 0 238.5 109.5t89.5 291.5q0 181 -86 289t-231 108q-153 0 -241.5 -106.5t-88.5 -290.5z" />
<glyph unicode="h" horiz-adv-x="1099" d="M152 0v1366h120v-448v-54l-2 -63q101 213 342 213q100 0 176 -37.5t119 -108.5q27 -42 38 -94.5t11 -138.5v-635h-120v618q0 137 -43 199q-70 92 -211 92q-88 0 -156.5 -40t-106.5 -113q-28 -52 -37.5 -109t-9.5 -164v-483h-120z" />
<glyph unicode="i" horiz-adv-x="419" d="M117 1262q0 40 28.5 70t65.5 30q38 0 67 -31t29 -71q0 -43 -29 -74t-67 -31t-66 32t-28 75zM150 0v985h120v-985h-120z" />
<glyph unicode="j" horiz-adv-x="421" d="M-27 -272q20 -4 45 -4q85 0 108.5 37t23.5 169v1055h120v-1051q0 -105 -9.5 -154.5t-35.5 -84.5q-54 -74 -194 -74q-23 0 -58 6v101zM117 1262q0 40 28.5 70t65.5 30q38 0 67 -31t29 -71q0 -43 -29 -74t-67 -31t-66 32t-28 75z" />
<glyph unicode="k" horiz-adv-x="1030" d="M152 0v1366h120v-862q27 27 41 39q27 27 33 30l475 412h162l-422 -362l451 -623h-152l-391 541l-197 -168v-373h-120z" />
<glyph unicode="l" horiz-adv-x="419" d="M150 0v1366h120v-1366h-120z" />
<glyph unicode="m" horiz-adv-x="1662" d="M152 0v985h112v-172q70 108 146 154.5t182 46.5q216 0 285 -193q59 100 137 146.5t190 46.5q82 0 149.5 -29.5t108.5 -83.5q32 -43 45 -92t13 -131v-678h-121v645q0 120 -31 170q-26 44 -78 69t-119 25q-79 0 -141 -35t-96 -100q-37 -73 -37 -207v-567h-121v643 q0 113 -26 166q-25 47 -75 73.5t-116 26.5q-82 0 -147.5 -39t-100.5 -108q-39 -79 -39 -219v-543h-120z" />
<glyph unicode="n" horiz-adv-x="1097" d="M152 0v985h112v-184q45 75 82 110q103 103 268 103q96 0 173 -35.5t118 -99.5q29 -44 40 -96.5t11 -149.5v-633h-120v596q0 93 -9.5 142t-33.5 81q-65 90 -205 90q-91 0 -162.5 -40.5t-108.5 -112.5q-26 -49 -35.5 -105.5t-9.5 -154.5v-496h-120z" />
<glyph unicode="o" horiz-adv-x="1101" d="M84 492q0 239 128.5 380.5t346.5 141.5q209 0 334 -143.5t125 -381.5t-125.5 -378t-339.5 -140t-341.5 141.5t-127.5 379.5zM207 492q0 -193 94 -306.5t254 -113.5q157 0 249.5 114t92.5 306q0 190 -93 305.5t-247 115.5q-161 0 -255.5 -113.5t-94.5 -307.5z" />
<glyph unicode="p" horiz-adv-x="1144" d="M152 -367v1352h112v-188q59 111 144.5 164t207.5 53q202 0 324.5 -143.5t122.5 -381.5q0 -233 -121 -375.5t-319 -142.5q-125 0 -214.5 54.5t-136.5 158.5v-551h-120zM268 489q0 -192 92 -304.5t248 -112.5q151 0 242.5 114t91.5 303q0 192 -91 308t-243 116 q-160 0 -250 -112.5t-90 -311.5z" />
<glyph unicode="q" horiz-adv-x="1144" d="M86 487q0 241 121.5 384t327.5 143q181 0 284 -115q36 -45 66 -102v188h112v-1352h-120v549q-102 -211 -353 -211q-201 0 -319.5 140t-118.5 376zM207 487q0 -191 90 -303t244 -112q157 0 248.5 114t91.5 308q0 192 -90 305.5t-242 113.5q-160 0 -251 -114t-91 -312z" />
<glyph unicode="r" horiz-adv-x="632" d="M152 0v985h112v-235q56 132 148 192q87 58 216 57h13v-120h-31q-158 0 -252 -111q-51 -58 -68.5 -133.5t-17.5 -231.5v-403h-120z" />
<glyph unicode="s" horiz-adv-x="919" d="M47 322h117q9 -127 81 -188.5t210 -61.5q122 0 196 52t74 138q0 74 -57 115t-213 78q-130 31 -180.5 46.5t-88.5 37.5q-52 27 -81 79.5t-29 116.5q0 129 96.5 204t261.5 75q210 0 305 -115q34 -39 50 -83t20 -116h-119q-10 110 -74 161.5t-190 51.5q-108 0 -169.5 -45 t-61.5 -123q0 -71 54.5 -105.5t227.5 -74.5q106 -25 162 -45t100 -49q49 -32 77 -84.5t28 -114.5q0 -135 -108 -218t-283 -83q-191 0 -296.5 91t-109.5 260z" />
<glyph unicode="t" horiz-adv-x="538" d="M-18 885v100h172v303h120v-303h205v-100h-205v-623q0 -103 23.5 -133.5t101.5 -30.5q27 0 80 6v-104q-65 -6 -108 -6q-148 0 -193 80q-15 28 -19.5 73.5t-4.5 176.5v561h-172z" />
<glyph unicode="u" horiz-adv-x="1095" d="M143 350v635h121v-584q0 -133 25 -198q23 -57 84.5 -92t138.5 -35q79 0 146 36t108 101q57 95 57 266v506h121v-985h-113v184q-119 -213 -346 -213q-83 0 -156.5 32t-117.5 87q-68 85 -68 260z" />
<glyph unicode="v" horiz-adv-x="884" d="M6 985h129l230 -598q18 -46 90 -268q70 218 92 276l211 590h123l-363 -985h-131z" />
<glyph unicode="w" horiz-adv-x="1423" d="M16 985h131l189 -600q59 -213 70 -256q52 221 63 260l176 596h139l187 -625q19 -66 57 -229q31 130 59 225l197 629h125l-322 -985h-129l-196 647q-20 72 -49 195q-41 -162 -49 -193l-193 -649h-133z" />
<glyph unicode="x" horiz-adv-x="921" d="M0 0l381 518l-352 467h153l213 -289q27 -37 62 -90q61 88 63 90l217 289h144l-351 -459l390 -526h-152l-264 360q-7 11 -21.5 33t-27.5 43l-25 -37l-24 -37l-263 -362h-143z" />
<glyph unicode="y" horiz-adv-x="894" d="M6 985h131l269 -678q8 -22 57 -174q14 43 25 77.5t21 63.5t15 45l244 666h123l-387 -1024q-45 -115 -67 -164t-44 -80q-59 -92 -182 -92q-37 0 -80 6l-25 2v107q49 -12 87 -12q56 0 93 33.5t66 109.5q8 21 16.5 42t13 32.5t5.5 13.5q19 37 19 41l-3 6z" />
<glyph unicode="z" horiz-adv-x="894" d="M47 0v98l578 709q24 27 42 49.5t25 30.5l-37 -2h-41h-524v100h756v-86l-588 -721l-31 -35q-1 -1 -13 -17t-21 -26h47h57h575v-100h-825z" />
<glyph unicode="{" horiz-adv-x="567" d="M35 455v94q64 19 90.5 61t26.5 127v350q0 148 67.5 214t216.5 65h23v-96h-23q-98 -4 -135 -46t-37 -147v-346q-3 -102 -27 -152t-85 -81q61 -31 86.5 -85t25.5 -153v-330q0 -112 36 -153.5t136 -46.5h23v-97h-23q-155 0 -219.5 69.5t-64.5 236.5v321q0 89 -26 132t-91 63 z" />
<glyph unicode="|" d="M449 -342v1708h129v-1708h-129z" />
<glyph unicode="}" horiz-adv-x="567" d="M111 -270h22q97 4 133.5 46t36.5 146v346q3 102 27.5 152.5t85.5 81.5q-62 31 -87.5 85t-25.5 152v330q0 112 -36 154t-134 47h-22v96h22q154 0 218.5 -69.5t64.5 -235.5v-322q0 -89 26.5 -131.5t92.5 -62.5v-94q-66 -19 -92.5 -61.5t-26.5 -127.5v-350 q1 -146 -67 -213.5t-216 -65.5h-22v97z" />
<glyph unicode="~" horiz-adv-x="1366" d="M195 1257q109 220 272 220q80 0 238 -84q90 -45 126 -58.5t72 -13.5q59 0 104.5 36.5t94.5 123.5l72 -56q-104 -219 -283 -219q-43 0 -88.5 17.5t-169.5 81.5q-108 57 -172 57q-56 0 -102 -37.5t-93 -122.5z" />
<glyph unicode="&#xa1;" horiz-adv-x="538" d="M156 883q0 40 28.5 70t65.5 30q38 0 67 -31t29 -71q0 -43 -29 -74t-67 -31t-66 32t-28 75zM184 20l29 623h72l28 -623v-399h-129v399z" />
<glyph unicode="&#xa2;" horiz-adv-x="1120" d="M131 698q0 284 172 424q84 73 236 99v168h88v-168q156 -6 259.5 -99.5t117.5 -240.5h-123q-13 99 -83.5 164.5t-170.5 74.5v-837q102 5 175.5 81.5t88.5 194.5h117q-17 -160 -123 -265.5t-258 -111.5v-205h-88v205q-192 20 -300 156t-108 360zM256 705q0 -178 73 -286 t210 -136v833q-135 -25 -209 -132t-74 -279z" />
<glyph unicode="&#xa3;" horiz-adv-x="1120" d="M125 72q215 171 215 364q0 46 -9.5 86t-37.5 107h-162v88h111q-60 106 -79.5 166t-19.5 133q0 167 123 273t318 106q214 0 329 -120t115 -343h-119q-3 172 -88 265t-239 93q-140 0 -227 -77t-87 -201q0 -51 16 -101.5t54 -124.5q3 -6 10 -21t10 -20q8 -13 15 -28h313v-88 h-266q37 -75 37 -172q0 -123 -90 -244q-20 -26 -35 -41.5t-84 -81.5q77 38 117.5 50t93.5 12q49 0 83 -9t160 -53q50 -16 99 -16q56 0 114 27.5t105 76.5l61 -92q-54 -58 -128.5 -90.5t-153.5 -32.5q-52 0 -85 8.5t-151 51.5q-79 32 -157 32q-54 0 -99 -18t-114 -68z" />
<glyph unicode="&#xa4;" horiz-adv-x="1366" d="M125 1208l70 70l188 -188q77 57 146.5 82.5t152.5 25.5t152 -25.5t143 -82.5l190 188l70 -70l-190 -188q106 -137 106 -293q0 -158 -104 -293l190 -190l-70 -68l-190 191q-136 -109 -295 -109q-151 0 -297 107l-188 -189l-68 68l186 190q-106 135 -106 295q0 80 25 149 t81 142zM324 727q0 -149 105 -254.5t253 -105.5q149 0 253.5 105.5t104.5 254.5t-104 256t-250 107q-152 0 -257 -105.5t-105 -257.5z" />
<glyph unicode="&#xa5;" horiz-adv-x="1120" d="M59 1366h136l305 -555q26 -47 63 -123q37 77 62 119l305 559h129l-318 -571h277v-82h-326l-76 -140v-106h361v-82h-361v-385h-112v385h-363v82h363v106l-78 140h-326v82h279z" />
<glyph unicode="&#xa6;" d="M449 313h129v-655h-129v655zM449 688v678h129v-678h-129z" />
<glyph unicode="&#xa7;" horiz-adv-x="1120" d="M113 594q0 97 55.5 170t150.5 104q-96 86 -96 201q0 123 92.5 202t237.5 79q164 0 254.5 -88.5t93.5 -251.5h-117q-15 239 -233 239q-93 0 -151 -49t-58 -127q0 -88 88 -153q35 -24 234 -140q201 -115 271.5 -192.5t70.5 -181.5q0 -93 -55 -166t-154 -111 q60 -54 85 -103.5t25 -115.5q0 -127 -95.5 -208t-246.5 -81q-169 0 -263 91t-101 263h118q15 -254 250 -254q95 0 156 51.5t61 131.5q0 54 -31.5 98t-107.5 96q-41 28 -293 174q-130 76 -185.5 150.5t-55.5 171.5zM225 604q0 -80 76 -147q30 -27 74.5 -55.5t173.5 -102.5 q135 -82 174 -111q81 29 124.5 81t43.5 118q0 45 -14.5 77t-63.5 75t-125 90t-217 127q-54 31 -82 53q-85 -38 -124.5 -87.5t-39.5 -117.5z" />
<glyph unicode="&#xa8;" d="M246 1264q0 40 28.5 70t65.5 30q38 0 67 -31t29 -71q0 -43 -29 -74t-67 -31t-66 32t-28 75zM592 1264q0 40 28.5 70t65.5 30q38 0 67 -31t29 -71q0 -43 -29 -74t-67 -31t-66 32t-28 75z" />
<glyph unicode="&#xa9;" horiz-adv-x="1613" d="M94 682q0 196 96 360.5t262.5 259.5t364.5 95q141 0 271 -57t224.5 -153t151 -228.5t56.5 -276.5q0 -145 -56.5 -277t-152 -227.5t-227.5 -152t-277 -56.5q-144 0 -276 56.5t-227.5 152t-152.5 227.5t-57 277zM172 682q0 -130 50.5 -249.5t136 -205.5t203 -137t245.5 -51 q172 0 318.5 86.5t231.5 235t85 323.5q0 172 -85 320.5t-229.5 235.5t-312.5 87q-133 0 -252 -50.5t-205 -136.5t-136 -205.5t-50 -252.5zM442 682q0 182 108 295t281 113q139 0 236 -73.5t109 -187.5h-93q-20 86 -87 134.5t-167 48.5q-133 0 -213.5 -90t-80.5 -238 q0 -151 79.5 -240.5t212.5 -89.5q114 0 183 64t84 184h92q-12 -149 -109.5 -237.5t-251.5 -88.5q-173 0 -278 111.5t-105 294.5z" />
<glyph unicode="&#xaa;" horiz-adv-x="747" d="M70 608v68h608v-68h-608zM119 963q0 109 108 149q31 12 57.5 16t137.5 15q47 5 64.5 18t17.5 45q0 57 -33 83t-104 26t-105.5 -30t-40.5 -97h-78q4 95 63.5 144.5t168.5 49.5q118 0 172 -57q22 -22 29.5 -48.5t7.5 -84.5l-2 -168q0 -119 6 -132q6 -9 24 -9q12 0 33 6v-64 q-25 -10 -59 -10q-38 0 -56.5 19.5t-21.5 62.5q-71 -92 -203 -92q-86 0 -136 42.5t-50 115.5zM201 969q0 -44 33 -70.5t90 -26.5q78 0 129 44.5t51 113.5v72q-51 -17 -88 -21q-122 -16 -158 -32q-57 -25 -57 -80z" />
<glyph unicode="&#xab;" horiz-adv-x="794" d="M100 449v116l256 240v-125l-180 -174l180 -170v-131zM410 446v117l256 242v-125l-181 -174l181 -172v-127z" />
<glyph unicode="&#xac;" d="M68 449v112h886v-561h-125v449h-761z" />
<glyph unicode="&#xad;" horiz-adv-x="454" d="M0 451v108h455v-108h-455z" />
<glyph unicode="&#xae;" horiz-adv-x="1077" d="M121 975q0 180 120.5 301t299.5 121t299.5 -122.5t120.5 -303.5q0 -180 -121 -303t-299 -123q-180 0 -300 123t-120 307zM197 971q0 -155 97.5 -256t246.5 -101q151 0 247.5 101t96.5 258q0 154 -97 255t-245 101q-151 0 -248.5 -101.5t-97.5 -256.5zM369 735v469h225 q147 0 147 -131q0 -47 -16 -71.5t-57 -43.5q42 -15 54 -42t15 -111q0 -18 7.5 -41t15.5 -29h-84q-12 32 -14 86q-3 58 -23 80.5t-70 22.5h-127v-189h-73zM442 985h144q38 0 59 21t21 59q0 74 -86 74h-138v-154z" />
<glyph unicode="&#xaf;" d="M244 1229v86h538v-86h-538z" />
<glyph unicode="&#xb0;" horiz-adv-x="765" d="M92 1069q0 121 86 206t209 85q120 0 204.5 -85.5t84.5 -207.5q0 -120 -85.5 -205.5t-205.5 -85.5q-121 0 -207 86t-86 207zM172 1069q0 -89 62.5 -152t150.5 -63q86 0 148.5 62t62.5 147q0 92 -62 155.5t-153 63.5q-85 0 -147 -63.5t-62 -149.5z" />
<glyph unicode="&#xb1;" horiz-adv-x="1120" d="M100 102v88h916v-88h-916zM100 721v88h414v414h88v-414h414v-88h-414v-414h-88v414h-414z" />
<glyph unicode="&#xb2;" horiz-adv-x="729" d="M76 547q7 112 60 179.5t204 158.5q121 75 163 124.5t42 116.5q0 71 -48.5 114.5t-127.5 43.5q-182 0 -185 -221h-88v18q0 128 74 202.5t203 74.5q118 0 190 -64t72 -170q0 -91 -56.5 -156.5t-216.5 -162.5q-95 -57 -133.5 -94.5t-52.5 -85.5h463v-78h-563z" />
<glyph unicode="&#xb3;" horiz-adv-x="729" d="M63 813h87v-14v-6q2 -86 57.5 -138.5t146.5 -52.5q88 0 145.5 48.5t57.5 121.5q0 78 -54.5 119t-158.5 41h-47v74q18 -2 41 -2q91 0 139.5 36t48.5 103q0 64 -46.5 102.5t-123.5 38.5q-182 0 -188 -201h-86q5 134 75.5 204.5t202.5 70.5q115 0 185.5 -59t70.5 -154 q0 -120 -118 -170q72 -20 110.5 -70.5t38.5 -124.5q0 -112 -81 -182t-212 -70q-142 0 -217.5 73.5t-73.5 211.5z" />
<glyph unicode="&#xb4;" d="M424 1133l192 272h146l-242 -272h-96z" />
<glyph unicode="&#xb5;" d="M113 -338v1321h112v-567q0 -108 15.5 -163t58.5 -99q83 -86 199 -86q132 0 215.5 103t83.5 267v545h112v-983h-112v201q-90 -230 -301 -230q-91 0 -155 37.5t-116 122.5v-469h-112z" />
<glyph unicode="&#xb6;" horiz-adv-x="1120" d="M90 999q0 102 44 185t122 127q94 55 262 55h477v-92h-88v-1641h-116v1641h-191v-1641h-117v1008h-32q-158 0 -259.5 100.5t-101.5 257.5z" />
<glyph unicode="&#xb7;" horiz-adv-x="456" d="M133 498q0 40 28.5 70t65.5 30q38 0 67.5 -31t29.5 -71q0 -42 -29 -73.5t-68 -31.5q-38 0 -66 32t-28 75z" />
<glyph unicode="&#xb8;" d="M319 -350l27 57q76 -31 135 -31q54 0 85.5 23t31.5 63q0 35 -28 56.5t-72 21.5q-33 0 -80 -16l-29 29l115 147h63l-82 -106q49 6 70 6q68 0 109 -34.5t41 -92.5q0 -74 -56.5 -118t-152.5 -44q-80 0 -177 39z" />
<glyph unicode="&#xb9;" horiz-adv-x="729" d="M158 1135l2 67q91 2 133.5 13.5t64 40.5t35.5 94h74v-803h-92v588h-25h-84h-67h-41z" />
<glyph unicode="&#xba;" horiz-adv-x="747" d="M70 608v68h608v-68h-608zM106 1092q0 132 74 210t199 78q120 0 192 -78.5t72 -209.5q0 -132 -72.5 -209.5t-195.5 -77.5q-122 0 -195.5 78.5t-73.5 208.5zM188 1092q0 -101 50.5 -160.5t138.5 -59.5q85 0 134.5 59.5t49.5 160.5q0 100 -49.5 160.5t-132.5 60.5 q-88 0 -139.5 -60t-51.5 -161z" />
<glyph unicode="&#xbb;" horiz-adv-x="794" d="M129 207v125l180 174l-180 172v125l256 -238v-116zM436 205v127l182 172l-182 170v131l258 -244v-115z" />
<glyph unicode="&#xbc;" horiz-adv-x="1757" d="M160 1135l2 67q91 2 133.5 13.5t64 40.5t35.5 94h74v-803h-92v588h-25h-84h-67h-41zM428 0l811 1341h90l-811 -1341h-90zM1092 195v75l391 533h76v-537h124v-71h-124v-195h-84v195h-383zM1174 266h301v414z" />
<glyph unicode="&#xbd;" horiz-adv-x="1757" d="M160 1135l2 67q91 2 133.5 13.5t64 40.5t35.5 94h74v-803h-92v588h-25h-84h-67h-41zM428 0l811 1341h90l-811 -1341h-90zM1106 0q7 112 60 179.5t204 158.5q120 75 162.5 125.5t42.5 116.5q0 70 -49 113.5t-127 43.5q-182 0 -185 -219h-88v19q0 128 74 202t201 74 q120 0 192 -62.5t72 -168.5q0 -92 -56.5 -159t-217.5 -165q-94 -57 -132.5 -95t-52.5 -85h463v-78h-563z" />
<glyph unicode="&#xbe;" horiz-adv-x="1757" d="M63 813h87v-14v-6q2 -86 57.5 -138.5t146.5 -52.5q88 0 145.5 48.5t57.5 121.5q0 78 -54.5 119t-158.5 41h-47v74q18 -2 41 -2q91 0 139.5 36t48.5 103q0 64 -46.5 102.5t-123.5 38.5q-182 0 -188 -201h-86q5 134 75.5 204.5t202.5 70.5q115 0 185.5 -59t70.5 -154 q0 -120 -118 -170q72 -20 110.5 -70.5t38.5 -124.5q0 -112 -81 -182t-212 -70q-142 0 -217.5 73.5t-73.5 211.5zM430 0l811 1341h90l-811 -1341h-90zM1094 195v75l393 533h74v-537h125v-71h-125v-195h-84v195h-383zM1176 266h301v414z" />
<glyph unicode="&#xbf;" horiz-adv-x="1011" d="M88 -55q0 130 76 231q33 44 153 156q76 70 97.5 126.5t23.5 186.5h115q-1 -62 -2.5 -97t-11 -74t-20 -61.5t-39.5 -60t-59 -67.5t-87 -86q-121 -121 -121 -246q0 -114 76.5 -185t199.5 -71q177 0 256 139q24 41 34.5 85t15.5 122h114q-3 -93 -17.5 -154t-47.5 -114 q-54 -88 -148 -136.5t-211 -48.5q-177 0 -287 98.5t-110 256.5zM403 883q0 40 29 70t66 30q38 0 67 -31t29 -71q0 -43 -29 -74t-67 -31t-66.5 32t-28.5 75z" />
<glyph unicode="&#xc0;" horiz-adv-x="1275" d="M18 0l551 1370h146l545 -1370h-146l-164 430h-624l-168 -430h-140zM365 535h546l-196 505q-57 149 -74 207q-17 -45 -76 -200zM367 1737h157l211 -258h-100z" />
<glyph unicode="&#xc1;" horiz-adv-x="1275" d="M18 0l551 1370h146l545 -1370h-146l-164 430h-624l-168 -430h-140zM365 535h546l-196 505q-57 149 -74 207q-17 -45 -76 -200zM588 1479l213 258h157l-270 -258h-100z" />
<glyph unicode="&#xc2;" horiz-adv-x="1275" d="M18 0l551 1370h146l545 -1370h-146l-164 430h-624l-168 -430h-140zM340 1479l235 258h125l238 -258h-121l-182 186l-186 -186h-109zM365 535h546l-196 505q-57 149 -74 207q-17 -45 -76 -200z" />
<glyph unicode="&#xc3;" horiz-adv-x="1275" d="M18 0l551 1370h146l545 -1370h-146l-164 430h-624l-168 -430h-140zM350 1509q15 89 61 137t115 48q54 0 127 -37q70 -34 90 -41.5t45 -7.5q69 0 93 94h73q-35 -184 -166 -184q-36 0 -69.5 11.5t-130.5 57.5q-39 17 -70 17q-37 0 -59.5 -22.5t-36.5 -72.5h-72zM365 535 h546l-196 505q-57 149 -74 207q-17 -45 -76 -200z" />
<glyph unicode="&#xc4;" horiz-adv-x="1275" d="M18 0l551 1370h146l545 -1370h-146l-164 430h-624l-168 -430h-140zM338 1597q0 40 28.5 70.5t65.5 30.5q38 0 67 -31.5t29 -71.5q0 -42 -28.5 -73t-67.5 -31q-38 0 -66 31.5t-28 74.5zM365 535h546l-196 505q-57 149 -74 207q-17 -45 -76 -200zM752 1597q0 40 28.5 70.5 t65.5 30.5q38 0 67 -31.5t29 -71.5q0 -42 -28.5 -73t-67.5 -31q-38 0 -66 31.5t-28 74.5z" />
<glyph unicode="&#xc5;" horiz-adv-x="1275" d="M18 0l551 1370h146l545 -1370h-146l-164 430h-624l-168 -430h-140zM365 535h546l-196 505q-57 149 -74 207q-17 -45 -76 -200zM440 1640q0 82 59 139.5t144 57.5q80 0 137.5 -58.5t57.5 -140.5q0 -83 -58 -140.5t-141 -57.5t-141 58t-58 142zM520 1638q0 -49 34.5 -83.5 t84.5 -34.5t84.5 34.5t34.5 83.5t-34.5 84t-82.5 35q-51 0 -86 -34t-35 -85z" />
<glyph unicode="&#xc6;" horiz-adv-x="1789" d="M2 0l713 1366h987v-113h-705v-489h658v-113h-658v-538h713v-113h-842v446h-489l-227 -446h-150zM432 555h436v698h-80z" />
<glyph unicode="&#xc7;" horiz-adv-x="1380" d="M94 678q0 308 168 508q175 211 469 211q221 0 373 -120t184 -321h-129q-32 149 -149.5 238.5t-280.5 89.5q-227 0 -366.5 -166t-139.5 -436q0 -274 136 -438t362 -164q191 0 317.5 122t139.5 320h129q-22 -252 -181 -402.5t-403 -150.5l-64 -84q53 9 70 9 q63 0 106.5 -35.5t43.5 -89.5q0 -72 -58.5 -118t-150.5 -46q-81 0 -181 39l27 57q76 -31 141 -31q49 0 81 25t32 63q0 34 -27.5 55t-70.5 21q-34 0 -82 -18l-31 28l96 129q-257 19 -409 210t-152 495z" />
<glyph unicode="&#xc8;" horiz-adv-x="1198" d="M166 0v1366h948v-113h-819v-489h766v-113h-766v-538h827v-113h-956zM399 1737h158l213 -258h-100z" />
<glyph unicode="&#xc9;" horiz-adv-x="1198" d="M166 0v1366h948v-113h-819v-489h766v-113h-766v-538h827v-113h-956zM555 1479l211 258h158l-269 -258h-100z" />
<glyph unicode="&#xca;" horiz-adv-x="1198" d="M166 0v1366h948v-113h-819v-489h766v-113h-766v-538h827v-113h-956zM344 1479l236 258h125l237 -258h-121l-182 186l-184 -186h-111z" />
<glyph unicode="&#xcb;" horiz-adv-x="1198" d="M166 0v1366h948v-113h-819v-489h766v-113h-766v-538h827v-113h-956zM340 1597q0 40 28.5 70.5t65.5 30.5q38 0 67 -31.5t29 -71.5q0 -42 -28.5 -73t-67.5 -31q-38 0 -66 31.5t-28 74.5zM754 1597q0 40 28.5 70.5t65.5 30.5q38 0 67 -31.5t29 -71.5q0 -42 -28.5 -73 t-67.5 -31q-38 0 -66 31.5t-28 74.5z" />
<glyph unicode="&#xcc;" horiz-adv-x="456" d="M-10 1737h149l178 -258h-92zM166 0v1366h129v-1366h-129z" />
<glyph unicode="&#xcd;" horiz-adv-x="456" d="M164 0v1366h129v-1366h-129zM188 1479l179 258h149l-235 -258h-93z" />
<glyph unicode="&#xce;" horiz-adv-x="456" d="M-29 1479l195 258h125l190 -258h-114l-142 186l-145 -186h-109zM164 0v1366h129v-1366h-129z" />
<glyph unicode="&#xcf;" horiz-adv-x="456" d="M10 1597q0 40 28.5 70.5t65.5 30.5q38 0 67.5 -31.5t29.5 -71.5q0 -42 -29 -73t-68 -31q-38 0 -66 31.5t-28 74.5zM164 0v1366h129v-1366h-129zM260 1597q0 40 28.5 70.5t65.5 30.5q38 0 67.5 -31.5t29.5 -71.5q0 -42 -29 -73t-68 -31q-38 0 -66 31.5t-28 74.5z" />
<glyph unicode="&#xd0;" horiz-adv-x="1363" d="M23 664v108h143v594h475q148 0 249 -32t183 -105q96 -88 146.5 -221.5t50.5 -298.5q0 -361 -193 -557q-82 -83 -178.5 -117.5t-247.5 -34.5h-485v664h-143zM295 113h326q141 0 222 25.5t146 90.5q152 158 152 473q0 280 -146 426q-64 66 -148 95.5t-206 29.5h-346v-481 h410v-108h-410v-551z" />
<glyph unicode="&#xd1;" horiz-adv-x="1404" d="M166 0v1366h145l635 -926q108 -155 178 -286q-8 140 -8 360v852h125v-1366h-145l-633 915q-97 148 -125.5 194.5t-54.5 100.5q1 -13 6 -98v-74v-59l2 -96v-883h-125zM420 1509q17 90 62 137.5t114 47.5q54 0 127 -37q70 -34 90 -41.5t45 -7.5q68 0 92 94h74 q-35 -184 -166 -184q-36 0 -70.5 12t-130.5 57q-39 17 -69 17q-37 0 -59.5 -23t-34.5 -72h-74z" />
<glyph unicode="&#xd2;" horiz-adv-x="1474" d="M94 682q0 323 178.5 519t472.5 196q184 0 329 -91t225.5 -254.5t80.5 -371.5q0 -210 -80.5 -371.5t-227.5 -250.5t-337 -89q-287 0 -464 196.5t-177 516.5zM223 686q0 -272 141 -438t373 -166q230 0 372 165t142 433q0 267 -142 435.5t-366 168.5q-236 0 -378 -163 t-142 -435zM483 1737h158l213 -258h-100z" />
<glyph unicode="&#xd3;" horiz-adv-x="1474" d="M94 682q0 323 178.5 519t472.5 196q184 0 329 -91t225.5 -254.5t80.5 -371.5q0 -210 -80.5 -371.5t-227.5 -250.5t-337 -89q-287 0 -464 196.5t-177 516.5zM223 686q0 -272 141 -438t373 -166q230 0 372 165t142 433q0 267 -142 435.5t-366 168.5q-236 0 -378 -163 t-142 -435zM647 1479l213 258h158l-270 -258h-101z" />
<glyph unicode="&#xd4;" horiz-adv-x="1474" d="M94 682q0 323 178.5 519t472.5 196q184 0 329 -91t225.5 -254.5t80.5 -371.5q0 -210 -80.5 -371.5t-227.5 -250.5t-337 -89q-287 0 -464 196.5t-177 516.5zM223 686q0 -272 141 -438t373 -166q230 0 372 165t142 433q0 267 -142 435.5t-366 168.5q-236 0 -378 -163 t-142 -435zM438 1479l236 258h125l237 -258h-121l-182 186l-186 -186h-109z" />
<glyph unicode="&#xd5;" horiz-adv-x="1474" d="M94 682q0 323 178.5 519t472.5 196q184 0 329 -91t225.5 -254.5t80.5 -371.5q0 -210 -80.5 -371.5t-227.5 -250.5t-337 -89q-287 0 -464 196.5t-177 516.5zM223 686q0 -272 141 -438t373 -166q230 0 372 165t142 433q0 267 -142 435.5t-366 168.5q-236 0 -378 -163 t-142 -435zM455 1509q17 90 62 137.5t114 47.5q54 0 127 -37q70 -34 90 -41.5t45 -7.5q68 0 92 94h74q-35 -184 -166 -184q-36 0 -70.5 12t-130.5 57q-39 17 -69 17q-72 0 -95 -95h-73z" />
<glyph unicode="&#xd6;" horiz-adv-x="1474" d="M94 682q0 323 178.5 519t472.5 196q184 0 329 -91t225.5 -254.5t80.5 -371.5q0 -210 -80.5 -371.5t-227.5 -250.5t-337 -89q-287 0 -464 196.5t-177 516.5zM223 686q0 -272 141 -438t373 -166q230 0 372 165t142 433q0 267 -142 435.5t-366 168.5q-236 0 -378 -163 t-142 -435zM436 1597q0 40 28.5 70.5t65.5 30.5q38 0 67.5 -31.5t29.5 -71.5q0 -42 -29 -73t-68 -31q-38 0 -66 31.5t-28 74.5zM850 1597q0 40 28.5 70.5t65.5 30.5q38 0 67 -31.5t29 -71.5q0 -42 -28.5 -73t-67.5 -31q-38 0 -66 31.5t-28 74.5z" />
<glyph unicode="&#xd7;" horiz-adv-x="1120" d="M170 336l326 326l-326 327l63 62l326 -326l326 326l63 -62l-325 -327l325 -326l-63 -64l-326 328l-326 -328z" />
<glyph unicode="&#xd8;" horiz-adv-x="1474" d="M94 39l148 164q-148 200 -148 479q0 319 177.5 517t463.5 198q262 0 434 -166l140 158l69 -64l-145 -166q147 -196 147 -479q0 -210 -80.5 -371.5t-227.5 -250.5t-337 -89q-254 0 -428 162l-143 -154zM223 688q0 -236 109 -395l751 854q-82 72 -163 104.5t-183 32.5 q-230 0 -372 -164.5t-142 -431.5zM393 215q86 -72 165 -102.5t179 -30.5q230 0 372 165t142 433q0 234 -110 395z" />
<glyph unicode="&#xd9;" horiz-adv-x="1351" d="M145 551v815h129v-819q0 -121 14.5 -190.5t49.5 -125.5q99 -153 348 -153q238 0 330 147q35 55 49 128t14 196v817h129v-819q0 -146 -18 -226t-68 -155q-135 -197 -438 -197q-335 0 -467 221q-40 66 -56 147t-16 214zM422 1737h158l213 -258h-101z" />
<glyph unicode="&#xda;" horiz-adv-x="1351" d="M145 551v815h129v-819q0 -121 14.5 -190.5t49.5 -125.5q99 -153 348 -153q238 0 330 147q35 55 49 128t14 196v817h129v-819q0 -146 -18 -226t-68 -155q-135 -197 -438 -197q-335 0 -467 221q-40 66 -56 147t-16 214zM604 1479l213 258h156l-268 -258h-101z" />
<glyph unicode="&#xdb;" horiz-adv-x="1351" d="M145 551v815h129v-819q0 -121 14.5 -190.5t49.5 -125.5q99 -153 348 -153q238 0 330 147q35 55 49 128t14 196v817h129v-819q0 -146 -18 -226t-68 -155q-135 -197 -438 -197q-335 0 -467 221q-40 66 -56 147t-16 214zM379 1479l235 258h125l238 -258h-123l-180 186 l-187 -186h-108z" />
<glyph unicode="&#xdc;" horiz-adv-x="1351" d="M145 551v815h129v-819q0 -121 14.5 -190.5t49.5 -125.5q99 -153 348 -153q238 0 330 147q35 55 49 128t14 196v817h129v-819q0 -146 -18 -226t-68 -155q-135 -197 -438 -197q-335 0 -467 221q-40 66 -56 147t-16 214zM375 1597q0 40 28.5 70.5t65.5 30.5q38 0 67 -31.5 t29 -71.5q0 -42 -28.5 -73t-67.5 -31q-38 0 -66 31.5t-28 74.5zM788 1597q0 40 29 70.5t66 30.5q38 0 67 -31.5t29 -71.5q0 -42 -28.5 -73t-67.5 -31q-38 0 -66.5 31.5t-28.5 74.5z" />
<glyph unicode="&#xdd;" horiz-adv-x="1185" d="M-12 1366h155l381 -571q48 -74 74 -121q14 23 39.5 65.5t30.5 51.5l383 575h149l-541 -801v-565h-129v565zM506 1479l213 258h155l-268 -258h-100z" />
<glyph unicode="&#xde;" horiz-adv-x="1247" d="M166 0v1366h129v-205h416q115 0 184.5 -15t126.5 -52q156 -107 156 -318q0 -217 -152 -323q-57 -41 -126.5 -58.5t-174.5 -17.5h-430v-377h-129zM295 489h395q89 0 142 11t96 37q121 76 121 233q0 159 -119 231q-43 28 -95 38t-153 10h-387v-560z" />
<glyph unicode="&#xdf;" horiz-adv-x="1060" d="M152 0v936q0 134 10.5 195t42.5 110q46 72 132 112t193 40q172 0 275.5 -92t103.5 -244q0 -112 -57 -187.5t-160 -101.5q135 -19 210 -112t75 -244q0 -194 -116.5 -310t-311.5 -116q-6 0 -92 4v98q66 -4 69 -4q158 0 244 84.5t86 239.5q0 158 -90 230.5t-285 72.5 q-14 0 -24 -2v98q80 0 122.5 7t82.5 26q126 60 126 213q0 107 -72.5 173t-189.5 66q-143 0 -204 -86q-28 -38 -39 -89t-11 -142v-975h-120z" />
<glyph unicode="&#xe0;" horiz-adv-x="1021" d="M72 260q0 171 151 244q51 25 131 40.5t244 33.5q91 9 124.5 37.5t33.5 95.5q0 103 -63 152.5t-193 49.5q-127 0 -192.5 -56t-74.5 -173h-120q11 94 35.5 147.5t76.5 96.5q106 86 289 86q363 0 363 -316v-524q0 -35 17.5 -54.5t49.5 -19.5q20 0 41 9v-101q-31 -8 -74 -8 q-80 0 -113.5 38t-33.5 128v6h-2q-79 -115 -155 -158t-201 -43q-157 0 -245.5 77t-88.5 212zM193 266q0 -89 58 -140.5t157 -51.5q148 0 248 88.5t100 218.5v158h-4q-15 -22 -49 -32.5t-136 -25.5q-169 -24 -239 -49t-102.5 -64.5t-32.5 -101.5zM295 1405h145l193 -272h-96z " />
<glyph unicode="&#xe1;" horiz-adv-x="1021" d="M72 260q0 171 151 244q51 25 131 40.5t244 33.5q91 9 124.5 37.5t33.5 95.5q0 103 -63 152.5t-193 49.5q-127 0 -192.5 -56t-74.5 -173h-120q11 94 35.5 147.5t76.5 96.5q106 86 289 86q363 0 363 -316v-524q0 -35 17.5 -54.5t49.5 -19.5q20 0 41 9v-101q-31 -8 -74 -8 q-80 0 -113.5 38t-33.5 128v6h-2q-79 -115 -155 -158t-201 -43q-157 0 -245.5 77t-88.5 212zM193 266q0 -89 58 -140.5t157 -51.5q148 0 248 88.5t100 218.5v158h-4q-15 -22 -49 -32.5t-136 -25.5q-169 -24 -239 -49t-102.5 -64.5t-32.5 -101.5zM453 1133l192 272h146 l-242 -272h-96z" />
<glyph unicode="&#xe2;" horiz-adv-x="1021" d="M72 260q0 171 151 244q51 25 131 40.5t244 33.5q91 9 124.5 37.5t33.5 95.5q0 103 -63 152.5t-193 49.5q-127 0 -192.5 -56t-74.5 -173h-120q11 94 35.5 147.5t76.5 96.5q106 86 289 86q363 0 363 -316v-524q0 -35 17.5 -54.5t49.5 -19.5q20 0 41 9v-101q-31 -8 -74 -8 q-80 0 -113.5 38t-33.5 128v6h-2q-79 -115 -155 -158t-201 -43q-157 0 -245.5 77t-88.5 212zM193 266q0 -89 58 -140.5t157 -51.5q148 0 248 88.5t100 218.5v158h-4q-15 -22 -49 -32.5t-136 -25.5q-169 -24 -239 -49t-102.5 -64.5t-32.5 -101.5zM248 1133l203 272h120 l205 -272h-119l-149 202l-154 -202h-106z" />
<glyph unicode="&#xe3;" horiz-adv-x="1021" d="M72 260q0 171 151 244q51 25 131 40.5t244 33.5q91 9 124.5 37.5t33.5 95.5q0 103 -63 152.5t-193 49.5q-127 0 -192.5 -56t-74.5 -173h-120q11 94 35.5 147.5t76.5 96.5q106 86 289 86q363 0 363 -316v-524q0 -35 17.5 -54.5t49.5 -19.5q20 0 41 9v-101q-31 -8 -74 -8 q-80 0 -113.5 38t-33.5 128v6h-2q-79 -115 -155 -158t-201 -43q-157 0 -245.5 77t-88.5 212zM193 266q0 -89 58 -140.5t157 -51.5q148 0 248 88.5t100 218.5v158h-4q-15 -22 -49 -32.5t-136 -25.5q-169 -24 -239 -49t-102.5 -64.5t-32.5 -101.5zM240 1174q13 92 53.5 140 t103.5 48q51 0 115 -37q64 -36 82 -43.5t41 -7.5q58 0 76 94h73q-35 -186 -151 -186q-32 0 -62 12t-118 59q-31 17 -62 17t-50.5 -23t-29.5 -73h-71z" />
<glyph unicode="&#xe4;" horiz-adv-x="1021" d="M72 260q0 171 151 244q51 25 131 40.5t244 33.5q91 9 124.5 37.5t33.5 95.5q0 103 -63 152.5t-193 49.5q-127 0 -192.5 -56t-74.5 -173h-120q11 94 35.5 147.5t76.5 96.5q106 86 289 86q363 0 363 -316v-524q0 -35 17.5 -54.5t49.5 -19.5q20 0 41 9v-101q-31 -8 -74 -8 q-80 0 -113.5 38t-33.5 128v6h-2q-79 -115 -155 -158t-201 -43q-157 0 -245.5 77t-88.5 212zM193 266q0 -89 58 -140.5t157 -51.5q148 0 248 88.5t100 218.5v158h-4q-15 -22 -49 -32.5t-136 -25.5q-169 -24 -239 -49t-102.5 -64.5t-32.5 -101.5zM246 1264q0 40 28 70t66 30 q37 0 65.5 -31t28.5 -71q0 -41 -29 -73t-67 -32q-37 0 -64.5 32t-27.5 75zM592 1264q0 40 28.5 70t65.5 30q38 0 67 -31t29 -71q0 -43 -29 -74t-67 -31t-66 32t-28 75z" />
<glyph unicode="&#xe5;" horiz-adv-x="1021" d="M72 260q0 171 151 244q51 25 131 40.5t244 33.5q91 9 124.5 37.5t33.5 95.5q0 103 -63 152.5t-193 49.5q-127 0 -192.5 -56t-74.5 -173h-120q11 94 35.5 147.5t76.5 96.5q106 86 289 86q363 0 363 -316v-524q0 -35 17.5 -54.5t49.5 -19.5q20 0 41 9v-101q-31 -8 -74 -8 q-80 0 -113.5 38t-33.5 128v6h-2q-79 -115 -155 -158t-201 -43q-157 0 -245.5 77t-88.5 212zM193 266q0 -89 58 -140.5t157 -51.5q148 0 248 88.5t100 218.5v158h-4q-15 -22 -49 -32.5t-136 -25.5q-169 -24 -239 -49t-102.5 -64.5t-32.5 -101.5zM334 1286q0 78 56.5 133.5 t137.5 55.5q77 0 133 -56.5t56 -134.5t-56.5 -134t-134.5 -56q-80 0 -136 56t-56 136zM414 1284q0 -46 32.5 -78t79.5 -32q46 0 78.5 32t32.5 78q0 44 -33.5 77.5t-77.5 33.5q-46 0 -79 -32.5t-33 -78.5z" />
<glyph unicode="&#xe6;" horiz-adv-x="1687" d="M55 260q0 88 37 146.5t115 95.5q52 26 134.5 42t240.5 31q90 9 123.5 38.5t33.5 97.5q0 103 -63 152.5t-193 49.5q-127 0 -192 -56t-74 -173h-121q10 94 35 147.5t78 96.5q106 86 289 86q278 0 344 -193q44 93 131.5 143t206.5 50q202 0 318 -134.5t116 -367.5 q0 -29 -2 -49h-748q0 -123 29 -195q38 -95 114.5 -145.5t180.5 -50.5q121 0 193.5 61t103.5 189h117q-34 -166 -146 -258.5t-280 -92.5q-136 0 -229.5 63t-137.5 185l-8 35q-31 -73 -105 -158q-110 -125 -307 -125q-157 0 -245.5 77t-88.5 212zM176 264q0 -88 58 -139 t157 -51q148 0 248 88t100 217v160h-4q-15 -23 -48.5 -34t-135.5 -26q-171 -24 -240 -47q-71 -26 -103 -66.5t-32 -101.5zM862 563h629q-3 161 -87 255.5t-224 94.5q-86 0 -156.5 -39.5t-110.5 -109.5q-40 -67 -51 -201z" />
<glyph unicode="&#xe7;" horiz-adv-x="1017" d="M84 483q0 242 125 386.5t334 144.5q172 0 278.5 -89.5t126.5 -250.5h-123q-23 117 -94 178t-186 61q-155 0 -247.5 -114t-92.5 -307q0 -192 89.5 -306t240.5 -114q123 0 201.5 73.5t97.5 206.5h120q-22 -177 -140.5 -282.5t-287.5 -98.5l-59 -77q50 6 68 6 q69 0 110 -34.5t41 -92.5q0 -74 -57 -118t-152 -44q-81 0 -178 39l27 57q76 -31 137 -31q54 0 85.5 23t31.5 63q0 35 -28.5 56.5t-74.5 21.5q-34 0 -78 -16l-28 29l94 122q-174 23 -277.5 161t-103.5 347z" />
<glyph unicode="&#xe8;" horiz-adv-x="1044" d="M84 483q0 233 126.5 382t324.5 149q126 0 225.5 -65t154.5 -183q54 -117 54 -303l-764 2q4 -190 90.5 -291.5t243.5 -101.5q240 0 303 254h114q-34 -171 -142.5 -263t-276.5 -92q-206 0 -329.5 139.5t-123.5 372.5zM207 563h639q-7 161 -92.5 255.5t-223.5 94.5 q-137 0 -220 -90t-103 -260zM319 1405h148l192 -272h-98z" />
<glyph unicode="&#xe9;" horiz-adv-x="1044" d="M84 483q0 233 126.5 382t324.5 149q126 0 225.5 -65t154.5 -183q54 -117 54 -303l-764 2q4 -190 90.5 -291.5t243.5 -101.5q240 0 303 254h114q-34 -171 -142.5 -263t-276.5 -92q-206 0 -329.5 139.5t-123.5 372.5zM207 563h639q-7 161 -92.5 255.5t-223.5 94.5 q-137 0 -220 -90t-103 -260zM496 1133l190 272h148l-242 -272h-96z" />
<glyph unicode="&#xea;" horiz-adv-x="1044" d="M84 483q0 233 126.5 382t324.5 149q126 0 225.5 -65t154.5 -183q54 -117 54 -303l-764 2q4 -190 90.5 -291.5t243.5 -101.5q240 0 303 254h114q-34 -171 -142.5 -263t-276.5 -92q-206 0 -329.5 139.5t-123.5 372.5zM207 563h639q-7 161 -92.5 255.5t-223.5 94.5 q-137 0 -220 -90t-103 -260zM279 1133l202 272h121l205 -272h-119l-149 202l-154 -202h-106z" />
<glyph unicode="&#xeb;" horiz-adv-x="1044" d="M84 483q0 233 126.5 382t324.5 149q126 0 225.5 -65t154.5 -183q54 -117 54 -303l-764 2q4 -190 90.5 -291.5t243.5 -101.5q240 0 303 254h114q-34 -171 -142.5 -263t-276.5 -92q-206 0 -329.5 139.5t-123.5 372.5zM207 563h639q-7 161 -92.5 255.5t-223.5 94.5 q-137 0 -220 -90t-103 -260zM268 1264q0 40 28.5 70t65.5 30q38 0 67.5 -31t29.5 -71q0 -42 -29 -73.5t-68 -31.5q-38 0 -66 32t-28 75zM614 1264q0 40 29 70t66 30q38 0 67 -31t29 -71q0 -43 -29 -74t-67 -31t-66.5 32t-28.5 75z" />
<glyph unicode="&#xec;" horiz-adv-x="419" d="M-6 1405h139l158 -272h-96zM150 0v985h120v-985h-120z" />
<glyph unicode="&#xed;" horiz-adv-x="419" d="M150 0v985h120v-985h-120zM178 1133l158 272h139l-201 -272h-96z" />
<glyph unicode="&#xee;" horiz-adv-x="419" d="M-10 1133l162 272h120l158 -272h-113l-108 196l-113 -196h-106zM152 0v985h120v-985h-120z" />
<glyph unicode="&#xef;" horiz-adv-x="419" d="M0 1264q0 40 28.5 70t65.5 30q38 0 67 -31t29 -71q0 -43 -29 -74t-67 -31t-66 32t-28 75zM152 0v985h120v-985h-120zM236 1264q0 40 28 70t66 30q37 0 65.5 -31t28.5 -71q0 -41 -29 -73t-67 -32q-37 0 -64.5 32t-27.5 75z" />
<glyph unicode="&#xf0;" horiz-adv-x="1101" d="M84 494q0 232 128 376t335 144q59 0 94.5 -11.5t93.5 -48.5q-47 86 -127 207l-151 -74l-41 72l145 78l-92 127l74 47l108 -129l150 74l47 -72l-143 -74q170 -242 241.5 -406t71.5 -315q0 -236 -126.5 -377t-338.5 -141t-340.5 143.5t-128.5 379.5zM207 492 q0 -193 94 -306.5t254 -113.5q157 0 249.5 114t92.5 306q0 190 -93 305.5t-247 115.5q-161 0 -255.5 -113.5t-94.5 -307.5z" />
<glyph unicode="&#xf1;" horiz-adv-x="1097" d="M152 0v985h112v-184q45 75 82 110q103 103 268 103q96 0 173 -35.5t118 -99.5q29 -44 40 -96.5t11 -149.5v-633h-120v596q0 93 -9.5 142t-33.5 81q-65 90 -205 90q-91 0 -162.5 -40.5t-108.5 -112.5q-26 -49 -35.5 -105.5t-9.5 -154.5v-496h-120zM303 1174q13 92 54 140 t104 48q47 0 114 -37q64 -36 82 -43.5t39 -7.5q57 0 78 94h72q-30 -186 -150 -186q-33 0 -64 12t-116 59q-34 17 -61 17q-32 0 -51 -22.5t-31 -73.5h-70z" />
<glyph unicode="&#xf2;" horiz-adv-x="1101" d="M84 492q0 239 128.5 380.5t346.5 141.5q209 0 334 -143.5t125 -381.5t-125.5 -378t-339.5 -140t-341.5 141.5t-127.5 379.5zM207 492q0 -193 94 -306.5t254 -113.5q157 0 249.5 114t92.5 306q0 190 -93 305.5t-247 115.5q-161 0 -255.5 -113.5t-94.5 -307.5zM332 1405 h147l193 -272h-99z" />
<glyph unicode="&#xf3;" horiz-adv-x="1101" d="M84 492q0 239 128.5 380.5t346.5 141.5q209 0 334 -143.5t125 -381.5t-125.5 -378t-339.5 -140t-341.5 141.5t-127.5 379.5zM207 492q0 -193 94 -306.5t254 -113.5q157 0 249.5 114t92.5 306q0 190 -93 305.5t-247 115.5q-161 0 -255.5 -113.5t-94.5 -307.5zM496 1133 l190 272h148l-242 -272h-96z" />
<glyph unicode="&#xf4;" horiz-adv-x="1101" d="M84 492q0 239 128.5 380.5t346.5 141.5q209 0 334 -143.5t125 -381.5t-125.5 -378t-339.5 -140t-341.5 141.5t-127.5 379.5zM207 492q0 -193 94 -306.5t254 -113.5q157 0 249.5 114t92.5 306q0 190 -93 305.5t-247 115.5q-161 0 -255.5 -113.5t-94.5 -307.5zM299 1133 l203 272h121l204 -272h-118l-150 202l-153 -202h-107z" />
<glyph unicode="&#xf5;" horiz-adv-x="1101" d="M84 492q0 239 128.5 380.5t346.5 141.5q209 0 334 -143.5t125 -381.5t-125.5 -378t-339.5 -140t-341.5 141.5t-127.5 379.5zM207 492q0 -193 94 -306.5t254 -113.5q157 0 249.5 114t92.5 306q0 190 -93 305.5t-247 115.5q-161 0 -255.5 -113.5t-94.5 -307.5zM293 1174 q13 92 54 140t104 48q47 0 114 -37q64 -36 82 -43.5t39 -7.5q57 0 78 94h72q-30 -186 -150 -186q-33 0 -64 12t-116 59q-34 17 -62 17q-32 0 -52 -22.5t-30 -73.5h-69z" />
<glyph unicode="&#xf6;" horiz-adv-x="1101" d="M84 492q0 239 128.5 380.5t346.5 141.5q209 0 334 -143.5t125 -381.5t-125.5 -378t-339.5 -140t-341.5 141.5t-127.5 379.5zM207 492q0 -193 94 -306.5t254 -113.5q157 0 249.5 114t92.5 306q0 190 -93 305.5t-247 115.5q-161 0 -255.5 -113.5t-94.5 -307.5zM285 1264 q0 40 28 70t66 30q37 0 65.5 -31t28.5 -71q0 -41 -29 -73t-67 -32q-37 0 -64.5 32t-27.5 75zM631 1264q0 40 28.5 70t65.5 30q38 0 67 -31t29 -71q0 -43 -29 -74t-67 -31t-66 32t-28 75z" />
<glyph unicode="&#xf7;" horiz-adv-x="1120" d="M100 618v89h916v-89h-916zM469 365q0 38 27 64t65 26q35 0 61.5 -26.5t26.5 -63.5t-26.5 -64t-63.5 -27t-63.5 27t-26.5 64zM469 961q0 38 27 64t65 26q35 0 61.5 -26.5t26.5 -63.5t-26.5 -64t-63.5 -27q-38 0 -64 27t-26 64z" />
<glyph unicode="&#xf8;" horiz-adv-x="1101" d="M63 27l117 125q-96 144 -96 342q0 235 127.5 377.5t339.5 142.5q192 0 317 -119l105 113l63 -58l-110 -121q50 -79 71 -156t21 -181q0 -239 -125.5 -380t-339.5 -141q-188 0 -317 115l-109 -117zM205 498q0 -158 59 -262l527 581q-102 96 -240 96q-156 0 -251 -114 t-95 -301zM315 166q56 -51 112.5 -72.5t127.5 -21.5q157 0 249.5 114t92.5 306q0 143 -59 253z" />
<glyph unicode="&#xf9;" horiz-adv-x="1095" d="M143 350v635h121v-584q0 -133 25 -198q23 -57 84.5 -92t138.5 -35q79 0 146 36t108 101q57 95 57 266v506h121v-985h-113v184q-119 -213 -346 -213q-83 0 -156.5 32t-117.5 87q-68 85 -68 260zM315 1405h148l190 -272h-96z" />
<glyph unicode="&#xfa;" horiz-adv-x="1095" d="M143 350v635h121v-584q0 -133 25 -198q23 -57 84.5 -92t138.5 -35q79 0 146 36t108 101q57 95 57 266v506h121v-985h-113v184q-119 -213 -346 -213q-83 0 -156.5 32t-117.5 87q-68 85 -68 260zM469 1133l193 272h145l-242 -272h-96z" />
<glyph unicode="&#xfb;" horiz-adv-x="1095" d="M143 350v635h121v-584q0 -133 25 -198q23 -57 84.5 -92t138.5 -35q79 0 146 36t108 101q57 95 57 266v506h121v-985h-113v184q-119 -213 -346 -213q-83 0 -156.5 32t-117.5 87q-68 85 -68 260zM289 1133l203 272h120l205 -272h-121l-147 202l-154 -202h-106z" />
<glyph unicode="&#xfc;" horiz-adv-x="1095" d="M143 350v635h121v-584q0 -133 25 -198q23 -57 84.5 -92t138.5 -35q79 0 146 36t108 101q57 95 57 266v506h121v-985h-113v184q-119 -213 -346 -213q-83 0 -156.5 32t-117.5 87q-68 85 -68 260zM287 1264q0 40 28.5 70t65.5 30q38 0 67 -31t29 -71q0 -43 -29 -74t-67 -31 t-66 32t-28 75zM633 1264q0 40 28.5 70t65.5 30q38 0 67 -31t29 -71q0 -43 -29 -74t-67 -31t-66 32t-28 75z" />
<glyph unicode="&#xfd;" horiz-adv-x="894" d="M6 985h131l269 -678q8 -22 57 -174q14 43 25 77.5t21 63.5t15 45l244 666h123l-387 -1024q-45 -115 -67 -164t-44 -80q-59 -92 -182 -92q-37 0 -80 6l-25 2v107q49 -12 87 -12q56 0 93 33.5t66 109.5q8 21 16.5 42t13 32.5t5.5 13.5q19 37 19 41l-3 6zM379 1133l192 272 h146l-242 -272h-96z" />
<glyph unicode="&#xfe;" horiz-adv-x="1146" d="M152 -367v1733h120v-565q44 101 136.5 157t216.5 56q201 0 320.5 -140.5t119.5 -375.5q0 -240 -119.5 -383.5t-320.5 -143.5q-125 0 -217 58.5t-136 167.5v-564h-120zM270 494q0 -193 92.5 -307.5t247.5 -114.5q152 0 243 115t91 307q0 190 -90.5 304.5t-241.5 114.5 q-160 0 -251 -112t-91 -307z" />
<glyph unicode="&#xff;" horiz-adv-x="894" d="M6 985h131l269 -678q8 -22 57 -174q14 43 25 77.5t21 63.5t15 45l244 666h123l-387 -1024q-45 -115 -67 -164t-44 -80q-59 -92 -182 -92q-37 0 -80 6l-25 2v107q49 -12 87 -12q56 0 93 33.5t66 109.5q8 21 16.5 42t13 32.5t5.5 13.5q19 37 19 41l-3 6zM180 1264 q0 40 28 70t66 30t67.5 -31t29.5 -71q0 -42 -29 -73.5t-68 -31.5q-38 0 -66 32t-28 75zM528 1264q0 40 28.5 70t66.5 30t67 -31t29 -71q0 -43 -29 -74t-67 -31t-66.5 32t-28.5 75z" />
<glyph unicode="&#x152;" horiz-adv-x="2107" d="M94 676q0 211 81.5 375t229 255t336.5 91q170 0 291 -74q17 -10 62 -49q20 -16 28 -21v113h899v-113h-778v-489h707v-113h-707v-538h787v-113h-908v139q-85 -89 -179 -129.5t-216 -40.5q-182 0 -326.5 90t-225.5 251.5t-81 365.5zM223 678q0 -264 143.5 -430t372.5 -166 q196 0 312 119q63 63 63 127v716q0 40 -17.5 71.5t-60.5 68.5q-112 100 -282 100q-238 0 -384.5 -167.5t-146.5 -438.5z" />
<glyph unicode="&#x153;" horiz-adv-x="1748" d="M84 489q0 242 119 383.5t321 141.5q270 0 357 -240q54 123 142 181.5t220 58.5q148 0 252 -77t145 -218q19 -59 24 -105t7 -151h-739v-31q0 -160 87.5 -260t227.5 -100q226 0 299 250h117q-40 -169 -150 -260t-274 -91q-280 0 -362 252q-40 -123 -133 -187.5t-230 -64.5 q-197 0 -313.5 140t-116.5 378zM205 487q0 -193 84.5 -304t232.5 -111q146 0 225.5 112.5t79.5 315.5q0 197 -79 305t-224 108q-151 0 -235 -112.5t-84 -313.5zM930 563h620q-8 141 -53 213q-43 65 -111 101t-147 36q-85 0 -154.5 -40.5t-107.5 -112.5q-39 -74 -47 -197z " />
<glyph unicode="&#x178;" horiz-adv-x="1185" d="M-12 1366h155l381 -571q48 -74 74 -121q14 23 39.5 65.5t30.5 51.5l383 575h149l-541 -801v-565h-129v565zM293 1597q0 40 27.5 70.5t64.5 30.5q38 0 67 -31.5t29 -71.5q0 -41 -29 -72.5t-67 -31.5t-65 31.5t-27 74.5zM707 1597q0 40 27.5 70.5t64.5 30.5q38 0 67 -31.5 t29 -71.5q0 -41 -29 -72.5t-67 -31.5t-65 31.5t-27 74.5z" />
<glyph unicode="&#x2c6;" d="M248 1133l203 272h120l205 -272h-119l-149 202l-154 -202h-106z" />
<glyph unicode="&#x2dc;" d="M240 1174q13 92 53.5 140t103.5 48q48 0 115 -37q64 -36 82 -43.5t41 -7.5q55 0 76 94h73q-35 -186 -151 -186q-32 0 -62 12t-118 59q-31 17 -62 17q-32 0 -51 -22.5t-31 -73.5h-69z" />
<glyph unicode="&#x2000;" horiz-adv-x="918" />
<glyph unicode="&#x2001;" horiz-adv-x="1837" />
<glyph unicode="&#x2002;" horiz-adv-x="918" />
<glyph unicode="&#x2003;" horiz-adv-x="1837" />
<glyph unicode="&#x2004;" horiz-adv-x="612" />
<glyph unicode="&#x2005;" horiz-adv-x="459" />
<glyph unicode="&#x2006;" horiz-adv-x="306" />
<glyph unicode="&#x2007;" horiz-adv-x="306" />
<glyph unicode="&#x2008;" horiz-adv-x="229" />
<glyph unicode="&#x2009;" horiz-adv-x="367" />
<glyph unicode="&#x200a;" horiz-adv-x="102" />
<glyph unicode="&#x2010;" horiz-adv-x="454" d="M0 451v108h455v-108h-455z" />
<glyph unicode="&#x2011;" horiz-adv-x="454" d="M0 451v108h455v-108h-455z" />
<glyph unicode="&#x2012;" horiz-adv-x="454" d="M0 451v108h455v-108h-455z" />
<glyph unicode="&#x2013;" horiz-adv-x="1120" d="M129 451v108h860v-108h-860z" />
<glyph unicode="&#x2014;" horiz-adv-x="1366" d="M0 451v108h1366v-108h-1366z" />
<glyph unicode="&#x2018;" horiz-adv-x="456" d="M127 1087q0 121 51 195t148 96v-84q-105 -37 -111 -168q10 2 25 2q47 0 77.5 -29t30.5 -73q0 -46 -30.5 -80.5t-71.5 -34.5q-57 0 -88 46t-31 130z" />
<glyph unicode="&#x2019;" horiz-adv-x="456" d="M115 1262q0 46 30.5 80t71.5 34q57 0 88 -46t31 -130q0 -120 -51 -193.5t-148 -95.5v82q54 20 81 61t30 109q-20 -4 -25 -4q-47 0 -77.5 29.5t-30.5 73.5z" />
<glyph unicode="&#x201a;" horiz-adv-x="456" d="M115 96q0 46 30.5 80.5t71.5 34.5q57 0 88 -46t31 -130q0 -121 -51 -195t-148 -96v84q105 37 111 168q-20 -4 -25 -4q-47 0 -77.5 29t-30.5 75z" />
<glyph unicode="&#x201c;" horiz-adv-x="743" d="M106 1098q0 132 70 211q28 29 55 44t74 25v-82q-104 -34 -110 -155l2 2h6h4q2 2 12 2q47 0 78 -29.5t31 -75.5q0 -44 -32 -78t-75 -34q-53 0 -84 46t-31 124zM401 1096q0 118 51 190t148 92v-82q-108 -35 -111 -155l3 2h6h4q4 2 12 2q47 0 78 -29.5t31 -75.5t-31.5 -79 t-75.5 -33q-52 0 -83.5 45.5t-31.5 122.5z" />
<glyph unicode="&#x201d;" horiz-adv-x="743" d="M106 1266q0 46 31.5 79t75.5 33q53 0 84 -46t31 -124q0 -238 -199 -280v82q52 15 80.5 54.5t30.5 98.5h-2h-7q-2 -2 -4 -2q-4 -2 -12 -2q-47 0 -78 30t-31 77zM401 1264q0 46 32 80t75 34q53 0 84 -46.5t31 -125.5q0 -130 -70 -209q-26 -31 -53.5 -45.5t-75.5 -23.5v82 q105 30 111 153h-3h-6q-2 -2 -4 -2q-2 -2 -12 -2q-47 0 -78 29.5t-31 75.5z" />
<glyph unicode="&#x201e;" horiz-adv-x="743" d="M113 96q0 46 31 79.5t75 33.5q52 0 83.5 -45.5t31.5 -122.5q0 -118 -51 -190.5t-148 -92.5v82q108 35 111 156l-2 -2h-6h-5q-4 -2 -12 -2q-47 0 -77.5 29t-30.5 75zM408 96q0 45 32 79t74 34q53 0 84 -46t31 -124q0 -132 -70 -211q-28 -30 -55.5 -45t-73.5 -25v82 q105 35 111 156l-2 -2h-7h-4q-2 -2 -12 -2q-47 0 -77.5 29t-30.5 75z" />
<glyph unicode="&#x2022;" horiz-adv-x="1366" d="M401 696q0 120 83.5 203.5t203.5 83.5q114 0 195.5 -84.5t81.5 -202.5q0 -119 -82 -202.5t-199 -83.5t-200 84t-83 202z" />
<glyph unicode="&#x2026;" horiz-adv-x="1372" d="M133 94q0 40 28.5 70.5t65.5 30.5q38 0 67.5 -31.5t29.5 -71.5q0 -42 -29 -73t-68 -31q-38 0 -66 31.5t-28 74.5zM590 94q0 40 28.5 70.5t65.5 30.5q38 0 67 -31.5t29 -71.5q0 -42 -28.5 -73t-67.5 -31q-38 0 -66 31.5t-28 74.5zM1049 94q0 40 28 70.5t66 30.5 q37 0 65.5 -31.5t28.5 -71.5q0 -41 -29 -72.5t-67 -31.5q-37 0 -64.5 31.5t-27.5 74.5z" />
<glyph unicode="&#x202f;" horiz-adv-x="367" />
<glyph unicode="&#x2039;" horiz-adv-x="485" d="M100 446v117l256 240v-125l-180 -174l180 -172v-125z" />
<glyph unicode="&#x203a;" horiz-adv-x="485" d="M129 207v125l180 174l-180 172v125l256 -238v-116z" />
<glyph unicode="&#x205f;" horiz-adv-x="459" />
<glyph unicode="&#x20ac;" horiz-adv-x="1120" d="M20 520l33 82h127v14v21v14q0 31 4 125h-164l33 82h140l2 10q41 261 164 395t321 134q106 0 209.5 -36t183.5 -101l-45 -105q-116 82 -190.5 112.5t-159.5 30.5q-297 0 -367 -428l-2 -12h590l-33 -82h-567v-12q-4 -54 -4 -94q0 -27 2 -68h500l-33 -82h-461 q29 -221 125.5 -335.5t253.5 -114.5q80 0 148.5 24t189.5 96v-127q-159 -96 -348 -96q-206 0 -328 136.5t-156 404.5l-2 12h-166z" />
<glyph unicode="&#x2122;" horiz-adv-x="1738" d="M25 1280v86h612v-86h-254v-702h-102v702h-256zM776 578v788h172l244 -621l235 621h175v-788h-101v696h-4l-270 -696h-72l-274 696h-4v-696h-101z" />
<glyph unicode="&#x25fc;" horiz-adv-x="983" d="M0 0v983h983v-983h-983z" />
</font>
</defs>
</svg>
