<?xml version="1.0" standalone="no"?>
<!DOCTYPE svg PUBLIC "-//W3C//DTD SVG 1.1//EN" "http://www.w3.org/Graphics/SVG/1.1/DTD/svg11.dtd" >
<svg xmlns="http://www.w3.org/2000/svg">
<metadata></metadata>
<defs>
<font id="uhc_sanssemibold" horiz-adv-x="1062" >
<font-face units-per-em="2048" ascent="1366" descent="-682" />
<missing-glyph horiz-adv-x="532" />
<glyph unicode="&#xfb01;" d="M-4 829v160h164v60q0 97 11 145.5t42 85.5q75 94 252 94q43 0 117 -6v-170q-55 6 -88 6q-68 0 -93.5 -26t-25.5 -93v-96h188v-160h-184v-829h-219v829h-164zM700 1251q0 54 40 93.5t94 39.5q55 0 93 -40t38 -99q0 -54 -39.5 -92.5t-94.5 -38.5q-54 0 -92.5 40t-38.5 97z M723 0v989h219v-989h-219z" />
<glyph unicode="&#xfb02;" d="M-4 829v160h164v60q0 97 11 145.5t42 85.5q75 94 252 94q43 0 117 -6v-170q-55 6 -88 6q-68 0 -93.5 -26t-25.5 -93v-96h188v-160h-184v-829h-219v829h-164zM723 0v1366h219v-1366h-219z" />
<glyph unicode="&#xfb03;" horiz-adv-x="1642" d="M4 829v160h164v60q0 97 11 145.5t42 85.5q75 94 252 94q43 0 117 -6v-170q-59 6 -88 6q-68 0 -93.5 -26t-25.5 -93v-96h348v60q0 98 11.5 145.5t43.5 85.5q79 94 250 94q44 0 117 -6v-170q-55 6 -88 6q-69 0 -93 -24.5t-24 -94.5v-96h187v-160h-185v-829h-219v829h-344 v-829h-219v829h-164zM1274 1251q0 54 39.5 93.5t93.5 39.5q55 0 93 -40t38 -99q0 -54 -39 -92.5t-94 -38.5q-54 0 -92.5 40t-38.5 97zM1294 0v989h219v-989h-219z" />
<glyph unicode="&#xfb04;" horiz-adv-x="1642" d="M4 829v160h164v60q0 97 11 145.5t42 85.5q75 94 252 94q43 0 117 -6v-170q-59 6 -88 6q-68 0 -93.5 -26t-25.5 -93v-96h348v60q0 98 11.5 145.5t43.5 85.5q79 94 250 94q44 0 117 -6v-170q-55 6 -88 6q-69 0 -93 -24.5t-24 -94.5v-96h187v-160h-185v-829h-219v829h-344 v-829h-219v829h-164zM1294 0v1366h219v-1366h-219z" />
<glyph horiz-adv-x="0" />
<glyph horiz-adv-x="682" />
<glyph unicode=" "  horiz-adv-x="532" />
<glyph unicode="&#x09;" horiz-adv-x="532" />
<glyph unicode="&#xa0;" horiz-adv-x="532" />
<glyph unicode="!" horiz-adv-x="532" d="M156 111q0 54 39.5 93.5t93.5 39.5q55 0 93 -40.5t38 -99.5q0 -54 -39 -92.5t-94 -38.5q-54 0 -92.5 40.5t-38.5 97.5zM166 973v393h242v-391l-70 -596h-113z" />
<glyph unicode="&#x22;" horiz-adv-x="849" d="M113 1366h264l-43 -547h-180zM475 1366h262l-41 -547h-180z" />
<glyph unicode="#" horiz-adv-x="1095" d="M27 403v142h200l58 295h-172v139h200l76 387h156l-76 -387h272l80 387h154l-78 -387h172v-139h-201l-57 -295h172v-142h-201l-80 -403h-155l80 403h-273l-80 -403h-155l80 403h-172zM383 545h272l58 295h-273z" />
<glyph unicode="$" d="M39 436h221q-2 -128 53.5 -200t159.5 -78v458q-204 46 -302.5 140t-98.5 245q0 163 110.5 269.5t290.5 115.5v187h109v-187q182 -14 285 -119t100 -274h-215q-1 101 -45.5 157.5t-124.5 61.5v-411q227 -52 325.5 -147t98.5 -261q0 -109 -47.5 -198.5t-137.5 -149.5 q-51 -34 -104.5 -50t-134.5 -20v-223h-109v223q-198 3 -317 130t-117 331zM276 1028q0 -92 66 -145q42 -33 131 -58v392q-87 -7 -142 -60.5t-55 -128.5zM582 156q101 7 157 63t56 148q0 88 -48 138t-165 87v-436z" />
<glyph unicode="%" horiz-adv-x="1912" d="M203 989q0 180 83 279.5t232 99.5q152 0 232.5 -96.5t80.5 -280.5q0 -174 -83 -268t-236 -94q-151 0 -230 92.5t-79 267.5zM375 989q0 -118 35.5 -174.5t109.5 -56.5q139 0 139 235q0 119 -36 181.5t-105 62.5t-106 -63.5t-37 -184.5zM475 -43l795 1425h164l-789 -1425 h-170zM1079 338q0 175 83.5 275t230.5 100q315 0 315 -379q0 -172 -82 -266.5t-233 -94.5q-154 0 -234 93t-80 272zM1251 340q0 -121 35 -179.5t109 -58.5q69 0 105 58.5t36 171.5q0 252 -141 252q-69 0 -106.5 -63.5t-37.5 -180.5z" />
<glyph unicode="&#x26;" horiz-adv-x="1239" d="M49 367q0 184 152 305q84 68 157 102q-72 87 -103.5 157.5t-31.5 141.5q0 133 95 219t243 86q145 0 237.5 -85.5t92.5 -219.5q0 -107 -62 -196t-180 -152l209 -258q37 76 47 186h193q-7 -93 -38.5 -187.5t-72.5 -150.5l268 -315h-268l-127 154q-12 -17 -41 -45t-57 -48 q-122 -90 -285 -90q-191 0 -309.5 109.5t-118.5 286.5zM264 373q0 -91 65.5 -155t157.5 -64q73 0 133 34.5t123 112.5l-272 332q-111 -63 -159 -123.5t-48 -136.5zM420 1081q0 -44 27.5 -94.5t93.5 -128.5q83 49 121 100t38 113q0 63 -39.5 104.5t-99.5 41.5t-100.5 -39 t-40.5 -97z" />
<glyph unicode="'" horiz-adv-x="532" d="M135 1366h264l-43 -547h-180z" />
<glyph unicode="(" horiz-adv-x="532" d="M33 487q0 289 100 549q32 83 82 177t92 153h176q-120 -210 -175.5 -421t-55.5 -451q0 -455 233 -861h-178q-88 152 -118.5 211t-61.5 138q-94 248 -94 505z" />
<glyph unicode=")" horiz-adv-x="532" d="M47 1366h178q89 -151 120 -210.5t61 -137.5q94 -260 94 -506q0 -286 -101 -549q-32 -83 -82 -177t-92 -153h-176q120 210 176 421.5t56 451.5q0 452 -234 860z" />
<glyph unicode="*" horiz-adv-x="706" d="M35 1098l41 121l213 -80l-2 227h133l-4 -227l213 80l45 -121l-217 -74l133 -180l-103 -76l-135 188l-131 -188l-106 76l133 180z" />
<glyph unicode="+" horiz-adv-x="1146" d="M117 590v158h379v372h157v-372h379v-158h-379v-371h-157v371h-379z" />
<glyph unicode="," horiz-adv-x="532" d="M119 119q0 59 39.5 98t97.5 39q68 0 109 -54.5t41 -144.5q0 -144 -78 -235q-33 -38 -75 -59t-106 -33v112q57 7 95 49t41 99q-12 -4 -25 -4h-6q-55 0 -94 39.5t-39 93.5z" />
<glyph unicode="-" horiz-adv-x="743" d="M127 412v198h491v-198h-491z" />
<glyph unicode="." horiz-adv-x="532" d="M133 123q0 54 39.5 93.5t93.5 39.5q55 0 93 -40t38 -99q0 -54 -39 -92.5t-94 -38.5q-54 0 -92.5 40t-38.5 97z" />
<glyph unicode="/" horiz-adv-x="673" d="M-164 -367l668 1733h190l-665 -1733h-193z" />
<glyph unicode="0" d="M68 678q0 350 118.5 529t348.5 179q460 0 460 -712q0 -343 -117 -521t-341 -178q-232 0 -350.5 177.5t-118.5 525.5zM289 664q0 -265 58.5 -385.5t187.5 -120.5q127 0 183 121t56 395q0 283 -56.5 406.5t-185.5 123.5q-132 0 -187.5 -123.5t-55.5 -416.5z" />
<glyph unicode="1" d="M180 956v168q178 0 272.5 65t120.5 206h175v-1395h-232v956h-96h-96h-99h-45z" />
<glyph unicode="2" d="M59 0q7 194 92 319.5t310 276.5q192 135 233 186q64 80 64 187q0 109 -59 172t-160 63q-119 0 -173.5 -78t-60.5 -258h-211q-1 249 116.5 383.5t334.5 134.5q195 0 314.5 -113t119.5 -300q0 -176 -117 -305q-37 -42 -90.5 -84t-161.5 -113q-244 -160 -291 -281 q30 1 90.5 3t82.5 2h485v-195h-918z" />
<glyph unicode="3" d="M49 424v29h211q9 -295 260 -295q113 0 179.5 67.5t66.5 182.5q0 110 -71 170.5t-201 60.5q-41 0 -70 -4v170h22q90 1 128.5 9.5t72.5 33.5q74 55 74 156q0 90 -56 144t-149 54q-106 0 -164.5 -69t-62.5 -201h-207q6 212 122 333t314 121q186 0 301 -102t115 -266 q0 -100 -51.5 -176t-137.5 -105q114 -29 178 -113.5t64 -207.5q0 -195 -132 -318t-341 -123t-337 124t-128 325z" />
<glyph unicode="4" d="M47 328v215l574 852h206v-885h170v-182h-170v-328h-209l-2 328h-569zM225 508q92 2 137 2h259v330q0 161 4 280z" />
<glyph unicode="5" d="M47 391h217q9 -104 75 -166.5t169 -62.5q120 0 186 77t66 218q0 139 -68 217t-190 78q-74 0 -127 -31t-96 -98l-193 6l129 737h692v-188h-534l-37 -215q-13 -71 -31 -148q50 56 113 81.5t153 25.5q181 0 295.5 -125.5t114.5 -325.5q0 -219 -134 -356.5t-347 -137.5 q-197 0 -321.5 113.5t-131.5 300.5z" />
<glyph unicode="6" d="M74 662q0 341 132 532.5t365 191.5q171 0 278 -96.5t126 -267.5h-213q-30 190 -203 190q-165 0 -231 -213q-28 -105 -33 -163q-1 -2 -1.5 -9.5t-1.5 -24t-3 -32.5q0 -19 -2 -33q110 168 305 168q186 0 300 -124t114 -326q0 -209 -127.5 -344.5t-325.5 -135.5 q-230 0 -354.5 178.5t-124.5 508.5zM315 451q0 -132 65 -212.5t171 -80.5t169.5 78.5t63.5 209.5q0 127 -64 206t-167 79q-110 0 -174 -75t-64 -205z" />
<glyph unicode="7" d="M90 1163v203h911v-184q-205 -213 -341 -542t-148 -640h-236q12 291 155.5 618t354.5 549q-135 -4 -190 -4h-506z" />
<glyph unicode="8" d="M61 393q0 127 64 217t180 127q-90 32 -140 107.5t-50 177.5q0 161 118 262.5t304 101.5q182 0 296.5 -100t114.5 -258q0 -103 -49 -178t-141 -113q65 -21 114 -53q132 -94 132 -278q0 -194 -130 -312.5t-344 -118.5q-210 0 -339.5 116t-129.5 302zM283 403 q0 -118 68.5 -185.5t187.5 -67.5q115 0 179 65t64 182q0 114 -67.5 183t-179.5 69q-114 0 -183 -68t-69 -178zM319 1012q0 -91 59 -147t154 -56q97 0 154 54.5t57 148.5q0 91 -56 145.5t-150 54.5q-100 0 -159 -54t-59 -146z" />
<glyph unicode="9" d="M61 907q0 209 128.5 344t326.5 135q116 0 210 -50.5t157 -147.5q106 -162 106 -471q0 -272 -88 -465q-66 -142 -164.5 -209.5t-240.5 -67.5q-169 0 -284 103.5t-124 263.5h209q35 -192 211 -192q96 0 155.5 70.5t88.5 219.5q17 88 20 191q-66 -98 -131.5 -136t-167.5 -38 q-180 0 -296 126t-116 324zM283 911q0 -129 62.5 -204.5t168.5 -75.5q103 0 167 77t64 203q0 130 -64 211.5t-167 81.5q-106 0 -168.5 -79t-62.5 -214z" />
<glyph unicode=":" horiz-adv-x="532" d="M152 123q0 54 39.5 93.5t93.5 39.5q55 0 93 -40t38 -99q0 -54 -39 -92.5t-94 -38.5q-54 0 -92.5 40t-38.5 97zM152 840q0 54 39.5 93.5t93.5 39.5q55 0 93 -40t38 -99q0 -54 -39 -93t-94 -39q-54 0 -92.5 40.5t-38.5 97.5z" />
<glyph unicode=";" horiz-adv-x="532" d="M141 119q0 58 39.5 97.5t98.5 39.5q68 0 108.5 -54t40.5 -145q0 -144 -78 -235q-33 -38 -74.5 -59t-105.5 -33v112q57 7 94.5 49t40.5 99q-12 -4 -24 -4h-7q-55 0 -94 39.5t-39 93.5zM152 840q0 54 39.5 93.5t93.5 39.5q55 0 93 -40t38 -99q0 -54 -39 -93t-94 -39 q-54 0 -92.5 40.5t-38.5 97.5z" />
<glyph unicode="&#x3c;" horiz-adv-x="1146" d="M129 588v200l887 445v-238l-635 -307l633 -309l2 -236z" />
<glyph unicode="=" horiz-adv-x="1146" d="M117 438v154h915v-154h-915zM117 745v154h915v-154h-915z" />
<glyph unicode="&#x3e;" horiz-adv-x="1146" d="M131 143v238l635 307l-633 309l-2 236l887 -445v-200z" />
<glyph unicode="?" d="M102 932q8 175 78 280q60 88 156.5 134.5t218.5 46.5q192 0 309 -104.5t117 -276.5q0 -107 -45.5 -182.5t-175.5 -184.5q-69 -54 -94 -112t-25 -162h-205q2 121 16 180t52.5 110t136.5 138q60 57 84.5 104.5t24.5 108.5q0 89 -53.5 141.5t-143.5 52.5q-110 0 -166.5 -67 t-64.5 -207h-220zM406 111q0 54 39.5 93.5t93.5 39.5q55 0 93 -40.5t38 -99.5q0 -54 -39 -92.5t-94 -38.5q-54 0 -92.5 40.5t-38.5 97.5z" />
<glyph unicode="@" horiz-adv-x="1748" d="M76 588q0 217 107 401.5t291 292t400 107.5q170 0 323 -68.5t269 -196.5q96 -106 151.5 -246t55.5 -276q0 -98 -31.5 -190t-85.5 -154q-102 -111 -262 -111q-102 0 -156.5 30t-76.5 99q-63 -74 -130.5 -104.5t-168.5 -30.5q-141 0 -220 65.5t-79 182.5q0 64 25 114.5 t71 78.5q51 32 117.5 48.5t210.5 31.5q89 11 122 32t33 68q0 127 -168 127q-86 0 -130.5 -35t-55.5 -109h-194q7 73 28.5 117t67.5 82q101 84 297 84q170 0 258 -64t88 -188v-422q0 -39 16.5 -56t53.5 -17q91 0 149.5 86t58.5 219q0 176 -85 325t-231 235.5t-318 86.5 q-130 0 -248 -51t-204 -137.5t-136.5 -206t-50.5 -250.5q0 -175 86 -324t233.5 -236t319.5 -87q178 0 335 65l45 -131q-104 -46 -193 -65t-196 -19q-160 0 -306.5 63.5t-253 171t-169.5 254.5t-63 308zM655 401q0 -57 41.5 -87.5t116.5 -30.5q117 0 172 60t55 187v54 q-29 -29 -94 -35q-167 -19 -229 -50.5t-62 -97.5z" />
<glyph unicode="A" horiz-adv-x="1275" d="M-16 0l528 1366h256l524 -1366h-256l-131 362h-538l-136 -362h-247zM428 545h416l-113 305q-49 135 -94 287q-25 -87 -96 -283z" />
<glyph unicode="B" horiz-adv-x="1345" d="M139 0v1366h588q113 0 181 -10.5t120 -36.5q83 -43 131.5 -122.5t48.5 -174.5q0 -97 -51.5 -173.5t-142.5 -113.5q256 -73 256 -332q0 -110 -51.5 -201t-143.5 -145q-105 -57 -276 -57h-660zM379 195h336q163 0 223 36q92 55 92 179q0 70 -33 121t-90 73q-56 21 -215 21 h-313v-430zM379 797h303q122 0 174 18q52 17 82.5 62.5t30.5 107.5q0 63 -28 107t-79 63q-43 16 -172 16h-311v-374z" />
<glyph unicode="C" horiz-adv-x="1380" d="M84 684q0 316 181 515.5t468 199.5q275 0 443 -180q117 -129 129 -287h-238q-25 124 -114.5 194t-223.5 70q-218 0 -323 -182q-82 -139 -82 -330q0 -236 108.5 -375t294.5 -139q150 0 239 90t111 262h238q-12 -205 -135 -356q-167 -199 -459 -199q-287 0 -462 196.5 t-175 520.5z" />
<glyph unicode="D" horiz-adv-x="1380" d="M135 0v1366h520q154 0 259 -32.5t188 -106.5q98 -88 150.5 -222t52.5 -298q0 -359 -193 -555q-85 -84 -184 -118t-258 -34h-535zM375 205h262q124 0 191 21.5t118 78.5q119 131 119 389q0 229 -108.5 348t-315.5 119h-266v-956z" />
<glyph unicode="E" horiz-adv-x="1204" d="M133 0v1366h985v-205h-745v-360h690v-195h-690v-401h757v-205h-997z" />
<glyph unicode="F" horiz-adv-x="1134" d="M143 0v1366h944v-205h-704v-370h618v-195h-618v-596h-240z" />
<glyph unicode="G" horiz-adv-x="1452" d="M74 672q0 324 185 525.5t484 201.5q235 0 396.5 -130t181.5 -337h-234q-22 123 -115 193.5t-233 70.5q-198 0 -312 -139.5t-114 -382.5q0 -237 115.5 -371.5t319.5 -134.5q227 0 327 180q40 75 45 197h-368v182h585v-727h-153l-37 162q-160 -195 -424 -195 q-191 0 -339 88.5t-229 249t-81 367.5z" />
<glyph unicode="H" horiz-adv-x="1380" d="M137 0v1366h240v-547h624v547h240v-1366h-240v614h-624v-614h-240z" />
<glyph unicode="I" horiz-adv-x="532" d="M145 0v1366h240v-1366h-240z" />
<glyph unicode="J" horiz-adv-x="1026" d="M37 428q0 30 2 53h225v-41q0 -128 25 -182q42 -94 174 -94q111 0 155 72q33 51 33 202v928h240v-922q0 -121 -15 -188.5t-53 -126.5q-110 -162 -354 -162q-138 0 -235.5 49.5t-147.5 143.5q-49 95 -49 268z" />
<glyph unicode="K" horiz-adv-x="1310" d="M143 0v1366h240v-631q48 59 100 111l504 520h303l-547 -545l582 -821h-297l-448 653l-197 -192v-461h-240z" />
<glyph unicode="L" horiz-adv-x="1097" d="M127 0v1366h240v-1161h696v-205h-936z" />
<glyph unicode="M" horiz-adv-x="1699" d="M139 0v1366h336l262 -713q85 -268 117 -389q66 220 119 389l250 713h336v-1366h-230l2 510q2 378 21 651q-22 -82 -40.5 -140.5t-90.5 -270.5l-271 -750h-194l-281 737q-94 276 -127 414q17 -376 19 -621l2 -530h-230z" />
<glyph unicode="N" horiz-adv-x="1380" d="M135 0v1366h248l448 -711q150 -238 201 -344q-4 99 -12 428v627h227v-1366h-246l-444 698q-116 187 -144.5 236.5t-62.5 120.5q10 -126 12 -420v-635h-227z" />
<glyph unicode="O" horiz-adv-x="1454" d="M72 682q0 324 182 520.5t483 196.5q140 0 260 -53t204.5 -146.5t132.5 -227t48 -288.5q0 -211 -81.5 -374t-231 -253t-342.5 -90q-293 0 -474 197.5t-181 517.5zM311 686q0 -236 114 -376t306 -140q187 0 299.5 140.5t112.5 373.5q0 230 -113 371t-297 141 q-195 0 -308.5 -137.5t-113.5 -372.5z" />
<glyph unicode="P" horiz-adv-x="1275" d="M143 0v1366h555q133 0 208.5 -16.5t137.5 -59.5q168 -112 168 -340q0 -223 -153 -340q-61 -47 -135 -66.5t-193 -19.5h-348v-524h-240zM383 719h315q135 0 195 45q80 61 80 180q0 124 -92 182q-34 22 -79.5 30.5t-125.5 8.5h-293v-446z" />
<glyph unicode="Q" horiz-adv-x="1454" d="M78 684q0 208 83 371t232.5 253.5t339.5 90.5q287 0 470 -199t183 -512q0 -165 -51 -303t-143 -223l180 -154l-117 -131l-202 174q-133 -84 -326 -84q-190 0 -338 90.5t-229.5 253.5t-81.5 373zM317 686q0 -238 113 -377t305 -139q77 0 154 29l-141 120l114 132l162 -144 q69 91 96 173.5t27 207.5q0 232 -113 370t-303 138q-189 0 -301.5 -139t-112.5 -371z" />
<glyph unicode="R" horiz-adv-x="1345" d="M145 0v1366h648q102 0 166.5 -13.5t119.5 -47.5q83 -49 127.5 -131.5t44.5 -186.5q0 -125 -58 -212.5t-167 -125.5q89 -15 148 -98q32 -57 42 -106.5t25 -231.5q14 -151 47 -195l15 -18h-259q-20 37 -27 80.5t-16 193.5q-15 173 -75 231t-224 58h-317v-563h-240zM385 741 h315q90 0 140.5 9t85.5 32q86 58 86 176q0 66 -29.5 115.5t-83.5 71.5q-58 22 -168 22h-346v-426z" />
<glyph unicode="S" horiz-adv-x="1239" d="M72 455h235q4 -146 94 -220.5t261 -74.5q136 0 214 58t78 159q0 53 -25 88.5t-85 64.5q-32 17 -65.5 27.5t-143.5 36.5q-278 70 -373 129q-141 90 -141 274q0 183 137.5 291.5t368.5 108.5q236 0 369 -113t141 -319h-230q-12 124 -85 183.5t-210 59.5 q-123 0 -192.5 -50.5t-69.5 -141.5q0 -82 64 -121q38 -22 85.5 -36.5t196.5 -49.5q133 -31 205 -56t125 -59q164 -111 164 -297q0 -198 -146 -313t-397 -115q-270 0 -421 128t-154 358z" />
<glyph unicode="T" horiz-adv-x="1134" d="M10 1161v205h1112v-205h-436v-1161h-240v1161h-436z" />
<glyph unicode="U" horiz-adv-x="1380" d="M127 569v797h240v-809q0 -109 9.5 -164t37.5 -102q72 -125 282 -125q200 0 267 117q26 46 36.5 107t10.5 167v809h239v-801q0 -161 -21 -248t-79 -163q-141 -187 -457 -187q-175 0 -292.5 52t-188.5 159q-46 69 -65 156.5t-19 234.5z" />
<glyph unicode="V" horiz-adv-x="1167" d="M-12 1366h252l229 -707q90 -296 117 -440q9 52 45.5 185.5t73.5 252.5l229 709h248l-465 -1366h-268z" />
<glyph unicode="W" horiz-adv-x="1804" d="M10 1366h246l170 -707q40 -156 80 -405q29 184 86 408l190 704h244l188 -709q34 -129 84 -403q36 206 82 408l172 704h242l-371 -1366h-245l-193 711q-28 109 -84 393q-37 -183 -88 -385l-190 -719h-250z" />
<glyph unicode="X" horiz-adv-x="1239" d="M-8 0l487 709l-452 657h286l203 -313q91 -152 107 -189q34 70 110 183l211 319h270l-452 -657l487 -709h-295l-243 373q-68 108 -93 159q-18 -32 -98 -157l-250 -375h-278z" />
<glyph unicode="Y" horiz-adv-x="1239" d="M-14 1366h276l264 -436q61 -103 99 -187q45 102 98 191l260 432h268l-512 -823v-543h-239v545z" />
<glyph unicode="Z" horiz-adv-x="1204" d="M43 0v199l707 858q22 25 100 108q-98 -4 -244 -4h-504v205h1041v-188l-692 -846q-16 -15 -56 -62q-40 -46 -63 -69q94 4 106 4h156h571v-205h-1122z" />
<glyph unicode="[" horiz-adv-x="565" d="M109 -367v1733h428v-162h-230v-1409h230v-162h-428z" />
<glyph unicode="\" horiz-adv-x="673" d="M-23 1366h191l668 -1733h-193z" />
<glyph unicode="]" horiz-adv-x="565" d="M29 -205h229v1409h-229v162h428v-1733h-428v162z" />
<glyph unicode="^" horiz-adv-x="1146" d="M109 741l331 629h267l331 -629h-215l-250 469l-249 -469h-215z" />
<glyph unicode="_" horiz-adv-x="956" d="M-35 -131h1024v-145h-1024v145z" />
<glyph unicode="`" horiz-adv-x="460" d="M-39 1419h238l137 -289h-143z" />
<glyph unicode="a" d="M39 268q0 75 28 135.5t78 90.5q53 33 142.5 54t257.5 40q96 10 134 37t38 84q0 66 -51.5 100.5t-149.5 34.5q-105 0 -157.5 -36.5t-65.5 -119.5h-217q11 90 35 141t77 93q114 94 330 94q183 0 293.5 -77t110.5 -204v-520q0 -42 12 -56t49 -14q18 0 43 5v-152 q-98 -25 -143 -25q-135 0 -162 121q-142 -121 -342 -121q-155 0 -247.5 80t-92.5 215zM258 285q0 -66 50 -103t141 -37q110 0 181.5 51.5t71.5 131.5v168q-37 -23 -71 -31.5t-144 -20.5q-123 -15 -176 -52t-53 -107z" />
<glyph unicode="b" horiz-adv-x="1167" d="M119 0v1366h219v-506q117 156 324 156q198 0 318 -141t120 -373q0 -238 -124 -383.5t-327 -145.5q-224 0 -325 162v-135h-205zM332 496q0 -161 74 -255t202 -94q122 0 196.5 97t74.5 256q0 155 -73.5 248.5t-195.5 93.5q-131 0 -204.5 -91.5t-73.5 -254.5z" />
<glyph unicode="c" d="M70 485q0 242 133.5 386.5t357.5 144.5q190 0 307 -95.5t136 -265.5h-218q-19 91 -76 139t-147 48q-126 0 -199 -93.5t-73 -254.5q0 -163 70 -255t194 -92q100 0 162.5 58.5t77.5 165.5h215q-25 -187 -145 -292.5t-308 -105.5q-223 0 -355 138.5t-132 373.5z" />
<glyph unicode="d" horiz-adv-x="1167" d="M68 498q0 238 121 378t327 140q104 0 184.5 -40.5t126.5 -115.5v506h220v-1366h-205v135q-101 -162 -318 -162q-211 0 -333.5 141.5t-122.5 383.5zM289 498q0 -162 73.5 -256.5t200.5 -94.5t200 93t73 254t-73.5 254.5t-199.5 93.5q-129 0 -201.5 -90.5t-72.5 -253.5z " />
<glyph unicode="e" d="M59 483q0 232 135.5 382.5t344.5 150.5q141 0 251.5 -70.5t165.5 -197.5q52 -116 52 -287v-19h-732q6 -148 77 -227.5t198 -79.5q89 0 145 41.5t90 132.5h209q-38 -158 -157 -247t-291 -89q-220 0 -354 140t-134 370zM281 588h510q-11 123 -79 194.5t-175 71.5 t-173 -68.5t-83 -197.5z" />
<glyph unicode="f" horiz-adv-x="602" d="M10 829v160h164v60q0 97 11 145.5t42 85.5q75 94 252 94q43 0 117 -6v-170q-56 6 -88 6q-68 0 -93.5 -26t-25.5 -93v-96h189v-160h-185v-829h-219v829h-164z" />
<glyph unicode="g" horiz-adv-x="1134" d="M63 504q0 230 122 371t321 141q104 0 177.5 -40t129.5 -126v139h205v-874q0 -121 -14.5 -191t-51.5 -129q-114 -182 -411 -182q-406 0 -443 303h219q29 -147 230 -147q138 0 198 67.5t62 222.5l2 117q-54 -86 -130.5 -126t-184.5 -40q-197 0 -314 134t-117 360zM285 518 q0 -157 68.5 -245.5t189.5 -88.5q122 0 193 90t71 244q0 149 -69.5 236.5t-188.5 87.5q-123 0 -193.5 -86.5t-70.5 -237.5z" />
<glyph unicode="h" horiz-adv-x="1097" d="M117 0v1366h219v-397q0 -29 -2 -56v-65q60 88 135 128t178 40q100 0 177 -38t118 -108q45 -75 45 -237v-633h-219v600q0 117 -31 164q-48 70 -162 70q-72 0 -126.5 -34.5t-83.5 -97.5q-17 -37 -23 -82.5t-6 -146.5v-473h-219z" />
<glyph unicode="i" horiz-adv-x="460" d="M98 1251q0 54 39.5 93.5t93.5 39.5q55 0 93 -40t38 -99q0 -54 -39 -92.5t-94 -38.5q-54 0 -92.5 40t-38.5 97zM121 0v989h219v-989h-219z" />
<glyph unicode="j" horiz-adv-x="460" d="M-45 -197q25 -2 51 -2q81 0 98 35q11 19 14 54.5t3 136.5v962h219v-1003q0 -129 -11 -185t-46 -98q-70 -82 -236 -82q-33 0 -92 6v176zM98 1251q0 54 39.5 93.5t93.5 39.5q55 0 93 -40t38 -99q0 -54 -39 -92.5t-94 -38.5q-54 0 -92.5 40t-38.5 97z" />
<glyph unicode="k" horiz-adv-x="1026" d="M117 0v1366h219v-631q0 -34 -2 -149q23 27 44.5 51t22.5 25l330 327h268l-378 -362l413 -627h-266l-301 479l-131 -123v-356h-219z" />
<glyph unicode="l" horiz-adv-x="460" d="M121 0v1366h219v-1366h-219z" />
<glyph unicode="m" horiz-adv-x="1662" d="M115 0v989h204v-139q69 89 141.5 127.5t172.5 38.5q199 0 276 -168q65 88 141 128t179 40q85 0 157 -33.5t113 -91.5q53 -79 53 -217v-674h-219v606q0 107 -20 146q-40 82 -154 82q-67 0 -118 -32t-76 -89q-23 -53 -23 -183v-530h-219v618q0 116 -38 166t-126 50 q-66 0 -119.5 -33.5t-79.5 -91.5q-26 -56 -26 -179v-530h-219z" />
<glyph unicode="n" horiz-adv-x="1097" d="M117 0v989h205v-145q68 91 145 131.5t184 40.5q94 0 171.5 -37.5t115.5 -101.5q28 -44 38.5 -98t10.5 -148v-631h-219v575q0 112 -18 162q-17 45 -62.5 71t-107.5 26q-72 0 -128.5 -34t-84.5 -93q-31 -66 -31 -211v-496h-219z" />
<glyph unicode="o" horiz-adv-x="1134" d="M68 494q0 239 137.5 380.5t369.5 141.5q224 0 358 -142t134 -380q0 -239 -134.5 -380t-363.5 -141q-228 0 -364.5 142t-136.5 379zM289 494q0 -163 74.5 -255t207.5 -92q129 0 202 93t73 256q0 159 -74.5 252.5t-200.5 93.5q-132 0 -207 -92.5t-75 -255.5z" />
<glyph unicode="p" horiz-adv-x="1167" d="M119 -367v1356h205v-131q60 82 138 120t187 38q206 0 329.5 -144t123.5 -383q0 -233 -120.5 -374.5t-319.5 -141.5q-213 0 -324 156v-496h-219zM330 496q0 -163 74 -256t204 -93q126 0 199.5 92t73.5 250q0 161 -74 257t-199 96q-131 0 -204.5 -91.5t-73.5 -254.5z" />
<glyph unicode="q" horiz-adv-x="1167" d="M68 489q0 243 121.5 385t330.5 142q114 0 192 -38t130 -120v131h205v-1356h-220v500q-112 -160 -321 -160q-201 0 -319.5 140t-118.5 376zM289 487q0 -158 73 -249t199 -91q128 0 201.5 94.5t73.5 258.5q0 158 -73.5 250t-199.5 92q-129 0 -201.5 -94.5t-72.5 -260.5z " />
<glyph unicode="r" horiz-adv-x="673" d="M113 0v989h204v-196q60 115 140 167t196 52q21 0 39 -2v-211q-56 6 -78 6q-115 0 -192 -74q-52 -51 -71 -121t-19 -213v-397h-219z" />
<glyph unicode="s" horiz-adv-x="993" d="M59 317h209q10 -94 68.5 -138t171.5 -44q97 0 155 39t58 105q0 55 -46.5 84t-189.5 63q-151 34 -196.5 47.5t-87.5 38.5q-57 32 -88 87t-31 124q0 137 107 215t296 78q236 0 344 -123q33 -36 48.5 -78.5t21.5 -112.5h-209q-10 81 -60.5 117.5t-152.5 36.5 q-84 0 -131 -30.5t-47 -84.5q0 -39 19 -60.5t70.5 -39.5t162.5 -41q203 -43 287 -102q46 -32 72 -85t26 -116q0 -149 -116.5 -236.5t-315.5 -87.5q-211 0 -323.5 87t-121.5 257z" />
<glyph unicode="t" horiz-adv-x="636" d="M8 829v160h166v297h219v-297h199v-160h-199v-520q0 -94 21 -119.5t96 -25.5q36 0 82 6v-172q-81 -8 -148 -8q-95 0 -150.5 21t-86.5 67q-22 35 -27.5 84t-5.5 196v471h-166z" />
<glyph unicode="u" horiz-adv-x="1097" d="M109 354v635h219v-565q0 -89 5.5 -129t22.5 -66q48 -73 160 -73q69 0 124 33t87 94q33 59 33 221v485h219v-989h-205v147q-67 -92 -145 -133t-183 -41q-85 0 -155.5 29.5t-114.5 83.5q-36 44 -51.5 105.5t-15.5 162.5z" />
<glyph unicode="v" horiz-adv-x="993" d="M16 989h238l154 -446q70 -204 98 -338q28 128 98 340l148 444h225l-354 -989h-244z" />
<glyph unicode="w" horiz-adv-x="1486" d="M20 989h234l115 -418q35 -128 86 -348q49 249 77 359l103 407h219l123 -467q31 -126 63 -293q41 190 68 291l135 469h223l-311 -989h-223l-129 485q-27 101 -60 269q-21 -102 -59 -267l-125 -487h-225z" />
<glyph unicode="x" horiz-adv-x="1026" d="M6 0l373 522l-342 467h264l131 -186q22 -31 78 -123q32 55 45 68q17 28 41 59l129 182h254l-340 -459l383 -530h-266l-181 264q-21 33 -65 107q-50 -81 -72 -113l-174 -258h-258z" />
<glyph unicode="y" horiz-adv-x="993" d="M6 989h240l192 -532q37 -110 70 -230q28 100 74 244l178 518h227l-366 -971q-53 -142 -80 -199t-60 -98q-79 -100 -229 -100q-61 0 -150 12v183q99 -13 113 -13q77 0 113 74q45 92 55 156z" />
<glyph unicode="z" horiz-adv-x="956" d="M47 0v166l457 543q52 58 112 108q-47 -2 -98 -2h-432v174h805v-151l-469 -559q-32 -36 -103 -107q94 2 132 2h471v-174h-875z" />
<glyph unicode="{" horiz-adv-x="565" d="M-8 420v162q63 19 89.5 62t27.5 132v309q2 116 37.5 176.5t117 84.5t234.5 20h6v-162l-25 -2q-103 -4 -138.5 -51t-33.5 -176v-236q-1 -102 -26 -153.5t-88 -85.5q63 -35 88.5 -89.5t25.5 -154.5v-238q0 -130 33.5 -173.5t138.5 -49.5h25v-162h-6q-158 0 -211 11t-101 51 q-41 37 -59 92t-18 147v287q0 92 -25.5 135.5t-91.5 63.5z" />
<glyph unicode="|" horiz-adv-x="423" d="M92 -342v1708h240v-1708h-240z" />
<glyph unicode="}" horiz-adv-x="565" d="M61 -205l27 2q103 4 138.5 51.5t33.5 176.5v235q1 102 26.5 154t88.5 86q-63 35 -89 89.5t-26 153.5v238q0 130 -34 173.5t-140 49.5h-25v162h7q160 0 212.5 -10.5t100.5 -50.5q42 -39 60 -94t18 -146v-287q0 -92 24.5 -135t89.5 -63v-162q-63 -19 -87.5 -62t-26.5 -133 v-309q0 -158 -80 -223q-51 -37 -102.5 -47t-208.5 -11h-7v162z" />
<glyph unicode="~" horiz-adv-x="1146" d="M82 1255q108 256 293 256q72 0 233 -73q86 -40 115 -50t57 -10q50 0 89 32.5t79 107.5l119 -99q-57 -133 -130.5 -192.5t-182.5 -59.5q-37 0 -77 13.5t-155 66.5q-104 49 -157 49q-46 0 -84.5 -32t-79.5 -105z" />
<glyph unicode="&#xa1;" horiz-adv-x="532" d="M115 858q0 54 39.5 93.5t93.5 39.5q55 0 93 -40t38 -99q0 -54 -39 -92.5t-94 -38.5q-54 0 -92.5 40t-38.5 97zM125 14l70 598h112l60 -596v-391h-242v389z" />
<glyph unicode="&#xa2;" d="M68 692q0 220 108.5 352.5t317.5 169.5v168h108v-168q166 -5 279 -105.5t123 -254.5h-213q-9 76 -61.5 130t-127.5 65v-701q75 6 131 69.5t66 155.5h207q-13 -166 -128 -277.5t-276 -117.5v-205h-108v205q-197 19 -311.5 157t-114.5 357zM283 700q0 -146 55 -237.5 t156 -114.5v696q-100 -26 -155.5 -116t-55.5 -228z" />
<glyph unicode="&#xa3;" d="M51 621v120h119q-86 118 -86 260q0 172 127.5 278.5t331.5 106.5q219 0 341.5 -118.5t123.5 -331.5h-217q-4 130 -67.5 197t-180.5 67q-99 0 -163.5 -57t-64.5 -144q0 -77 52 -178q38 -78 39 -80h280v-120h-231q26 -79 26 -132q0 -56 -15 -98.5t-54 -99.5 q-22 -29 -37 -44.5t-84 -78.5q62 28 103.5 38.5t92.5 10.5q68 0 144 -24q67 -23 89.5 -28t51.5 -5q49 0 97.5 21.5t82.5 58.5l99 -166q-49 -51 -125.5 -80t-161.5 -29q-54 0 -86.5 7t-136.5 40q-110 35 -179 35q-52 0 -95.5 -17t-106.5 -61l-103 158q109 82 159 160.5 t50 169.5q0 75 -41 164h-174z" />
<glyph unicode="&#xa4;" d="M-76 1178l125 125l203 -205q92 54 149 72t131 18t129 -17.5t146 -70.5l203 200l125 -124l-199 -197q92 -142 92 -285q0 -71 -18.5 -128.5t-69.5 -145.5l199 -199l-123 -125l-199 199q-134 -92 -274 -92q-133 0 -295 92l-199 -197l-123 123l197 199q-88 130 -88 278 q0 71 20 132.5t72 146.5zM244 698q0 -120 83.5 -204t202.5 -84q120 0 204.5 84t84.5 204q0 119 -83.5 204t-200.5 85q-122 0 -206.5 -84t-84.5 -205z" />
<glyph unicode="&#xa5;" d="M39 1366h242l122 -262q83 -186 132 -336q53 176 124 332l125 266h240l-213 -455h190v-120h-247l-101 -211h283v-121h-299v-459h-211v459h-297v121h279l-97 211h-245v120h188z" />
<glyph unicode="&#xa6;" horiz-adv-x="423" d="M92 313h240v-655h-240v655zM92 662v704h240v-704h-240z" />
<glyph unicode="&#xa7;" d="M47 604q0 98 54.5 172.5t146.5 102.5q-44 47 -64 93t-20 103q0 138 105.5 226t271.5 88q172 0 274.5 -96t102.5 -257h-203q-4 89 -50 136t-126 47q-72 0 -117 -38.5t-45 -99.5q0 -55 36.5 -92t159.5 -104q238 -131 306 -180q139 -101 139 -246q0 -95 -52.5 -170 t-146.5 -113q58 -52 81.5 -101t23.5 -120q0 -141 -108 -231.5t-277 -90.5q-186 0 -292.5 97.5t-111.5 269.5h205q11 -100 59.5 -146.5t143.5 -46.5q74 0 121 40t47 104q0 43 -24 75.5t-85 73.5q-43 31 -83.5 54t-182.5 98q-164 88 -226.5 164t-62.5 188zM240 623 q0 -34 8.5 -55.5t45 -52t91.5 -63t166 -92.5q46 -24 78 -45q41 -26 71 -41q52 17 86.5 60.5t34.5 91.5q0 35 -11 59t-56 59.5t-113 75t-203 111.5q-16 9 -78 43q-55 -17 -87.5 -58.5t-32.5 -92.5z" />
<glyph unicode="&#xa8;" horiz-adv-x="460" d="M-92 1264q0 54 39.5 93.5t93.5 39.5q55 0 93 -40.5t38 -99.5q0 -54 -39 -92.5t-94 -38.5q-54 0 -92.5 40.5t-38.5 97.5zM291 1264q0 54 39.5 93.5t93.5 39.5q55 0 93 -40.5t38 -99.5q0 -54 -39 -92.5t-94 -38.5q-54 0 -92.5 40.5t-38.5 97.5z" />
<glyph unicode="&#xa9;" horiz-adv-x="1529" d="M51 682q0 197 96 362t262.5 260t364.5 95q141 0 271 -57.5t224.5 -154t151 -229t56.5 -276.5q0 -145 -56.5 -277t-152 -228t-227.5 -153t-277 -57q-144 0 -276 57t-227.5 153t-152.5 228t-57 277zM178 682q0 -162 79 -300t214 -218t293 -80q159 0 294 80t213.5 218 t78.5 300q0 121 -46.5 232t-124 191.5t-184.5 128.5t-223 48q-163 0 -300 -79.5t-215.5 -217.5t-78.5 -303zM377 682q0 182 111 296t288 114q146 0 244.5 -78t107.5 -201h-159q-15 71 -66 109.5t-129 38.5q-107 0 -170 -75.5t-63 -201.5q0 -129 62.5 -203.5t168.5 -74.5 q176 0 203 196h160q-7 -151 -107 -240.5t-260 -89.5q-177 0 -284 112.5t-107 297.5z" />
<glyph unicode="&#xaa;" horiz-adv-x="727" d="M59 600v82h609v-82h-609zM82 969q0 82 59 123q31 23 63.5 32t131.5 19q86 10 104.5 19.5t18.5 41.5q0 40 -26 58t-83 18q-59 0 -84.5 -20t-32.5 -74h-129q15 194 250 194q153 0 211 -71q27 -36 27 -105q0 -14 -2 -98q-2 -82 -2 -127q0 -49 3.5 -59.5t18.5 -10.5 q19 0 35 2v-94q-50 -14 -86 -14q-40 0 -61 13.5t-33 45.5q-75 -57 -191 -57q-87 0 -139.5 45t-52.5 119zM219 975q0 -34 25 -53t69 -19q43 0 79.5 14t51.5 37q13 21 13 74v51q-37 -14 -123 -24q-64 -7 -89.5 -25t-25.5 -55z" />
<glyph unicode="&#xab;" horiz-adv-x="884" d="M92 408v208l301 232v-195l-186 -139l186 -143v-201zM471 406v210l295 232v-197l-180 -139l180 -143v-197z" />
<glyph unicode="&#xac;" horiz-adv-x="1146" d="M129 373v209h887v-582h-232v373h-655z" />
<glyph unicode="&#xad;" horiz-adv-x="743" d="M127 412v198h491v-198h-491z" />
<glyph unicode="&#xae;" horiz-adv-x="1075" d="M104 977q0 184 126 310t309 126q185 0 309.5 -126.5t124.5 -313.5t-124.5 -314t-309.5 -127q-186 0 -310.5 127.5t-124.5 317.5zM211 973q0 -148 92.5 -244t235.5 -96q144 0 235.5 96.5t91.5 247.5q0 145 -93 240.5t-234 95.5t-234.5 -96.5t-93.5 -243.5zM354 731v486 h238q70 0 108.5 -36t38.5 -102q0 -44 -17.5 -71.5t-55.5 -44.5q41 -17 53 -44t16 -116q2 -41 21 -72h-127q-8 21 -13 76q-3 61 -14 78t-47 20h-84v-174h-117zM471 995h96q25 0 41.5 19.5t16.5 50.5q0 55 -62 55h-92v-125z" />
<glyph unicode="&#xaf;" horiz-adv-x="460" d="M-74 1208v127h609v-127h-609z" />
<glyph unicode="&#xb0;" horiz-adv-x="763" d="M68 1057q0 131 92 223t223 92t222 -93t91 -226q0 -128 -92 -220t-221 -92q-130 0 -222.5 92.5t-92.5 223.5zM180 1057q0 -85 59.5 -146t143.5 -61q82 0 141.5 60.5t59.5 142.5q0 89 -59.5 150t-145.5 61q-80 0 -139.5 -61.5t-59.5 -145.5z" />
<glyph unicode="&#xb1;" horiz-adv-x="1146" d="M117 0v158h915v-158h-915zM117 590v158h379v372h157v-372h379v-158h-379v-359h-157v359h-379z" />
<glyph unicode="&#xb2;" horiz-adv-x="688" d="M39 545q3 118 57 193t199 163q119 75 151.5 112t32.5 97t-35 94.5t-96 34.5q-73 0 -104.5 -43t-36.5 -147h-146q0 153 75 233t216 80q126 0 203.5 -68t77.5 -178q0 -104 -76 -180q-46 -46 -160 -115q-143 -88 -176 -149h25l71 2h314v-129h-592z" />
<glyph unicode="&#xb3;" horiz-adv-x="688" d="M35 821h145q3 -86 41.5 -126t116.5 -40q68 0 107.5 36.5t39.5 99.5q0 60 -42.5 92t-120.5 32q-29 0 -52 -2v111h21q86 0 125 26t39 83q0 50 -33 79t-88 29q-129 0 -135 -156h-146q4 132 79 204.5t204 72.5q120 0 194 -61t74 -158q0 -107 -100 -164q66 -22 100.5 -70 t34.5 -116q0 -116 -85 -188.5t-220 -72.5q-143 0 -221.5 76.5t-77.5 212.5z" />
<glyph unicode="&#xb4;" horiz-adv-x="460" d="M125 1130l137 289h238l-232 -289h-143z" />
<glyph unicode="&#xb5;" horiz-adv-x="1097" d="M121 -344v1327h203v-534q0 -91 10 -134.5t41 -81.5q70 -86 170 -86q104 0 167.5 86.5t63.5 227.5v522h203v-983h-203v162q-37 -95 -93.5 -140t-141.5 -45q-73 0 -123.5 32t-93.5 106v-459h-203z" />
<glyph unicode="&#xb6;" horiz-adv-x="1146" d="M92 1004q0 102 42.5 183.5t117.5 125.5q51 29 112.5 41t157.5 12h498v-129h-90v-1604h-152v1604h-162v-1604h-151v1018h-29q-152 0 -248 99t-96 254z" />
<glyph unicode="&#xb7;" horiz-adv-x="532" d="M133 504q0 54 39.5 93.5t93.5 39.5q55 0 93 -40t38 -99q0 -54 -39 -92.5t-94 -38.5q-54 0 -92.5 40t-38.5 97z" />
<glyph unicode="&#xb8;" horiz-adv-x="460" d="M20 -375l35 78q65 -33 140 -33q41 0 68.5 22t27.5 54q0 31 -26 50.5t-66 19.5q-23 0 -70 -15l-35 37l115 162h86l-80 -119q44 10 74 10q63 0 107 -38t44 -95q0 -80 -60 -127t-163 -47q-84 0 -197 41z" />
<glyph unicode="&#xb9;" horiz-adv-x="688" d="M117 1094v110q116 -2 174.5 34.5t73.5 119.5h122v-811h-159v547h-54h-59h-63h-35z" />
<glyph unicode="&#xba;" horiz-adv-x="727" d="M59 600v82h609v-82h-609zM78 1092q0 132 79 210t214 78q127 0 203.5 -78.5t76.5 -209.5q0 -132 -77 -209.5t-209 -77.5q-131 0 -209 78.5t-78 208.5zM215 1092q0 -85 40 -132t112 -47q69 0 108 48t39 133q0 83 -39 130.5t-108 47.5q-71 0 -111.5 -48t-40.5 -132z" />
<glyph unicode="&#xbb;" horiz-adv-x="884" d="M119 172v195l182 139l-182 141v199l297 -234v-209zM494 170v195l184 139l-184 145v201l299 -240v-209z" />
<glyph unicode="&#xbc;" horiz-adv-x="1595" d="M45 1094v110q116 -2 174.5 34.5t73.5 119.5h123v-811h-160v547h-53h-60h-63h-35zM344 0l766 1346h139l-762 -1346h-143zM1012 186v138l364 487h140v-502h108v-123h-108v-186h-146v186h-358zM1135 303l243 2v332z" />
<glyph unicode="&#xbd;" horiz-adv-x="1595" d="M45 1094v110q116 -2 174.5 34.5t73.5 119.5h123v-811h-160v547h-53h-60h-63h-35zM344 0l766 1346h139l-762 -1346h-143zM1016 0q3 118 56.5 192t199.5 164q116 72 150 110t34 97q0 60 -35 94.5t-96 34.5q-73 0 -104.5 -43t-36.5 -147h-146q0 153 75 233t216 80 q126 0 203.5 -68t77.5 -178q0 -104 -76 -180q-42 -42 -160 -115q-139 -81 -176 -147h27l69 2h314v-129h-592z" />
<glyph unicode="&#xbe;" horiz-adv-x="1595" d="M-37 821h146q3 -86 41 -126t116 -40q68 0 108 36.5t40 99.5q0 60 -43 92t-121 32q-28 0 -51 -2v111h20q86 0 125 26t39 83q0 50 -33 79t-88 29q-129 0 -135 -156h-145q4 132 78.5 204.5t203.5 72.5q120 0 194 -61t74 -158q0 -107 -100 -164q66 -22 100.5 -70t34.5 -116 q0 -116 -85 -188.5t-220 -72.5q-143 0 -221.5 76.5t-77.5 212.5zM346 0l766 1346h139l-762 -1346h-143zM1012 186v138l366 487h140v-502h108v-123h-108v-186h-146v186h-360zM1135 303l245 2v332z" />
<glyph unicode="&#xbf;" d="M82 -20q0 107 45.5 182t175.5 184q69 52 94 109.5t25 162.5h207q-1 -75 -6 -117.5t-14.5 -82t-35.5 -73.5t-58 -67t-93 -88q-60 -56 -84.5 -102.5t-24.5 -107.5q0 -90 53.5 -143.5t143.5 -53.5q112 0 168.5 68t64.5 208h220q-8 -175 -78 -280q-60 -89 -156.5 -135.5 t-218.5 -46.5q-194 0 -311 105t-117 278zM395 858q0 54 39.5 93.5t93.5 39.5q55 0 93 -40t38 -99q0 -54 -39 -92.5t-94 -38.5q-54 0 -92.5 40t-38.5 97z" />
<glyph unicode="&#xc0;" horiz-adv-x="1275" d="M-16 0l528 1366h256l524 -1366h-256l-131 362h-538l-136 -362h-247zM311 1743h256l160 -262h-158zM428 545h416l-113 305q-49 135 -94 287q-25 -87 -96 -283z" />
<glyph unicode="&#xc1;" horiz-adv-x="1275" d="M-16 0l528 1366h256l524 -1366h-256l-131 362h-538l-136 -362h-247zM428 545h416l-113 305q-49 135 -94 287q-25 -87 -96 -283zM553 1481l160 262h256l-258 -262h-158z" />
<glyph unicode="&#xc2;" horiz-adv-x="1275" d="M-16 0l528 1366h256l524 -1366h-256l-131 362h-538l-136 -362h-247zM324 1481l204 262h220l204 -262h-182l-131 166l-131 -166h-184zM428 545h416l-113 305q-49 135 -94 287q-25 -87 -96 -283z" />
<glyph unicode="&#xc3;" horiz-adv-x="1275" d="M-16 0l528 1366h256l524 -1366h-256l-131 362h-538l-136 -362h-247zM299 1497q19 108 73 164.5t138 56.5q42 0 74.5 -9t132.5 -50q30 -12 63 -12q67 0 90 82h109q-44 -220 -205 -220q-30 0 -63.5 8.5t-122.5 38.5q-65 23 -96 23q-63 0 -89 -82h-104zM428 545h416 l-113 305q-49 135 -94 287q-25 -87 -96 -283z" />
<glyph unicode="&#xc4;" horiz-adv-x="1275" d="M-16 0l528 1366h256l524 -1366h-256l-131 362h-538l-136 -362h-247zM295 1597q0 54 39.5 94t93.5 40q55 0 93 -40.5t38 -99.5q0 -54 -39 -92.5t-94 -38.5q-54 0 -92.5 40t-38.5 97zM428 545h416l-113 305q-49 135 -94 287q-25 -87 -96 -283zM721 1597q0 54 39.5 94 t93.5 40q55 0 93 -40.5t38 -99.5q0 -54 -39 -92.5t-94 -38.5q-54 0 -92.5 40t-38.5 97z" />
<glyph unicode="&#xc5;" horiz-adv-x="1275" d="M-16 0l528 1366h256l524 -1366h-256l-131 362h-538l-136 -362h-247zM426 1661q0 88 63 148.5t152 60.5q86 0 147.5 -62.5t61.5 -148.5q0 -88 -61.5 -149.5t-149.5 -61.5q-89 0 -151 62t-62 151zM428 545h416l-113 305q-49 135 -94 287q-25 -87 -96 -283zM535 1659 q0 -43 29.5 -73t72.5 -30t73.5 30t30.5 73q0 41 -30.5 71.5t-71.5 30.5q-43 0 -73.5 -29.5t-30.5 -72.5z" />
<glyph unicode="&#xc6;" horiz-adv-x="1841" d="M-29 0l682 1366h1104v-205h-661v-360h622v-195h-622v-401h676v-205h-908v350h-456l-170 -350h-267zM492 532h372v629h-71z" />
<glyph unicode="&#xc7;" horiz-adv-x="1380" d="M84 684q0 316 181 515.5t468 199.5q275 0 443 -180q117 -129 129 -287h-238q-25 124 -114.5 194t-223.5 70q-218 0 -323 -182q-82 -139 -82 -330q0 -236 108.5 -375t294.5 -139q150 0 239 90t111 262h238q-17 -246 -176.5 -400.5t-397.5 -154.5l-57 -86q44 10 70 10 q69 0 114 -38t45 -97q0 -80 -62 -128t-165 -48q-84 0 -197 41l35 78q65 -33 140 -33q41 0 68.5 22t27.5 56q0 31 -26.5 51.5t-67.5 20.5q-22 0 -68 -15l-35 35l92 133q-168 10 -298 103.5t-201.5 253t-71.5 358.5z" />
<glyph unicode="&#xc8;" horiz-adv-x="1204" d="M133 0v1366h985v-205h-745v-360h690v-195h-690v-401h757v-205h-997zM362 1743h256l160 -262h-157z" />
<glyph unicode="&#xc9;" horiz-adv-x="1204" d="M133 0v1366h985v-205h-745v-360h690v-195h-690v-401h757v-205h-997zM502 1481l160 262h256l-259 -262h-157z" />
<glyph unicode="&#xca;" horiz-adv-x="1204" d="M133 0v1366h985v-205h-745v-360h690v-195h-690v-401h757v-205h-997zM317 1481l205 262h219l205 -262h-184l-131 166l-131 -166h-183z" />
<glyph unicode="&#xcb;" horiz-adv-x="1204" d="M133 0v1366h985v-205h-745v-360h690v-195h-690v-401h757v-205h-997zM279 1597q0 54 39.5 94t93.5 40q55 0 93 -40.5t38 -99.5q0 -54 -39 -92.5t-94 -38.5q-54 0 -92.5 40t-38.5 97zM705 1597q0 54 39.5 94t93.5 40q55 0 93 -40.5t38 -99.5q0 -54 -39 -92.5t-94 -38.5 q-54 0 -92.5 40t-38.5 97z" />
<glyph unicode="&#xcc;" horiz-adv-x="532" d="M-33 1743h256l160 -262h-158zM147 0v1366h240v-1366h-240z" />
<glyph unicode="&#xcd;" horiz-adv-x="532" d="M145 0v1366h240v-1366h-240zM158 1481l159 262h256l-258 -262h-157z" />
<glyph unicode="&#xce;" horiz-adv-x="532" d="M-49 1481l205 262h219l205 -262h-183l-131 166l-131 -166h-184zM145 0v1366h240v-1366h-240z" />
<glyph unicode="&#xcf;" horiz-adv-x="532" d="M-14 1597q0 54 39.5 94t93.5 40q55 0 93 -40.5t38 -99.5q0 -54 -39 -92.5t-94 -38.5q-54 0 -92.5 40t-38.5 97zM147 0v1366h240v-1366h-240zM285 1597q0 54 39.5 94t93.5 40q55 0 93 -40.5t38 -99.5q0 -54 -39 -92.5t-94 -38.5q-54 0 -92.5 40t-38.5 97z" />
<glyph unicode="&#xd0;" horiz-adv-x="1380" d="M4 633v170h129v563h522q154 0 259 -32.5t188 -106.5q98 -88 150.5 -222t52.5 -298q0 -362 -193 -555q-85 -84 -184 -118t-260 -34h-535v633h-129zM373 205h262q124 0 191 21.5t118 78.5q119 131 119 389q0 229 -108.5 348t-315.5 119h-266v-358h299v-170h-299v-428z" />
<glyph unicode="&#xd1;" horiz-adv-x="1380" d="M135 0v1366h248l448 -711q150 -238 201 -344q-4 99 -12 428v627h227v-1366h-246l-444 698q-116 187 -144.5 236.5t-62.5 120.5q10 -126 12 -420v-635h-227zM360 1497q19 108 73 164.5t138 56.5q41 0 73 -9t134 -50q27 -12 64 -12q64 0 90 82h106q-41 -220 -202 -220 q-31 0 -64 8t-125 39q-62 23 -94 23q-62 0 -88 -82h-105z" />
<glyph unicode="&#xd2;" horiz-adv-x="1454" d="M72 682q0 324 182 520.5t483 196.5q140 0 260 -53t204.5 -146.5t132.5 -227t48 -288.5q0 -211 -81.5 -374t-231 -253t-342.5 -90q-293 0 -474 197.5t-181 517.5zM311 686q0 -236 114 -376t306 -140q187 0 299.5 140.5t112.5 373.5q0 230 -113 371t-297 141 q-195 0 -308.5 -137.5t-113.5 -372.5zM451 1743h256l159 -262h-157z" />
<glyph unicode="&#xd3;" horiz-adv-x="1454" d="M72 682q0 324 182 520.5t483 196.5q140 0 260 -53t204.5 -146.5t132.5 -227t48 -288.5q0 -211 -81.5 -374t-231 -253t-342.5 -90q-293 0 -474 197.5t-181 517.5zM311 686q0 -236 114 -376t306 -140q187 0 299.5 140.5t112.5 373.5q0 230 -113 371t-297 141 q-195 0 -308.5 -137.5t-113.5 -372.5zM623 1481l159 262h256l-258 -262h-157z" />
<glyph unicode="&#xd4;" horiz-adv-x="1454" d="M72 682q0 324 182 520.5t483 196.5q140 0 260 -53t204.5 -146.5t132.5 -227t48 -288.5q0 -211 -81.5 -374t-231 -253t-342.5 -90q-293 0 -474 197.5t-181 517.5zM311 686q0 -236 114 -376t306 -140q187 0 299.5 140.5t112.5 373.5q0 230 -113 371t-297 141 q-195 0 -308.5 -137.5t-113.5 -372.5zM412 1481l206 262h218l206 -262h-184l-131 166l-131 -166h-184z" />
<glyph unicode="&#xd5;" horiz-adv-x="1454" d="M72 682q0 324 182 520.5t483 196.5q140 0 260 -53t204.5 -146.5t132.5 -227t48 -288.5q0 -211 -81.5 -374t-231 -253t-342.5 -90q-293 0 -474 197.5t-181 517.5zM311 686q0 -236 114 -376t306 -140q187 0 299.5 140.5t112.5 373.5q0 230 -113 371t-297 141 q-195 0 -308.5 -137.5t-113.5 -372.5zM387 1497q19 108 73 164.5t140 56.5q40 0 72.5 -9t132.5 -50q30 -12 63 -12q67 0 93 82h106q-41 -220 -203 -220q-30 0 -61.5 8t-126.5 39q-65 23 -94 23q-33 0 -54 -19.5t-36 -62.5h-105z" />
<glyph unicode="&#xd6;" horiz-adv-x="1454" d="M72 682q0 324 182 520.5t483 196.5q140 0 260 -53t204.5 -146.5t132.5 -227t48 -288.5q0 -211 -81.5 -374t-231 -253t-342.5 -90q-293 0 -474 197.5t-181 517.5zM311 686q0 -236 114 -376t306 -140q187 0 299.5 140.5t112.5 373.5q0 230 -113 371t-297 141 q-195 0 -308.5 -137.5t-113.5 -372.5zM383 1597q0 54 39.5 94t93.5 40q55 0 93 -40.5t38 -99.5q0 -54 -39 -92.5t-94 -38.5q-54 0 -92.5 40t-38.5 97zM809 1597q0 54 39.5 94t93.5 40q55 0 93 -40.5t38 -99.5q0 -54 -39 -92.5t-94 -38.5q-54 0 -92.5 40t-38.5 97z" />
<glyph unicode="&#xd7;" horiz-adv-x="1146" d="M166 373l297 297l-293 293l111 110l292 -293l297 297l111 -110l-297 -297l293 -293l-111 -111l-293 291l-297 -297z" />
<glyph unicode="&#xd8;" horiz-adv-x="1454" d="M49 39l162 178q-73 110 -105 220t-32 251q0 318 181 514.5t474 196.5q244 0 408 -139l153 167l101 -92l-160 -178q153 -178 153 -475q0 -208 -82.5 -371t-231 -253.5t-337.5 -90.5q-129 0 -218.5 32.5t-211.5 121.5l-153 -174zM313 680q0 -77 13.5 -140t46.5 -139 l622 697q-110 98 -268 98q-179 0 -297 -133q-117 -132 -117 -383zM449 281q68 -59 135 -85t151 -26q190 0 300 139t110 381q0 91 -15 152.5t-55 140.5z" />
<glyph unicode="&#xd9;" horiz-adv-x="1380" d="M127 569v797h240v-809q0 -109 9.5 -164t37.5 -102q72 -125 282 -125q200 0 267 117q26 46 36.5 107t10.5 167v809h239v-801q0 -161 -21 -248t-79 -163q-141 -187 -457 -187q-175 0 -292.5 52t-188.5 159q-46 69 -65 156.5t-19 234.5zM414 1743h256l159 -262h-157z" />
<glyph unicode="&#xda;" horiz-adv-x="1380" d="M127 569v797h240v-809q0 -109 9.5 -164t37.5 -102q72 -125 282 -125q200 0 267 117q26 46 36.5 107t10.5 167v809h239v-801q0 -161 -21 -248t-79 -163q-141 -187 -457 -187q-175 0 -292.5 52t-188.5 159q-46 69 -65 156.5t-19 234.5zM584 1481l159 262h256l-258 -262 h-157z" />
<glyph unicode="&#xdb;" horiz-adv-x="1380" d="M127 569v797h240v-809q0 -109 9.5 -164t37.5 -102q72 -125 282 -125q200 0 267 117q26 46 36.5 107t10.5 167v809h239v-801q0 -161 -21 -248t-79 -163q-141 -187 -457 -187q-175 0 -292.5 52t-188.5 159q-46 69 -65 156.5t-19 234.5zM373 1481l207 262h217l207 -262h-185 l-131 166l-131 -166h-184z" />
<glyph unicode="&#xdc;" horiz-adv-x="1380" d="M127 569v797h240v-809q0 -109 9.5 -164t37.5 -102q72 -125 282 -125q200 0 267 117q26 46 36.5 107t10.5 167v809h239v-801q0 -161 -21 -248t-79 -163q-141 -187 -457 -187q-175 0 -292.5 52t-188.5 159q-46 69 -65 156.5t-19 234.5zM344 1597q0 54 39.5 94t93.5 40 q55 0 93 -40.5t38 -99.5q0 -54 -39 -92.5t-94 -38.5q-54 0 -92.5 40t-38.5 97zM770 1597q0 54 39.5 94t93.5 40q55 0 93 -40.5t38 -99.5q0 -54 -39 -92.5t-94 -38.5q-54 0 -92.5 40t-38.5 97z" />
<glyph unicode="&#xdd;" horiz-adv-x="1239" d="M-14 1366h276l264 -436q61 -103 99 -187q45 102 98 191l260 432h268l-512 -823v-543h-239v545zM516 1481l160 262h256l-258 -262h-158z" />
<glyph unicode="&#xde;" horiz-adv-x="1275" d="M141 0v1366h240v-205h315q132 0 208.5 -16.5t137.5 -59.5q168 -112 168 -340q0 -220 -153 -337q-61 -47 -135 -66.5t-193 -19.5h-348v-322h-240zM381 516h315q135 0 197 45q80 61 80 178q0 125 -92 183q-35 22 -81 30.5t-126 8.5h-293v-445z" />
<glyph unicode="&#xdf;" horiz-adv-x="1097" d="M123 0v881q0 147 13.5 217t51.5 127q52 78 145.5 121t209.5 43q181 0 291 -95.5t110 -251.5q0 -101 -50 -175.5t-136 -100.5q121 -26 187.5 -117t66.5 -231q0 -213 -156 -344q-111 -94 -293 -94q-42 0 -94 8v174q39 -8 66 -8q119 0 187.5 72t68.5 196q0 131 -71.5 192.5 t-223.5 61.5h-27v151q12 -2 29 -2q235 0 235 201q0 85 -53 136.5t-141 51.5q-119 0 -164 -79q-20 -33 -26.5 -76t-6.5 -137v-922h-219z" />
<glyph unicode="&#xe0;" d="M39 268q0 75 28 135.5t78 90.5q53 33 142.5 54t257.5 40q96 10 134 37t38 84q0 66 -51.5 100.5t-149.5 34.5q-105 0 -157.5 -36.5t-65.5 -119.5h-217q11 90 35 141t77 93q114 94 330 94q183 0 293.5 -77t110.5 -204v-520q0 -42 12 -56t49 -14q18 0 43 5v-152 q-98 -25 -143 -25q-135 0 -162 121q-142 -121 -342 -121q-155 0 -247.5 80t-92.5 215zM258 285q0 -66 50 -103t141 -37q110 0 181.5 51.5t71.5 131.5v168q-44 -25 -86 -35q-4 -1 -14 -2t-27 -3t-34 -5l-76 -11q-106 -14 -156.5 -51.5t-50.5 -103.5zM289 1419h237l138 -289 h-146z" />
<glyph unicode="&#xe1;" d="M39 268q0 75 28 135.5t78 90.5q53 33 142.5 54t257.5 40q96 10 134 37t38 84q0 66 -51.5 100.5t-149.5 34.5q-105 0 -157.5 -36.5t-65.5 -119.5h-217q11 90 35 141t77 93q114 94 330 94q183 0 293.5 -77t110.5 -204v-520q0 -42 12 -56t49 -14q18 0 43 5v-152 q-98 -25 -143 -25q-135 0 -162 121q-142 -121 -342 -121q-155 0 -247.5 80t-92.5 215zM258 285q0 -66 50 -103t141 -37q110 0 181.5 51.5t71.5 131.5v168q-44 -25 -86 -35q-4 -1 -14 -2t-27 -3t-34 -5l-76 -11q-106 -14 -156.5 -51.5t-50.5 -103.5zM418 1130l137 289h238 l-230 -289h-145z" />
<glyph unicode="&#xe2;" d="M39 268q0 75 28 135.5t78 90.5q53 33 142.5 54t257.5 40q96 10 134 37t38 84q0 66 -51.5 100.5t-149.5 34.5q-105 0 -157.5 -36.5t-65.5 -119.5h-217q11 90 35 141t77 93q114 94 330 94q183 0 293.5 -77t110.5 -204v-520q0 -42 12 -56t49 -14q18 0 43 5v-152 q-98 -25 -143 -25q-135 0 -162 121q-142 -121 -342 -121q-155 0 -247.5 80t-92.5 215zM250 1130l184 289h199l186 -289h-184l-105 175l-108 -175h-172zM258 285q0 -66 50 -103t141 -37q110 0 181.5 51.5t71.5 131.5v168q-44 -25 -86 -35q-4 -1 -14 -2t-27 -3t-34 -5l-76 -11 q-106 -14 -156.5 -51.5t-50.5 -103.5z" />
<glyph unicode="&#xe3;" d="M39 268q0 75 28 135.5t78 90.5q53 33 142.5 54t257.5 40q96 10 134 37t38 84q0 66 -51.5 100.5t-149.5 34.5q-105 0 -157.5 -36.5t-65.5 -119.5h-217q11 90 35 141t77 93q114 94 330 94q183 0 293.5 -77t110.5 -204v-520q0 -42 12 -56t49 -14q18 0 43 5v-152 q-98 -25 -143 -25q-135 0 -162 121q-142 -121 -342 -121q-155 0 -247.5 80t-92.5 215zM229 1153q12 106 63.5 166.5t129.5 60.5q36 0 66 -9.5t130 -53.5q23 -10 48 -10q58 0 75 84h107q-15 -109 -63 -168.5t-123 -59.5q-48 0 -170 49q-57 25 -80 25q-32 0 -51 -19.5 t-29 -64.5h-103zM258 285q0 -66 50 -103t141 -37q110 0 181.5 51.5t71.5 131.5v168q-44 -25 -86 -35q-4 -1 -14 -2t-27 -3t-34 -5l-76 -11q-106 -14 -156.5 -51.5t-50.5 -103.5z" />
<glyph unicode="&#xe4;" d="M39 268q0 75 28 135.5t78 90.5q53 33 142.5 54t257.5 40q96 10 134 37t38 84q0 66 -51.5 100.5t-149.5 34.5q-105 0 -157.5 -36.5t-65.5 -119.5h-217q11 90 35 141t77 93q114 94 330 94q183 0 293.5 -77t110.5 -204v-520q0 -42 12 -56t49 -14q18 0 43 5v-152 q-98 -25 -143 -25q-135 0 -162 121q-142 -121 -342 -121q-155 0 -247.5 80t-92.5 215zM211 1264q0 54 39.5 93.5t93.5 39.5q55 0 93 -40.5t38 -99.5q0 -54 -39 -92.5t-94 -38.5q-54 0 -92.5 40.5t-38.5 97.5zM258 285q0 -66 50 -103t141 -37q110 0 181.5 51.5t71.5 131.5 v168q-44 -25 -86 -35q-4 -1 -14 -2t-27 -3t-34 -5l-76 -11q-106 -14 -156.5 -51.5t-50.5 -103.5zM596 1264q0 54 39.5 93.5t93.5 39.5q55 0 93 -40.5t38 -99.5q0 -54 -39 -92.5t-94 -38.5q-54 0 -92.5 40.5t-38.5 97.5z" />
<glyph unicode="&#xe5;" d="M39 268q0 75 28 135.5t78 90.5q53 33 142.5 54t257.5 40q96 10 134 37t38 84q0 66 -51.5 100.5t-149.5 34.5q-105 0 -157.5 -36.5t-65.5 -119.5h-217q11 90 35 141t77 93q114 94 330 94q183 0 293.5 -77t110.5 -204v-520q0 -42 12 -56t49 -14q18 0 43 5v-152 q-98 -25 -143 -25q-135 0 -162 121q-142 -121 -342 -121q-155 0 -247.5 80t-92.5 215zM258 285q0 -66 50 -103t141 -37q110 0 181.5 51.5t71.5 131.5v168q-44 -25 -86 -35q-4 -1 -14 -2t-27 -3t-34 -5l-76 -11q-106 -14 -156.5 -51.5t-50.5 -103.5zM330 1300q0 85 60.5 144 t148.5 59q82 0 141 -60t59 -145t-59.5 -144.5t-144.5 -59.5q-86 0 -145.5 60t-59.5 146zM434 1298q0 -41 30 -70.5t71 -29.5t70.5 29.5t29.5 70.5t-29 71t-69 30q-43 0 -73 -30t-30 -71z" />
<glyph unicode="&#xe6;" horiz-adv-x="1699" d="M63 268q0 82 38 146t106 96q55 28 111 39.5t247 34.5q100 14 137 40.5t37 84.5q0 145 -202 145q-106 0 -159 -41t-63 -133h-211q7 81 31 133t72 94q58 52 146.5 80.5t191.5 28.5q245 0 329 -137q52 66 133 101.5t177 35.5q124 0 226.5 -55.5t162.5 -155.5 q41 -69 57.5 -150t16.5 -213h-711q0 -145 67 -226t187 -81q171 0 235 176h211q-38 -159 -157 -248.5t-293 -89.5q-250 0 -355 183q-129 -183 -409 -183q-169 0 -264 78.5t-95 216.5zM289 281q0 -74 48.5 -116t135.5 -42q121 0 199 72q35 31 50 69.5t15 95.5v134 q-38 -23 -73 -31.5t-144 -22.5q-133 -19 -182 -52.5t-49 -106.5zM934 588h496q-8 125 -73.5 195.5t-174.5 70.5q-64 0 -118 -29t-85 -80q-37 -58 -45 -157z" />
<glyph unicode="&#xe7;" d="M70 483q0 243 133.5 388t357.5 145q190 0 307 -95.5t136 -265.5h-218q-19 91 -76 139t-147 48q-126 0 -199 -93.5t-73 -254.5q0 -163 70 -255t194 -92q100 0 162.5 58.5t77.5 165.5h215q-19 -173 -136 -283t-286 -115l-62 -92q44 10 74 10q63 0 107.5 -38t44.5 -95 q0 -80 -60.5 -127t-163.5 -47q-83 0 -196 41l35 78q65 -33 139 -33q41 0 68.5 22t27.5 54q0 31 -26 50.5t-66 19.5q-23 0 -70 -15l-34 37l96 137q-199 17 -315.5 154t-116.5 354z" />
<glyph unicode="&#xe8;" d="M59 483q0 232 135.5 382.5t344.5 150.5q141 0 251.5 -70.5t165.5 -197.5q55 -122 52 -306h-732q6 -148 77 -227.5t198 -79.5q89 0 145 41.5t90 132.5h209q-38 -158 -157 -247t-291 -89q-220 0 -354 140t-134 370zM281 588h510q-11 123 -79 194.5t-175 71.5t-173 -68.5 t-83 -197.5zM289 1419h239l136 -289h-144z" />
<glyph unicode="&#xe9;" d="M59 483q0 232 135.5 382.5t344.5 150.5q141 0 251.5 -70.5t165.5 -197.5q55 -122 52 -306h-732q6 -148 77 -227.5t198 -79.5q89 0 145 41.5t90 132.5h209q-38 -158 -157 -247t-291 -89q-220 0 -354 140t-134 370zM281 588h510q-11 123 -79 194.5t-175 71.5t-173 -68.5 t-83 -197.5zM428 1130l137 289h238l-230 -289h-145z" />
<glyph unicode="&#xea;" d="M59 483q0 232 135.5 382.5t344.5 150.5q141 0 251.5 -70.5t165.5 -197.5q55 -122 52 -306h-732q6 -148 77 -227.5t198 -79.5q89 0 145 41.5t90 132.5h209q-38 -158 -157 -247t-291 -89q-220 0 -354 140t-134 370zM250 1130l184 289h199l186 -289h-186l-105 175l-108 -175 h-170zM281 588h510q-11 123 -79 194.5t-175 71.5t-173 -68.5t-83 -197.5z" />
<glyph unicode="&#xeb;" d="M59 483q0 232 135.5 382.5t344.5 150.5q141 0 251.5 -70.5t165.5 -197.5q55 -122 52 -306h-732q6 -148 77 -227.5t198 -79.5q89 0 145 41.5t90 132.5h209q-38 -158 -157 -247t-291 -89q-220 0 -354 140t-134 370zM217 1264q0 54 39.5 93.5t93.5 39.5q55 0 93 -40.5 t38 -99.5q0 -54 -39 -92.5t-94 -38.5q-54 0 -92.5 40.5t-38.5 97.5zM281 588h510q-11 123 -79 194.5t-175 71.5t-173 -68.5t-83 -197.5zM600 1264q0 54 39.5 93.5t93.5 39.5q55 0 93 -40.5t38 -99.5q0 -54 -39 -92.5t-94 -38.5q-54 0 -92.5 40.5t-38.5 97.5z" />
<glyph unicode="&#xec;" horiz-adv-x="460" d="M-43 1419h238l137 -289h-144zM121 0v989h219v-989h-219z" />
<glyph unicode="&#xed;" horiz-adv-x="460" d="M121 0v989h219v-989h-219zM127 1130l137 289h238l-230 -289h-145z" />
<glyph unicode="&#xee;" horiz-adv-x="460" d="M-55 1130l184 289h199l186 -289h-184l-105 175l-108 -175h-172zM121 0v989h219v-989h-219z" />
<glyph unicode="&#xef;" horiz-adv-x="460" d="M-57 1264q0 54 39.5 93.5t93.5 39.5q55 0 93 -40.5t38 -99.5q0 -54 -39 -92.5t-94 -38.5q-54 0 -92.5 40.5t-38.5 97.5zM121 0v989h219v-989h-219zM268 1264q0 54 39.5 93.5t93.5 39.5q55 0 93 -40.5t38 -99.5q0 -54 -39 -92.5t-94 -38.5q-54 0 -92.5 40.5t-38.5 97.5z " />
<glyph unicode="&#xf0;" horiz-adv-x="1134" d="M68 494q0 227 133 375.5t336 148.5q41 0 122 -17l-77 152l-164 -68l-43 99l162 67l-62 123l129 58l76 -123l162 69l45 -98l-148 -63l168 -269q92 -146 126 -242t34 -210q0 -236 -137 -379.5t-361 -143.5q-227 0 -364 143t-137 378zM289 496q0 -163 75 -254.5t207 -91.5 q129 0 202 92.5t73 255.5q0 159 -74.5 252.5t-200.5 93.5q-132 0 -207 -92.5t-75 -255.5z" />
<glyph unicode="&#xf1;" horiz-adv-x="1097" d="M117 0v989h205v-145q68 91 145 131.5t184 40.5q94 0 171.5 -37.5t115.5 -101.5q28 -44 38.5 -98t10.5 -148v-631h-219v575q0 112 -18 162q-17 45 -62.5 71t-107.5 26q-72 0 -128.5 -34t-84.5 -93q-31 -66 -31 -211v-496h-219zM254 1153q12 106 63 166.5t129 60.5 q36 0 66.5 -9.5t130.5 -53.5q23 -10 47 -10q58 0 78 84h104q-15 -109 -63 -168.5t-123 -59.5q-49 0 -168 49q-60 25 -82 25q-32 0 -50 -19t-30 -65h-102z" />
<glyph unicode="&#xf2;" horiz-adv-x="1134" d="M68 494q0 239 137.5 380.5t369.5 141.5q224 0 358 -142t134 -380q0 -239 -134.5 -380t-363.5 -141q-228 0 -364.5 142t-136.5 379zM289 494q0 -163 74.5 -255t207.5 -92q129 0 202 93t73 256q0 159 -74.5 252.5t-200.5 93.5q-132 0 -207 -92.5t-75 -255.5zM317 1419h238 l137 -289h-143z" />
<glyph unicode="&#xf3;" horiz-adv-x="1134" d="M68 494q0 239 137.5 380.5t369.5 141.5q224 0 358 -142t134 -380q0 -239 -134.5 -380t-363.5 -141q-228 0 -364.5 142t-136.5 379zM289 494q0 -163 74.5 -255t207.5 -92q129 0 202 93t73 256q0 159 -74.5 252.5t-200.5 93.5q-132 0 -207 -92.5t-75 -255.5zM463 1130 l135 289h240l-232 -289h-143z" />
<glyph unicode="&#xf4;" horiz-adv-x="1134" d="M68 494q0 239 137.5 380.5t369.5 141.5q224 0 358 -142t134 -380q0 -239 -134.5 -380t-363.5 -141q-228 0 -364.5 142t-136.5 379zM283 1130l184 289h199l186 -289h-184l-105 175l-108 -175h-172zM289 494q0 -163 74.5 -255t207.5 -92q129 0 202 93t73 256 q0 159 -74.5 252.5t-200.5 93.5q-132 0 -207 -92.5t-75 -255.5z" />
<glyph unicode="&#xf5;" horiz-adv-x="1134" d="M68 494q0 239 137.5 380.5t369.5 141.5q224 0 358 -142t134 -380q0 -239 -134.5 -380t-363.5 -141q-228 0 -364.5 142t-136.5 379zM258 1153q12 105 64.5 166t130.5 61q34 0 64 -9.5t130 -53.5q23 -10 49 -10q29 0 47.5 20t28.5 64h105q-13 -108 -62 -168t-123 -60 q-51 0 -170 49q-57 25 -82 25q-31 0 -49.5 -19.5t-30.5 -64.5h-102zM289 494q0 -163 74.5 -255t207.5 -92q129 0 202 93t73 256q0 159 -74.5 252.5t-200.5 93.5q-132 0 -207 -92.5t-75 -255.5z" />
<glyph unicode="&#xf6;" horiz-adv-x="1134" d="M68 494q0 239 137.5 380.5t369.5 141.5q224 0 358 -142t134 -380q0 -239 -134.5 -380t-363.5 -141q-228 0 -364.5 142t-136.5 379zM244 1264q0 54 39.5 93.5t93.5 39.5q55 0 93 -40.5t38 -99.5q0 -54 -39 -92.5t-94 -38.5q-54 0 -92.5 40.5t-38.5 97.5zM289 494 q0 -163 74.5 -255t207.5 -92q129 0 202 93t73 256q0 159 -74.5 252.5t-200.5 93.5q-132 0 -207 -92.5t-75 -255.5zM627 1264q0 54 39.5 93.5t93.5 39.5q55 0 93 -40.5t38 -99.5q0 -54 -39 -92.5t-94 -38.5q-54 0 -92.5 40.5t-38.5 97.5z" />
<glyph unicode="&#xf7;" horiz-adv-x="1146" d="M117 590v158h915v-158h-915zM446 336q0 54 38 90.5t94 36.5q51 0 87.5 -37.5t36.5 -89.5q0 -54 -37 -91.5t-90 -37.5q-54 0 -91.5 37.5t-37.5 91.5zM446 1008q0 52 37.5 88.5t91.5 36.5q51 0 88 -37.5t37 -89.5t-37 -89.5t-90 -37.5t-90 37.5t-37 91.5z" />
<glyph unicode="&#xf8;" horiz-adv-x="1134" d="M57 25l115 127q-104 146 -104 346q0 233 139 375.5t366 142.5q97 0 168.5 -23t137.5 -75l114 122l84 -75l-116 -125q58 -76 82 -151t24 -179q0 -250 -134.5 -393.5t-367.5 -143.5q-93 0 -163 22.5t-150 76.5l-111 -125zM289 498q0 -104 33 -189l426 467q-84 66 -179 66 q-126 0 -203 -94.5t-77 -249.5zM387 215q80 -68 182 -68q129 0 203 91t74 249q0 95 -33 193z" />
<glyph unicode="&#xf9;" horiz-adv-x="1097" d="M109 354v635h219v-565q0 -89 5.5 -129t22.5 -66q48 -73 160 -73q69 0 124 33t87 94q33 59 33 221v485h219v-989h-205v147q-67 -92 -145 -133t-183 -41q-85 0 -155.5 29.5t-114.5 83.5q-36 44 -51.5 105.5t-15.5 162.5zM293 1419h239l136 -289h-144z" />
<glyph unicode="&#xfa;" horiz-adv-x="1097" d="M109 354v635h219v-565q0 -89 5.5 -129t22.5 -66q48 -73 160 -73q69 0 124 33t87 94q33 59 33 221v485h219v-989h-205v147q-67 -92 -145 -133t-183 -41q-85 0 -155.5 29.5t-114.5 83.5q-36 44 -51.5 105.5t-15.5 162.5zM432 1130l137 289h238l-229 -289h-146z" />
<glyph unicode="&#xfb;" horiz-adv-x="1097" d="M109 354v635h219v-565q0 -89 5.5 -129t22.5 -66q48 -73 160 -73q69 0 124 33t87 94q33 59 33 221v485h219v-989h-205v147q-67 -92 -145 -133t-183 -41q-85 0 -155.5 29.5t-114.5 83.5q-36 44 -51.5 105.5t-15.5 162.5zM258 1130l186 289h197l186 -289h-184l-104 175 l-109 -175h-172z" />
<glyph unicode="&#xfc;" horiz-adv-x="1097" d="M109 354v635h219v-565q0 -89 5.5 -129t22.5 -66q48 -73 160 -73q69 0 124 33t87 94q33 59 33 221v485h219v-989h-205v147q-67 -92 -145 -133t-183 -41q-85 0 -155.5 29.5t-114.5 83.5q-36 44 -51.5 105.5t-15.5 162.5zM219 1264q0 54 39.5 93.5t93.5 39.5q55 0 93 -40.5 t38 -99.5q0 -54 -39 -92.5t-94 -38.5q-54 0 -92.5 40.5t-38.5 97.5zM604 1264q0 54 39.5 93.5t93.5 39.5q55 0 93 -40.5t38 -99.5q0 -54 -39 -92.5t-94 -38.5q-54 0 -92.5 40.5t-38.5 97.5z" />
<glyph unicode="&#xfd;" horiz-adv-x="993" d="M6 989h240l192 -532q37 -110 70 -230q28 100 74 244l178 518h227l-366 -971q-53 -142 -80 -199t-60 -98q-79 -100 -229 -100q-61 0 -150 12v183q99 -13 113 -13q77 0 113 74q45 92 55 156zM389 1130l137 289h238l-232 -289h-143z" />
<glyph unicode="&#xfe;" horiz-adv-x="1167" d="M119 -367v1733h219v-508q107 158 313 158q204 0 327.5 -144t123.5 -383q0 -233 -120.5 -374.5t-319.5 -141.5q-213 0 -324 156v-496h-219zM330 496q0 -163 74 -256t204 -93q126 0 199.5 92t73.5 250q0 161 -74 257t-199 96q-132 0 -205 -91t-73 -255z" />
<glyph unicode="&#xff;" horiz-adv-x="993" d="M6 989h240l192 -532q37 -110 70 -230q28 100 74 244l178 518h227l-366 -971q-53 -142 -80 -199t-60 -98q-79 -100 -229 -100q-61 0 -150 12v183q99 -13 113 -13q77 0 113 74q45 92 55 156zM174 1264q0 54 39.5 93.5t93.5 39.5q55 0 93 -40.5t38 -99.5q0 -54 -39 -92.5 t-94 -38.5q-54 0 -92.5 40.5t-38.5 97.5zM557 1264q0 54 39.5 93.5t93.5 39.5q55 0 93 -40.5t38 -99.5q0 -54 -39 -92.5t-94 -38.5q-54 0 -92.5 40.5t-38.5 97.5z" />
<glyph unicode="&#x152;" horiz-adv-x="2091" d="M76 672q0 209 81.5 374t228 257t331.5 92q242 0 350 -138v109h934v-205h-713v-360h651v-195h-651v-401h725v-205h-948v123q-133 -154 -363 -154q-180 0 -323 89.5t-223 250.5t-80 363zM315 680q0 -228 114.5 -368t301.5 -140q179 0 275 125q51 63 51 176v424 q0 72 -10.5 109t-42.5 75q-94 111 -261 111q-194 0 -311 -140t-117 -372z" />
<glyph unicode="&#x153;" horiz-adv-x="1734" d="M59 494q0 237 130 379.5t346 142.5q238 0 342 -168q115 168 342 168q160 0 274 -84t158 -236q28 -93 28 -254h-712q0 -141 70 -225t190 -84q85 0 140.5 43t90.5 137h211q-43 -163 -160.5 -251.5t-289.5 -88.5q-130 0 -214.5 44t-138.5 139q-98 -183 -344 -183 q-212 0 -337.5 141.5t-125.5 379.5zM281 494q0 -163 65.5 -255t183.5 -92t181 92.5t63 266.5q0 159 -62.5 247.5t-176.5 88.5q-120 0 -187 -92t-67 -256zM965 588h495q-3 55 -12.5 88.5t-30.5 66.5q-34 52 -88 81.5t-117 29.5q-68 0 -125 -33.5t-88 -91.5q-26 -50 -34 -141z " />
<glyph unicode="&#x178;" horiz-adv-x="1239" d="M-14 1366h276l264 -436q61 -103 99 -187q45 102 98 191l260 432h268l-512 -823v-543h-239v545zM274 1597q0 54 40 94t94 40q55 0 93 -40.5t38 -99.5q0 -54 -39 -92.5t-94 -38.5q-54 0 -93 40t-39 97zM700 1597q0 54 40 94t94 40q55 0 93 -40.5t38 -99.5 q0 -54 -39.5 -92.5t-94.5 -38.5q-54 0 -92.5 40t-38.5 97z" />
<glyph unicode="&#x2c6;" horiz-adv-x="460" d="M-53 1130l184 289h199l186 -289h-184l-105 175l-108 -175h-172z" />
<glyph unicode="&#x2dc;" horiz-adv-x="460" d="M-80 1153q12 105 64 166t129 61q36 0 66 -9.5t130 -53.5q23 -10 49 -10q29 0 47.5 20t28.5 64h105q-13 -108 -62 -168t-123 -60q-51 0 -170 49q-60 25 -82 25q-32 0 -49.5 -19t-29.5 -65h-103z" />
<glyph unicode="&#x2000;" horiz-adv-x="935" />
<glyph unicode="&#x2001;" horiz-adv-x="1870" />
<glyph unicode="&#x2002;" horiz-adv-x="935" />
<glyph unicode="&#x2003;" horiz-adv-x="1870" />
<glyph unicode="&#x2004;" horiz-adv-x="623" />
<glyph unicode="&#x2005;" horiz-adv-x="467" />
<glyph unicode="&#x2006;" horiz-adv-x="311" />
<glyph unicode="&#x2007;" horiz-adv-x="311" />
<glyph unicode="&#x2008;" horiz-adv-x="233" />
<glyph unicode="&#x2009;" horiz-adv-x="374" />
<glyph unicode="&#x200a;" horiz-adv-x="103" />
<glyph unicode="&#x2010;" horiz-adv-x="743" d="M127 412v198h491v-198h-491z" />
<glyph unicode="&#x2011;" horiz-adv-x="743" d="M127 412v198h491v-198h-491z" />
<glyph unicode="&#x2012;" horiz-adv-x="743" d="M127 412v198h491v-198h-491z" />
<glyph unicode="&#x2013;" horiz-adv-x="956" d="M41 412v198h874v-198h-874z" />
<glyph unicode="&#x2014;" horiz-adv-x="1912" d="M238 412v198h1437v-198h-1437z" />
<glyph unicode="&#x2018;" horiz-adv-x="532" d="M119 1042q0 68 20.5 130.5t57.5 103.5q63 72 180 94v-113q-57 -7 -94.5 -48.5t-40.5 -98.5q6 2 24 2h6q55 0 94.5 -38.5t39.5 -92.5q0 -58 -39.5 -97.5t-98.5 -39.5q-68 0 -108.5 54t-40.5 144z" />
<glyph unicode="&#x2019;" horiz-adv-x="532" d="M119 1233q0 59 39.5 98t97.5 39q68 0 109 -54.5t41 -144.5q0 -144 -78 -235q-33 -38 -75 -59t-106 -33v112q57 7 95 49t41 99q-12 -4 -25 -4h-6q-55 0 -94 39.5t-39 93.5z" />
<glyph unicode="&#x201a;" horiz-adv-x="532" d="M119 119q0 59 39.5 98t97.5 39q68 0 109 -54.5t41 -144.5q0 -68 -20.5 -130t-57.5 -103q-63 -72 -181 -94v112q57 7 95 49t41 99q-6 -2 -25 -2h-6q-55 0 -94 38.5t-39 92.5z" />
<glyph unicode="&#x201c;" horiz-adv-x="849" d="M92 1042q0 68 20.5 130.5t57.5 103.5q33 39 74.5 60.5t105.5 33.5v-113q-57 -7 -94.5 -48.5t-40.5 -98.5q6 2 25 2h6q55 0 94 -38.5t39 -92.5q0 -59 -39.5 -98t-97.5 -39q-68 0 -109 54t-41 144zM459 1042q0 68 20.5 130.5t57.5 103.5q33 39 74.5 60.5t105.5 33.5v-113 q-57 -7 -94.5 -48.5t-40.5 -98.5q6 2 24 2h6q55 0 94 -38.5t39 -92.5q0 -59 -39.5 -98t-97.5 -39q-68 0 -108.5 54t-40.5 144z" />
<glyph unicode="&#x201d;" horiz-adv-x="849" d="M94 1233q0 59 39 98t98 39q68 0 109 -54.5t41 -144.5q0 -68 -20.5 -130t-57.5 -103q-33 -39 -74.5 -60.5t-105.5 -33.5v112q57 7 94.5 49t40.5 99q-6 -2 -25 -2h-6q-55 0 -94 38.5t-39 92.5zM463 1233q0 59 39.5 98t97.5 39q68 0 109 -54.5t41 -144.5q0 -68 -20.5 -130 t-57.5 -103q-33 -39 -74.5 -60.5t-105.5 -33.5v112q57 7 94.5 49t40.5 99q-6 -2 -25 -2h-6q-55 0 -94 38.5t-39 92.5z" />
<glyph unicode="&#x201e;" horiz-adv-x="849" d="M88 129q0 60 41.5 101.5t101.5 41.5q68 0 110 -57t42 -149q0 -67 -22 -130t-60 -106q-65 -74 -182 -96v116q59 8 97.5 49t39.5 99q-12 -4 -27 -4q-58 0 -99.5 39.5t-41.5 95.5zM455 131q0 60 41 100.5t102 40.5q68 0 110 -56.5t42 -147.5q0 -68 -22 -131.5t-60 -106.5 q-65 -76 -183 -96v116q58 7 95.5 47.5t42.5 100.5q-12 -4 -27 -4q-60 0 -100.5 39.5t-40.5 97.5z" />
<glyph unicode="&#x2022;" horiz-adv-x="956" d="M197 694q0 120 82.5 203.5t201.5 83.5q114 0 196.5 -84t82.5 -201q0 -120 -82 -203t-199 -83t-199.5 83.5t-82.5 200.5z" />
<glyph unicode="&#x2026;" horiz-adv-x="1912" d="M285 123q0 54 39.5 93.5t93.5 39.5q55 0 93 -40t38 -99q0 -54 -39 -92.5t-94 -38.5q-54 0 -92.5 40t-38.5 97zM823 123q0 54 39.5 93.5t93.5 39.5q55 0 93 -40t38 -99q0 -54 -39 -92.5t-94 -38.5q-54 0 -92.5 40t-38.5 97zM1364 123q0 54 39.5 93.5t93.5 39.5 q55 0 93 -40t38 -99q0 -54 -39 -92.5t-94 -38.5q-54 0 -92.5 40t-38.5 97z" />
<glyph unicode="&#x202f;" horiz-adv-x="374" />
<glyph unicode="&#x2039;" horiz-adv-x="495" d="M86 408v208l297 232v-197l-182 -139l182 -141v-199z" />
<glyph unicode="&#x203a;" horiz-adv-x="495" d="M115 172v195l182 139l-182 141v201l295 -236v-211z" />
<glyph unicode="&#x205f;" horiz-adv-x="467" />
<glyph unicode="&#x20ac;" horiz-adv-x="1310" d="M0 420l96 180h99q-5 41 -5 76h-190l96 180h113q38 192 166 332q177 198 463 198q263 0 432 -172l-119 -223q-57 103 -131 148t-184 45q-146 0 -244.5 -85t-136.5 -243h620l-96 -180h-549q0 -6 4 -76h500l-96 -180h-361q101 -250 357 -250q106 0 178.5 40.5t138.5 135.5 v-297q-82 -46 -153 -64t-171 -18q-221 0 -380 119.5t-220 333.5h-227z" />
<glyph unicode="&#x2122;" horiz-adv-x="1841" d="M20 1237v131h633v-131h-235v-659h-162v659h-236zM768 578v790h229l215 -557l209 557h232v-790h-156v591h-4l-227 -591h-111l-229 591h-2v-591h-156z" />
<glyph unicode="&#x25fc;" horiz-adv-x="993" d="M0 0v993h993v-993h-993z" />
</font>
</defs>
</svg>
