<?xml version="1.0" standalone="no"?>
<!DOCTYPE svg PUBLIC "-//W3C//DTD SVG 1.1//EN" "http://www.w3.org/Graphics/SVG/1.1/DTD/svg11.dtd" >
<svg xmlns="http://www.w3.org/2000/svg">
<metadata></metadata>
<defs>
<font id="uhc_sansmedium" horiz-adv-x="1091" >
<font-face units-per-em="2048" ascent="1366" descent="-682" />
<missing-glyph horiz-adv-x="512" />
<glyph unicode="&#xfb01;" horiz-adv-x="1021" d="M10 856v133h166v66q0 102 7.5 145.5t31.5 79.5q65 98 225 98q50 0 115 -8v-139q-49 10 -94 10q-74 0 -98.5 -27t-24.5 -110v-115h190v-133h-190v-856h-162v856h-166zM686 1257q0 47 33.5 82t77.5 35q45 0 77.5 -34.5t32.5 -82.5q0 -47 -33 -81.5t-79 -34.5 q-43 0 -76 34.5t-33 81.5zM717 0v989h162v-989h-162z" />
<glyph unicode="&#xfb02;" horiz-adv-x="1021" d="M10 856v133h166v66q0 102 7.5 145.5t31.5 79.5q65 98 225 98q50 0 115 -8v-139q-49 10 -94 10q-74 0 -98.5 -27t-24.5 -110v-115h190v-133h-190v-856h-162v856h-166zM717 0v1366h162v-1366h-162z" />
<glyph unicode="&#xfb03;" horiz-adv-x="1562" d="M10 856v133h166v66q0 102 7.5 145.5t31.5 79.5q65 98 225 98q50 0 115 -8v-139q-49 10 -94 10q-74 0 -98.5 -27t-24.5 -110v-115h190v-133h-190v-856h-162v856h-166zM549 856v133h168v66q0 102 7.5 145.5t31.5 79.5q65 98 225 98q50 0 113 -8v-139q-49 10 -93 10 q-74 0 -98 -27t-24 -110v-115h190v-133h-190v-856h-162v856h-168zM1227 1257q0 47 33 82t77 35q46 0 78.5 -35t32.5 -82t-33.5 -81.5t-79.5 -34.5q-43 0 -75.5 34.5t-32.5 81.5zM1255 0v989h162v-989h-162z" />
<glyph unicode="&#xfb04;" horiz-adv-x="1562" d="M10 856v133h166v66q0 102 7.5 145.5t31.5 79.5q65 98 225 98q50 0 115 -8v-139q-49 10 -94 10q-74 0 -98.5 -27t-24.5 -110v-115h190v-133h-190v-856h-162v856h-166zM549 856v133h168v66q0 102 7.5 145.5t31.5 79.5q65 98 225 98q50 0 113 -8v-139q-49 10 -93 10 q-74 0 -98 -27t-24 -110v-115h190v-133h-190v-856h-162v856h-168zM1255 0v1366h162v-1366h-162z" />
<glyph horiz-adv-x="0" />
<glyph horiz-adv-x="682" />
<glyph unicode=" "  horiz-adv-x="512" />
<glyph unicode="&#x09;" horiz-adv-x="512" />
<glyph unicode="&#xa0;" horiz-adv-x="512" />
<glyph unicode="!" horiz-adv-x="583" d="M201 106q0 47 33 82t77 35q46 0 78.5 -35t32.5 -82t-33.5 -81.5t-79.5 -34.5q-43 0 -75.5 34.5t-32.5 81.5zM221 946v420h180v-420l-47 -606h-88z" />
<glyph unicode="&#x22;" horiz-adv-x="669" d="M92 1366h133l-26 -549h-80zM442 1366h133l-28 -549h-78z" />
<glyph unicode="#" horiz-adv-x="1134" d="M47 416v123h199l61 307h-176v123h201l78 397h135l-80 -397h315l80 397h131l-80 -397h176v-123h-198l-62 -307h177v-123h-203l-82 -416h-131l82 416h-316l-84 -416h-131l82 416h-174zM379 539h317l60 307h-316z" />
<glyph unicode="$" d="M45 438h170q3 -288 277 -329v516q-113 23 -175.5 46.5t-109.5 59.5q-127 93 -127 275q0 159 98 260q57 60 128.5 89t185.5 38v151h102v-151q181 -9 296.5 -125.5t110.5 -284.5h-165q-3 121 -69.5 197.5t-172.5 79.5v-494q249 -59 349.5 -147.5t100.5 -251.5 q0 -156 -100 -256q-65 -66 -144 -97.5t-206 -40.5v-163h-102v163q-221 22 -326.5 131.5t-120.5 333.5zM250 1012q0 -92 52 -140.5t190 -83.5v472q-119 -8 -180.5 -71t-61.5 -177zM594 104q86 9 135.5 30t85.5 63q57 63 57 157q0 95 -61.5 150t-216.5 96v-496z" />
<glyph unicode="%" horiz-adv-x="1597" d="M68 999q0 177 81 273t232 96q146 0 225.5 -96.5t79.5 -274.5q0 -173 -81 -266.5t-232 -93.5q-148 0 -226.5 93.5t-78.5 268.5zM211 999q0 -124 43 -191t123 -67t123 66.5t43 189.5q0 127 -43 197t-121 70q-79 0 -123.5 -70t-44.5 -195zM330 -41l792 1423h148l-789 -1423 h-151zM911 336q0 175 81 272t229 97q149 0 229 -96t80 -271q0 -174 -81 -269.5t-230 -95.5q-148 0 -228 95t-80 268zM1055 342q0 -262 166 -262q78 0 121.5 67.5t43.5 188.5q0 123 -43.5 192.5t-121.5 69.5t-122 -67.5t-44 -188.5z" />
<glyph unicode="&#x26;" horiz-adv-x="1280" d="M82 356q0 182 154 306q87 72 165 106q-149 176 -149 317q0 127 88.5 208t228.5 81q139 0 226.5 -79t87.5 -205q0 -218 -250 -355l248 -301q16 41 29 103.5t16 109.5h155q-3 -82 -32.5 -188t-61.5 -152l266 -307h-213l-145 172q-20 -38 -90 -98q-121 -103 -307 -103 q-187 0 -301.5 106t-114.5 279zM252 362q0 -104 76.5 -177.5t185.5 -73.5q86 0 154.5 40.5t136.5 131.5l-316 379l-10 -7q-124 -70 -175.5 -137t-51.5 -156zM408 1092q0 -68 61 -152q1 -1 76 -100q93 56 136.5 113t43.5 124q0 70 -45 117t-113 47q-67 0 -113 -43t-46 -106z " />
<glyph unicode="'" horiz-adv-x="319" d="M92 1366h133l-26 -549h-80z" />
<glyph unicode="(" horiz-adv-x="600" d="M82 481q0 236 77.5 465.5t221.5 419.5h125q-123 -189 -188.5 -417t-65.5 -466q0 -228 65 -451t189 -417h-125l-10 14q-105 170 -143 244t-74 184q-72 210 -72 424z" />
<glyph unicode=")" horiz-adv-x="600" d="M96 -385q123 191 188.5 418t65.5 465q0 467 -254 868h125l8 -14q104 -166 143 -241t77 -185q71 -207 71 -426q0 -236 -77.5 -465.5t-221.5 -419.5h-125z" />
<glyph unicode="*" d="M254 1133l33 92l205 -76v217h104v-217l203 76l39 -92l-209 -74l127 -172l-80 -60l-133 183l-125 -183l-86 60l125 172z" />
<glyph unicode="+" d="M102 606v129h379v377h129v-377h379v-129h-379v-381h-129v381h-379z" />
<glyph unicode="," horiz-adv-x="509" d="M133 106q0 57 34.5 95.5t86.5 38.5q63 0 99 -51t36 -140q0 -141 -74 -231q-31 -35 -64.5 -53.5t-90.5 -30.5v98q54 10 89.5 56.5t33.5 105.5q-12 -4 -23 -4h-6q-47 0 -84 35t-37 81z" />
<glyph unicode="-" horiz-adv-x="464" d="M0 428v164h465v-164h-465z" />
<glyph unicode="." horiz-adv-x="509" d="M145 117q0 47 33.5 81.5t77.5 34.5q46 0 78.5 -34.5t32.5 -81.5t-33.5 -82t-79.5 -35q-43 0 -76 35t-33 82z" />
<glyph unicode="/" horiz-adv-x="827" d="M-82 -385l703 1751h133l-699 -1751h-137z" />
<glyph unicode="0" d="M92 662q0 177 15 289t49 192q108 246 395 246q135 0 233.5 -64t149.5 -184q35 -83 50 -195.5t15 -288.5q0 -287 -65 -438q-103 -248 -383 -248q-292 0 -395 246q-64 155 -64 445zM262 666q0 -241 39 -359q28 -92 92.5 -142t155.5 -50q88 0 151 50t91 142q38 121 38 363 q0 256 -38 385q-29 92 -91.5 141t-150.5 49q-108 0 -169.5 -55.5t-89.5 -180t-28 -343.5z" />
<glyph unicode="1" d="M213 1010v127q178 -1 269 58.5t126 199.5h127v-1395h-178v1010h-100h-97h-102h-45z" />
<glyph unicode="2" d="M104 0q11 198 98 324t306 258q192 121 246 184q77 92 77 211t-72.5 192.5t-189.5 73.5q-252 0 -264 -352h-164q-2 16 -2 35q0 209 120.5 336t318.5 127q193 0 308 -111t115 -297q0 -180 -120 -309q-45 -49 -105.5 -93.5t-179.5 -117.5q-156 -94 -218.5 -158.5 t-84.5 -155.5q21 3 67 3h631v-150h-887z" />
<glyph unicode="3" d="M82 406v26h162q4 -151 82 -234t213 -83q129 0 212 77.5t83 198.5q0 125 -84 197q-44 38 -95.5 53.5t-130.5 15.5q-39 0 -82 -6v140q41 -3 58 -3q127 0 200.5 62t73.5 168q0 101 -65.5 163t-171.5 62q-123 0 -193 -79.5t-74 -225.5h-157q4 217 116.5 334t315.5 117 q180 0 289.5 -99.5t109.5 -263.5q0 -98 -49.5 -174.5t-138.5 -114.5q118 -29 183 -115t65 -214q0 -196 -129 -316.5t-340 -120.5q-204 0 -328.5 119.5t-124.5 315.5z" />
<glyph unicode="4" d="M72 338v154l620 903h131v-920h183v-137h-183v-338h-153v338h-598zM205 475h78h82h305v397q0 170 2 289q-121 -195 -154 -241l-176 -256q-14 -21 -137 -189z" />
<glyph unicode="5" d="M86 373h166q9 -113 85.5 -183.5t190.5 -70.5q128 0 213.5 92.5t85.5 230.5q0 146 -83.5 236t-217.5 90q-170 0 -262 -135l-141 8l129 725h672v-149h-551l-49 -256q-11 -63 -33 -158q98 110 274 110q192 0 312 -126t120 -330q0 -214 -132 -349t-339 -135 q-194 0 -314 109.5t-126 290.5z" />
<glyph unicode="6" d="M94 664q0 350 127 537.5t365 187.5q172 0 274.5 -95.5t114.5 -267.5h-164q-35 217 -233 217q-101 0 -168.5 -58t-108.5 -181q-20 -55 -28.5 -112t-16.5 -183q109 180 338 180q188 0 303 -121t115 -319q0 -211 -124.5 -344.5t-320.5 -133.5q-124 0 -224 57t-157 160 q-92 165 -92 476zM287 438q0 -143 78 -233t202 -90q122 0 198.5 88t76.5 227q0 142 -75 228.5t-198 86.5q-129 0 -205.5 -83.5t-76.5 -223.5z" />
<glyph unicode="7" d="M129 1204v162h879v-147q-9 -9 -13 -15l-51 -61q-191 -232 -309.5 -528t-147.5 -615h-180q23 310 165.5 630.5t369.5 575.5q-66 0 -76 -2h-92h-545z" />
<glyph unicode="8" d="M90 391q0 126 65 220.5t175 129.5q-89 37 -139 113.5t-50 177.5q0 157 114 257t292 100q177 0 289 -97.5t112 -251.5q0 -210 -186 -299q239 -84 239 -335q0 -201 -124 -318t-336 -117q-204 0 -327.5 115t-123.5 305zM260 393q0 -121 80 -199.5t205 -78.5q128 0 207 77 t79 201q0 122 -79.5 198.5t-206.5 76.5q-126 0 -205.5 -76.5t-79.5 -198.5zM311 1024q0 -99 64.5 -160t169.5 -61q106 0 169.5 60.5t63.5 160.5q0 101 -62.5 161t-168.5 60t-171 -60.5t-65 -160.5z" />
<glyph unicode="9" d="M84 920q0 207 124 338t322 131q289 0 404 -267q63 -148 63 -413q0 -352 -125 -545t-354 -193q-173 0 -283.5 100.5t-119.5 264.5h161q13 -105 78 -163t168 -58q146 0 225.5 141.5t81.5 402.5q-40 -63 -69 -90q-109 -98 -262 -98q-184 0 -299 124.5t-115 324.5zM254 922 q0 -140 73.5 -224t194.5 -84q126 0 202.5 84t76.5 222q0 144 -76.5 234.5t-196.5 90.5q-124 0 -199 -88.5t-75 -234.5z" />
<glyph unicode=":" horiz-adv-x="544" d="M178 117q0 47 33.5 81.5t77.5 34.5q46 0 78 -34.5t32 -81.5t-33 -82t-79 -35q-43 0 -76 35t-33 82zM178 893q0 47 33.5 82t77.5 35q45 0 77.5 -34.5t32.5 -82.5q0 -47 -33 -82t-79 -35q-43 0 -76 35t-33 82z" />
<glyph unicode=";" horiz-adv-x="544" d="M168 109q0 55 35 93t86 38q63 0 99 -51t36 -140q0 -139 -74 -229q-31 -37 -63.5 -54.5t-91.5 -29.5v98q54 10 89 56.5t33 103.5q-6 -2 -22 -2h-6q-47 0 -84 35.5t-37 81.5zM178 897q0 47 33.5 82t77.5 35q45 0 77.5 -34.5t32.5 -82.5q0 -47 -33 -82t-79 -35q-43 0 -76 35 t-33 82z" />
<glyph unicode="&#x3c;" horiz-adv-x="1024" d="M68 610v154l886 424v-178l-698 -324l698 -324v-176z" />
<glyph unicode="=" d="M102 451v129h887v-129h-887zM102 758v129h887v-129h-887z" />
<glyph unicode="&#x3e;" horiz-adv-x="1024" d="M70 186v176l698 324l-698 326v176l886 -426v-152z" />
<glyph unicode="?" horiz-adv-x="1021" d="M102 944q5 98 19.5 157t48.5 111q57 89 151.5 137t213.5 48q184 0 294.5 -101t110.5 -268q0 -132 -72 -229q-21 -31 -40.5 -52t-110.5 -110q-70 -64 -91.5 -120.5t-21.5 -178.5h-160q2 62 4.5 99t12 76.5t21 64t38 60.5t56 67t81.5 83q60 60 84.5 111.5t24.5 114.5 q0 107 -64 171t-170 64q-126 0 -192.5 -75.5t-77.5 -229.5h-160zM412 106q0 47 33 82t77 35q46 0 78.5 -35t32.5 -82t-33.5 -81.5t-79.5 -34.5q-43 0 -75.5 34.5t-32.5 81.5z" />
<glyph unicode="@" horiz-adv-x="1824" d="M115 590q0 162 63.5 310t170 255t254.5 170.5t310 63.5q160 0 307.5 -63.5t255 -169t172 -251.5t64.5 -303q0 -202 -107 -331.5t-274 -129.5q-193 0 -205 138h-2q-67 -81 -137.5 -114.5t-173.5 -33.5q-141 0 -220 67.5t-79 188.5q0 135 96.5 196t354.5 87q83 9 112 32 t29 80q0 150 -193 150q-197 0 -215 -174h-151q8 77 30.5 125t69.5 88q96 80 277 80q333 0 333 -273v-452q0 -70 70 -70q107 0 176.5 94t69.5 240q0 137 -52 260.5t-141 212.5t-211.5 141.5t-257.5 52.5q-133 0 -255 -53t-210.5 -142.5t-141 -213t-52.5 -258.5 q0 -137 52.5 -261.5t141 -215t210.5 -144t255 -53.5q170 0 346 72l41 -111q-194 -86 -387 -86q-162 0 -309.5 63.5t-254 170.5t-169.5 255t-63 310zM668 397q0 -71 45 -109t129 -38q113 0 187.5 64t74.5 161v133q-23 -20 -42.5 -26t-111.5 -19q-157 -22 -219.5 -58.5 t-62.5 -107.5z" />
<glyph unicode="A" horiz-adv-x="1296" d="M12 0l537 1370h203l532 -1370h-199l-153 420h-574l-155 -420h-191zM412 565h467l-136 363q-72 193 -96 276q-6 -17 -41 -114q-20 -45 -57 -154z" />
<glyph unicode="B" horiz-adv-x="1323" d="M158 0v1366h549q111 0 174.5 -10t115.5 -35q85 -43 134 -123t49 -174q0 -100 -53.5 -178t-147.5 -113q76 -21 119 -49q143 -96 143 -283q0 -118 -52 -208.5t-149 -143.5q-95 -49 -247 -49h-635zM338 158h360q106 0 160.5 7t89.5 25q54 26 82.5 79t28.5 124 q0 166 -148 223q-59 23 -243 23h-330v-481zM338 784h326q132 0 196 19q63 19 101 71.5t38 122.5q0 71 -32.5 122t-92.5 71q-48 18 -194 18h-342v-424z" />
<glyph unicode="C" horiz-adv-x="1384" d="M90 680q0 322 186 526q173 191 461 191q281 0 443 -174q111 -120 123 -267h-181q-31 134 -134 210.5t-255 76.5q-243 0 -366 -199q-95 -155 -95 -362q0 -258 124.5 -408.5t336.5 -150.5q173 0 276.5 100.5t125.5 290.5h180q-22 -255 -179.5 -400t-412.5 -145 q-292 0 -462.5 192t-170.5 519z" />
<glyph unicode="D" horiz-adv-x="1372" d="M158 0v1366h489q155 0 253.5 -30.5t180.5 -104.5q201 -180 201 -520q0 -364 -192 -559q-85 -86 -176 -119t-246 -33h-510zM338 158h295q139 0 211 22.5t127 85.5q129 144 129 439q0 249 -113 376t-336 127h-313v-1050z" />
<glyph unicode="E" horiz-adv-x="1196" d="M158 0v1366h946v-158h-766v-432h715v-145h-715v-473h776v-158h-956z" />
<glyph unicode="F" horiz-adv-x="1097" d="M158 0v1366h897v-158h-717v-432h631v-145h-631v-631h-180z" />
<glyph unicode="G" horiz-adv-x="1468" d="M90 670q0 215 83 380t234 256t347 91q238 0 394.5 -123.5t176.5 -327.5h-176q-20 135 -127.5 216t-267.5 81q-221 0 -351.5 -153t-130.5 -414q0 -254 130.5 -403.5t351.5 -149.5q127 0 226 57t150 160q47 94 50 235h-437v146h598v-721h-114l-27 104l-10 35q-1 1 -4 12 t-6 19q-85 -103 -191.5 -152t-247.5 -49q-192 0 -340.5 87.5t-229.5 247t-81 366.5z" />
<glyph unicode="H" horiz-adv-x="1394" d="M158 0v1366h180v-569h721v569h180v-1366h-180v639h-721v-639h-180z" />
<glyph unicode="I" horiz-adv-x="493" d="M158 0v1366h180v-1366h-180z" />
<glyph unicode="J" horiz-adv-x="960" d="M23 399q0 29 2 52h174v-50q0 -136 39 -194q53 -84 190 -84q130 0 178 82q37 59 37 233v928h180v-926q0 -126 -10.5 -187.5t-40.5 -115.5q-95 -168 -342 -168q-134 0 -227.5 48t-136.5 139q-43 85 -43 243z" />
<glyph unicode="K" horiz-adv-x="1273" d="M158 0v1366h180v-539v-71v-70l45 45l45 45l602 590h238l-578 -549l600 -817h-229l-496 694l-227 -215v-479h-180z" />
<glyph unicode="L" horiz-adv-x="1101" d="M158 0v1366h180v-1208h725v-158h-905z" />
<glyph unicode="M" horiz-adv-x="1679" d="M158 0v1366h245l322 -834q76 -200 123 -346q36 114 119 344l307 836h250v-1366h-174l2 612q5 378 22 609l-18 -56l-64 -178l-41 -113l-325 -874h-158l-340 864q-74 187 -119 342q19 -308 21 -588l2 -618h-174z" />
<glyph unicode="N" horiz-adv-x="1406" d="M158 0v1366h194l510 -778q162 -244 228 -373q-11 237 -11 467l-2 684h172v-1366h-198l-488 737q-135 208 -176 276t-70 130q11 -143 13 -453v-690h-172z" />
<glyph unicode="O" horiz-adv-x="1486" d="M90 682q0 325 181 520t483 195q188 0 334.5 -89.5t227.5 -251.5t81 -370q0 -324 -180 -520.5t-476 -196.5q-293 0 -472 196t-179 517zM272 686q0 -256 129 -409.5t344 -153.5q212 0 340.5 153.5t128.5 407.5q0 249 -128.5 404t-335.5 155q-220 0 -349 -150.5t-129 -406.5 z" />
<glyph unicode="P" horiz-adv-x="1234" d="M158 0v1366h542q120 0 189.5 -16.5t128.5 -57.5q158 -112 158 -319q0 -233 -160 -342q-61 -40 -125.5 -55t-181.5 -15h-371v-561h-180zM338 707h348q149 0 215 49q43 33 67.5 87t24.5 120q0 142 -106 206q-38 23 -85.5 31t-142.5 8h-321v-501z" />
<glyph unicode="Q" horiz-adv-x="1464" d="M90 684q0 318 180.5 515.5t470.5 197.5q293 0 474.5 -196.5t181.5 -514.5q0 -168 -53 -310.5t-150 -234.5l180 -143l-92 -113l-209 166q-149 -82 -332 -82q-192 0 -340.5 89.5t-229.5 252t-81 373.5zM272 688q0 -258 129.5 -411.5t346.5 -153.5q100 0 186 37l-150 121 l95 112l180 -149q155 162 155 442q0 252 -129.5 404.5t-343.5 152.5q-211 0 -340 -152.5t-129 -402.5z" />
<glyph unicode="R" horiz-adv-x="1368" d="M154 0v1366h624q94 0 155.5 -13.5t113.5 -45.5q165 -103 165 -314q0 -125 -60.5 -211t-174.5 -123q52 -9 86.5 -32t64.5 -66q32 -55 40.5 -96t25.5 -229q14 -169 53 -216l17 -20h-205q-23 38 -30 80.5t-13 187.5q-7 102 -23.5 162t-54.5 98t-94.5 51t-151.5 13h-358v-592 h-180zM334 737h340q103 0 160 9t96 32q100 59 100 199q0 76 -33.5 131t-95.5 78q-64 22 -180 22h-387v-471z" />
<glyph unicode="S" horiz-adv-x="1230" d="M51 451h174q4 -161 107 -244.5t297 -83.5q158 0 247 65.5t89 182.5q0 68 -33 111.5t-111 78.5q-38 19 -79.5 30.5t-170.5 41.5q-185 44 -233.5 59t-97.5 45q-142 85 -142 269q0 181 129.5 286t352.5 105q241 0 373.5 -111.5t140.5 -320.5h-174q-17 145 -98.5 211.5 t-241.5 66.5q-146 0 -227 -60t-81 -167q0 -96 72 -139q47 -27 104.5 -45t194.5 -46q143 -32 216 -56t124 -58q164 -102 164 -289q0 -190 -152 -311q-135 -103 -379 -103q-267 0 -415 126.5t-150 355.5z" />
<glyph unicode="T" horiz-adv-x="1157" d="M31 1208v158h1097v-158h-458v-1208h-181v1208h-458z" />
<glyph unicode="U" horiz-adv-x="1372" d="M137 571v795h180v-799q0 -130 9.5 -187.5t40.5 -111.5q80 -145 327 -145q237 0 312 135q30 53 40.5 117t10.5 192v799h180v-797q0 -169 -18.5 -250.5t-75.5 -160.5q-132 -189 -451 -189q-176 0 -292 52t-185 161q-44 69 -61 153.5t-17 235.5z" />
<glyph unicode="V" horiz-adv-x="1206" d="M12 1366h201l287 -860l39 -123l28 -94q23 -78 37 -137q24 92 109 352l288 862h193l-489 -1366h-205z" />
<glyph unicode="W" horiz-adv-x="1775" d="M20 1366h187l203 -838q49 -208 71 -342q13 95 80 346l227 834h199l234 -852q52 -204 73 -328q13 88 70 324l209 856h180l-362 -1366h-191l-231 836q-69 271 -82 358q-44 -186 -90 -348l-230 -846h-192z" />
<glyph unicode="X" horiz-adv-x="1185" d="M4 0l481 705l-450 661h215l233 -358q66 -104 80 -129q19 -32 29 -54q70 117 117 183l241 358h203l-453 -661l480 -705h-219l-281 424q-68 105 -88 147q-25 -40 -94 -143l-287 -428h-207z" />
<glyph unicode="Y" horiz-adv-x="1198" d="M-20 1366h217l321 -510q8 -12 39 -63q34 -53 49 -84q19 33 86 143l320 514h207l-527 -807v-559h-180v559z" />
<glyph unicode="Z" horiz-adv-x="1193" d="M53 0v154l785 972q4 4 16 18.5t27.5 32t31.5 35.5q-92 -4 -241 -4h-551v158h1001v-149l-776 -965q-11 -11 -84 -98q178 4 252 4h629v-158h-1090z" />
<glyph unicode="[" horiz-adv-x="600" d="M145 -385v1751h363v-129h-207v-1493h207v-129h-363z" />
<glyph unicode="\" horiz-adv-x="827" d="M72 1366h133l702 -1751h-137z" />
<glyph unicode="]" horiz-adv-x="600" d="M94 -256h207v1493h-207v129h363v-1751h-363v129z" />
<glyph unicode="^" horiz-adv-x="1024" d="M59 760l351 610h202l351 -610h-166l-287 489l-285 -489h-166z" />
<glyph unicode="_" horiz-adv-x="1024" d="M0 -143h1024v-115h-1024v115z" />
<glyph unicode="`" horiz-adv-x="1024" d="M258 1399h201l141 -273h-113z" />
<glyph unicode="a" horiz-adv-x="1036" d="M63 254q0 79 32 142t91 98q52 29 133.5 49.5t229.5 42.5q107 13 144.5 39t37.5 86q0 82 -53.5 119.5t-169.5 37.5q-121 0 -176.5 -42.5t-67.5 -143.5h-162q8 90 31.5 143t77.5 97q106 90 315 90q367 0 367 -264v-572q0 -55 49 -55q31 0 51 10v-127q-47 -27 -119 -27 q-68 0 -101 37.5t-36 116.5q-130 -154 -344 -154q-155 0 -242.5 73.5t-87.5 203.5zM236 268q0 -72 49.5 -109.5t144.5 -37.5q126 0 212.5 63.5t86.5 157.5v168l-10 -4l-17 -10q-40 -19 -88 -25l-168 -25q-210 -30 -210 -178z" />
<glyph unicode="b" horiz-adv-x="1159" d="M143 0v1366h162v-514q104 166 326 166q202 0 324 -141.5t122 -376.5q0 -242 -123.5 -385.5t-332.5 -143.5q-236 0 -326 172v-143h-152zM301 492q0 -178 82 -280.5t225 -102.5q137 0 220 106t83 281t-82 280t-217 105q-146 0 -228.5 -103t-82.5 -286z" />
<glyph unicode="c" horiz-adv-x="1040" d="M82 481q0 247 128.5 392t346.5 145q181 0 290.5 -91t131.5 -259h-170q-20 104 -85.5 159.5t-166.5 55.5q-143 0 -226 -104.5t-83 -282.5q0 -181 79.5 -284t219.5 -103q110 0 180.5 65.5t89.5 185.5h168q-26 -185 -140 -287t-294 -102q-217 0 -343 137.5t-126 372.5z" />
<glyph unicode="d" horiz-adv-x="1159" d="M82 496q0 243 123 381q60 68 143.5 104.5t177.5 36.5q114 0 199 -43t129 -123v514h162v-1366h-154v145q-38 -82 -123.5 -128t-199.5 -46q-211 0 -334 141.5t-123 383.5zM248 500q0 -178 83.5 -284.5t223.5 -106.5q141 0 222 101.5t81 281.5q0 200 -92 299q-84 90 -211 90 q-143 0 -225 -102t-82 -279z" />
<glyph unicode="e" horiz-adv-x="1064" d="M82 489q0 232 130 380.5t333 148.5q135 0 242 -68.5t159 -189.5q47 -108 47 -284v-21h-743q9 -346 311 -346q103 0 165 49t97 159h160q-79 -346 -432 -346q-218 0 -343.5 139t-125.5 379zM252 588h573q-11 138 -86 216.5t-198 78.5t-196.5 -75t-92.5 -220z" />
<glyph unicode="f" horiz-adv-x="573" d="M10 856v133h166v66q0 102 7.5 145.5t31.5 79.5q65 98 225 98q50 0 115 -8v-139q-49 10 -94 10q-74 0 -98.5 -27t-24.5 -110v-115h190v-133h-190v-856h-162v856h-166z" />
<glyph unicode="g" horiz-adv-x="1132" d="M80 492q0 235 122.5 380.5t319.5 145.5q106 0 181.5 -41.5t134.5 -130.5v143h151v-883q0 -123 -14.5 -195.5t-52.5 -133.5q-52 -87 -153.5 -133.5t-238.5 -46.5q-186 0 -292 74.5t-125 215.5h168q29 -163 254 -163q154 0 222 76.5t70 248.5l2 119q-57 -96 -131 -138 t-186 -42q-195 0 -313.5 138.5t-118.5 365.5zM246 508q0 -179 77 -281t212 -102q132 0 211 105t79 282q0 170 -76.5 269.5t-207.5 99.5q-152 0 -228 -115q-31 -46 -49 -116t-18 -142z" />
<glyph unicode="h" horiz-adv-x="1101" d="M143 0v1366h162v-401q0 -29 -2 -54l-2 -63q114 170 332 170q216 0 295 -148q37 -73 37 -227v-643h-162v623q0 132 -33 178q-55 80 -184 80q-86 0 -152 -40.5t-98 -111.5q-19 -45 -25 -95.5t-6 -166.5v-467h-162z" />
<glyph unicode="i" horiz-adv-x="448" d="M115 1257q0 47 33 82t77 35q46 0 78.5 -35t32.5 -82t-33.5 -81.5t-79.5 -34.5q-43 0 -75.5 34.5t-32.5 81.5zM143 0v989h162v-989h-162z" />
<glyph unicode="j" horiz-adv-x="448" d="M-18 -254q38 -6 57 -6q49 0 70.5 14t27.5 49q6 37 6 170v1016h162v-1014q0 -142 -6 -190t-29 -86q-51 -96 -215 -96q-26 0 -73 6v137zM115 1257q0 47 33 82t77 35q46 0 78.5 -35t32.5 -82t-33.5 -81.5t-79.5 -34.5q-43 0 -75.5 34.5t-32.5 81.5z" />
<glyph unicode="k" horiz-adv-x="1019" d="M143 0v1366h162v-672v-76v-65q45 47 68 68l389 368h217l-393 -358l422 -631h-207l-340 516l-156 -141v-375h-162z" />
<glyph unicode="l" horiz-adv-x="448" d="M143 0v1366h162v-1366h-162z" />
<glyph unicode="m" horiz-adv-x="1669" d="M143 0v989h152v-143q69 92 144.5 132t178.5 40q105 0 170.5 -42t102.5 -132q123 174 332 174q86 0 155 -32.5t107 -90.5q47 -71 47 -213v-682h-162v623q0 117 -18 161q-20 46 -68 71.5t-113 25.5q-79 0 -139.5 -38.5t-91.5 -107.5q-13 -30 -17.5 -73.5t-4.5 -137.5v-524 h-162v635q0 143 -41 190q-49 58 -146 58q-78 0 -141 -39.5t-94 -108.5q-29 -68 -29 -211v-524h-162z" />
<glyph unicode="n" horiz-adv-x="1101" d="M143 0v989h152v-153q64 95 146 138.5t198 43.5q98 0 173 -38t112 -106q23 -43 32 -93.5t9 -141.5v-639h-162v582q0 97 -7 142t-26 75q-56 82 -182 82q-84 0 -150.5 -40.5t-97.5 -109.5q-20 -42 -27.5 -97t-7.5 -155v-479h-162z" />
<glyph unicode="o" horiz-adv-x="1118" d="M82 494q0 243 131 383.5t356 140.5q215 0 343 -141.5t128 -380.5q0 -246 -126 -385.5t-347 -139.5q-223 0 -354 142t-131 381zM248 494q0 -180 84.5 -282.5t232.5 -102.5q145 0 227 103.5t82 285.5q0 175 -83.5 279t-223.5 104q-148 0 -233.5 -103.5t-85.5 -283.5z" />
<glyph unicode="p" horiz-adv-x="1159" d="M143 -385v1374h152v-141q59 88 138.5 129t191.5 41q205 0 329.5 -145t124.5 -384q0 -233 -122 -375.5t-322 -142.5q-217 0 -330 164v-520h-162zM299 496q0 -180 83 -283.5t228 -103.5q138 0 220.5 103.5t82.5 276.5q0 175 -84 283.5t-219 108.5q-146 0 -228.5 -102 t-82.5 -283z" />
<glyph unicode="q" horiz-adv-x="1159" d="M84 487q0 246 123 388.5t334 142.5q116 0 195 -42t130 -130v143h152v-1374h-162v522q-60 -87 -139 -126.5t-193 -39.5q-201 0 -320.5 140t-119.5 376zM250 489q0 -174 82.5 -277t220.5 -103q145 0 227 104t82 287q0 179 -86 282q-40 46 -98 72.5t-121 26.5 q-141 0 -224 -106t-83 -286z" />
<glyph unicode="r" horiz-adv-x="663" d="M143 0v989h152v-207q49 120 144 180q88 56 207 56h20v-170q-46 4 -52 4q-129 0 -215 -86q-55 -57 -74.5 -135.5t-19.5 -245.5v-385h-162z" />
<glyph unicode="s" horiz-adv-x="950" d="M45 313h160q12 -104 77 -154t189 -50q109 0 175.5 45t66.5 118q0 63 -51 97t-197 69q-152 36 -197.5 50t-85.5 36q-54 29 -84 83t-30 120q0 133 102 212t274 79q107 0 192 -31.5t134 -89.5q34 -37 50 -81t20 -114h-162q-14 93 -72 136t-170 43q-96 0 -149.5 -36.5 t-53.5 -101.5q0 -60 49 -88.5t216 -66.5q116 -26 179 -49.5t111 -57.5q43 -33 68 -83.5t25 -108.5q0 -145 -112 -231.5t-300 -86.5q-201 0 -309.5 87.5t-114.5 254.5z" />
<glyph unicode="t" horiz-adv-x="577" d="M-6 856v133h166v295h162v-295h198v-133h-198v-584q0 -98 19.5 -125.5t90.5 -27.5q35 0 88 12v-139q-63 -8 -127 -8q-157 0 -205 77q-20 30 -24 77t-4 224v494h-166z" />
<glyph unicode="u" horiz-adv-x="1105" d="M137 348v641h162v-583q0 -93 7 -140t26 -76q52 -81 182 -81q80 0 145 38t103 107q22 41 30.5 97.5t8.5 158.5v479h162v-989h-152v154q-56 -88 -144 -135.5t-200 -47.5q-178 0 -264 109q-35 43 -50.5 105t-15.5 163z" />
<glyph unicode="v" horiz-adv-x="905" d="M2 989h180l178 -502q60 -170 105 -325q7 30 37 131q7 28 12 43l55 164l166 489h170l-360 -989h-174z" />
<glyph unicode="w" horiz-adv-x="1406" d="M10 989h180l138 -473q36 -123 88 -336q56 257 78 340l122 469h181l141 -526q19 -66 66 -283q43 192 69 281l154 528h172l-316 -989h-174l-147 541q-27 98 -60 245q-28 -133 -57 -245l-141 -541h-176z" />
<glyph unicode="x" horiz-adv-x="946" d="M-6 0l371 520l-345 469h209l158 -223q21 -30 80 -123q71 104 86 123l162 223h196l-342 -454l383 -535h-209l-213 311q-7 10 -14 20.5t-10.5 15.5t-5.5 7q-2 4 -14 23.5t-19 32.5q-27 -43 -31 -50l-35 -49l-208 -311h-199z" />
<glyph unicode="y" horiz-adv-x="927" d="M2 989h182l217 -579q32 -86 76 -230q49 153 80 244l199 565h172l-365 -956q-68 -179 -90 -231.5t-45 -88.5q-69 -112 -213 -112q-45 0 -94 12l-25 4v147q73 -22 105 -22q43 0 68.5 19.5t51 70.5t72.5 174z" />
<glyph unicode="z" horiz-adv-x="903" d="M47 0v121l518 645q41 45 84 90h-94h-469v133h772v-106l-530 -664q-6 -6 -18 -20.5t-17 -20.5l-41 -45h59h64h508v-133h-836z" />
<glyph unicode="{" horiz-adv-x="600" d="M27 424v137q65 20 90.5 61.5t25.5 125.5v339q0 147 66 213q48 40 95 51.5t179 14.5h13v-129q-114 -2 -156 -48t-41 -169v-297q-3 -103 -27.5 -153t-85.5 -81q62 -32 87.5 -85.5t25.5 -151.5v-291q0 -127 40.5 -172t156.5 -45v-129h-15q-137 3 -184 15t-90 55 q-34 37 -49 91.5t-15 143.5v309q0 90 -25 132.5t-91 62.5z" />
<glyph unicode="|" horiz-adv-x="1024" d="M424 -342v1708h178v-1708h-178z" />
<glyph unicode="}" horiz-adv-x="600" d="M104 -256q113 2 154.5 48t40.5 169v297q3 103 27.5 153t85.5 81q-62 32 -87.5 85.5t-25.5 151.5v291q0 127 -40.5 172t-154.5 45v129h15q136 -3 182.5 -15t89.5 -55q34 -37 49 -91.5t15 -143.5v-309q0 -89 26 -132t92 -63v-137q-66 -20 -92 -61t-26 -126v-339 q-3 -162 -75.5 -222t-262.5 -57h-13v129z" />
<glyph unicode="~" horiz-adv-x="1366" d="M193 1255q105 238 280 238q77 0 238 -80q85 -43 118.5 -55t67.5 -12q54 0 97 35t87 116l93 -74q-103 -235 -297 -235q-40 0 -82 15.5t-162 76.5q-109 53 -166 53q-53 0 -94.5 -35t-85.5 -116z" />
<glyph unicode="&#xa1;" horiz-adv-x="583" d="M160 903q0 47 33 82t77 35q46 0 78.5 -35t32.5 -82t-33.5 -82t-79.5 -35q-43 0 -75.5 35t-32.5 82zM180 43l47 608h88l45 -608v-418h-180v418z" />
<glyph unicode="&#xa2;" d="M109 692q0 223 109.5 364t299.5 161v167h103v-167q158 -3 264.5 -100t118.5 -251h-173q-10 88 -68.5 146.5t-141.5 66.5v-768q83 5 145.5 74.5t75.5 173.5h162q-14 -161 -124 -271t-259 -112v-207h-103v207q-187 9 -298 149t-111 367zM279 698q0 -164 63 -266t176 -119 v762q-110 -15 -174.5 -117.5t-64.5 -259.5z" />
<glyph unicode="&#xa3;" d="M111 604v119h120q-54 91 -73 149t-19 132q0 170 123 277.5t318 107.5q212 0 332 -119t118 -326h-166q-7 146 -80.5 222.5t-205.5 76.5q-117 0 -193 -66t-76 -169q0 -90 64 -209q23 -46 33 -64l6 -12h317v-119h-262q22 -65 22 -117q0 -62 -18 -111t-63 -108 q-33 -44 -84 -90q-46 -41 -54 -49q73 35 117.5 47t101.5 12q51 0 87 -8t149 -43q37 -12 82 -12q100 0 182 70l80 -127q-44 -44 -117 -70.5t-149 -26.5q-52 0 -85 7.5t-130 41.5q-107 37 -182 37q-52 0 -91.5 -15t-109.5 -62l-88 137q112 83 161.5 164t49.5 178q0 70 -37 145 h-180z" />
<glyph unicode="&#xa4;" horiz-adv-x="1366" d="M170 1128l88 89l117 -115q142 110 311 110q86 0 156.5 -24.5t146.5 -81.5l115 111l86 -89l-113 -110q62 -78 87.5 -148.5t25.5 -162.5q0 -91 -24.5 -160.5t-84.5 -145.5l113 -112l-86 -88l-113 112q-75 -59 -148 -84.5t-165 -25.5q-90 0 -161.5 25t-147.5 85l-115 -112 l-86 88l113 112q-58 82 -81.5 150t-23.5 156q0 93 24.5 162.5t82.5 142.5zM319 711q0 -155 107.5 -263t261.5 -108q152 0 259.5 107.5t107.5 259.5q0 150 -107 258t-256 108q-155 0 -264 -105.5t-109 -256.5z" />
<glyph unicode="&#xa5;" d="M51 1366h187l315 -645l309 645h178l-297 -578h236v-116h-299l-51 -103v-116h309v-117h-309v-336h-164v336h-313v117h313v116l-53 103h-301v116h239z" />
<glyph unicode="&#xa6;" horiz-adv-x="1024" d="M424 313h178v-655h-178v655zM424 676v690h178v-690h-178z" />
<glyph unicode="&#xa7;" d="M86 594q0 101 56 177t147 99q-88 91 -88 199q0 135 97.5 219t254.5 84q164 0 258 -91t94 -251h-162q-15 205 -196 205q-81 0 -131.5 -43.5t-50.5 -112.5q0 -41 20 -74.5t66 -68.5q36 -26 241 -145q188 -110 251 -182.5t63 -178.5q0 -195 -199 -285q60 -55 83 -103.5 t23 -119.5q0 -134 -100.5 -220.5t-255.5 -86.5q-172 0 -272.5 94t-108.5 260h164q18 -217 221 -217q82 0 134.5 45t52.5 115q0 66 -59 121t-245 162q-147 84 -194 115.5t-82 70.5q-82 85 -82 213zM240 610q0 -44 18 -77.5t61 -67.5q35 -27 69 -48t171 -98q40 -23 152 -96 q65 28 101 74.5t36 103.5q0 27 -4 45.5t-21 42t-40.5 43.5t-72 53t-106.5 67t-153 89q-46 27 -72 50q-139 -62 -139 -181z" />
<glyph unicode="&#xa8;" horiz-adv-x="1024" d="M221 1249q0 47 33.5 82t77.5 35q45 0 77.5 -34.5t32.5 -82.5q0 -47 -33 -81.5t-79 -34.5q-43 0 -76 34.5t-33 81.5zM584 1249q0 47 33 82t77 35q46 0 78.5 -35t32.5 -82t-33.5 -81.5t-79.5 -34.5q-43 0 -75.5 34.5t-32.5 81.5z" />
<glyph unicode="&#xa9;" horiz-adv-x="1605" d="M90 682q0 196 96 360.5t262.5 259.5t364.5 95q141 0 271 -57t224.5 -153t151 -228.5t56.5 -276.5q0 -145 -56.5 -277t-152 -227.5t-227.5 -152t-277 -56.5t-277 56.5t-227.5 152t-152 227.5t-56.5 277zM199 682q0 -166 81 -307t220.5 -223t302.5 -82q164 0 303 82 t220 223.5t81 308.5q0 123 -47.5 236t-127.5 195.5t-190.5 131.5t-230.5 49q-126 0 -239.5 -48t-195 -129.5t-129.5 -195.5t-48 -241zM406 682q0 183 109.5 296.5t287.5 113.5q146 0 243 -73.5t107 -193.5h-127q-19 78 -77 120t-148 42q-121 0 -193.5 -83.5t-72.5 -221.5 q0 -141 71.5 -223t194.5 -82q207 0 231 221h127q-13 -155 -108.5 -240.5t-255.5 -85.5q-178 0 -283.5 111t-105.5 299z" />
<glyph unicode="&#xaa;" horiz-adv-x="794" d="M92 608v68h608v-68h-608zM137 963q0 108 109 149q32 11 57 16t115 15q54 6 73 19t19 44q0 86 -119 86q-65 0 -95 -24t-36 -82h-102q3 94 65 144t174 50q118 0 181 -53q22 -22 30 -50.5t8 -84.5q0 -97 -4 -215v-31q0 -28 6 -38.5t23 -10.5q13 0 31 10v-84q-40 -12 -70 -12 q-71 0 -86 70q-76 -76 -194 -76q-85 0 -135 43t-50 115zM244 971q0 -40 27.5 -62t74.5 -22q45 0 85 18t63 49q16 21 16 70v66q-57 -19 -115 -25q-84 -9 -117.5 -30t-33.5 -64z" />
<glyph unicode="&#xab;" horiz-adv-x="888" d="M96 430v164l297 229v-164l-196 -145l196 -152v-167zM475 428v166l291 229v-166l-191 -145l191 -152v-161z" />
<glyph unicode="&#xac;" horiz-adv-x="1024" d="M68 416v155h886v-571h-172v416h-714z" />
<glyph unicode="&#xad;" horiz-adv-x="464" d="M0 428v164h465v-164h-465z" />
<glyph unicode="&#xae;" horiz-adv-x="1077" d="M119 977q0 180 121 302t301 122q179 0 299.5 -122.5t120.5 -305.5q0 -181 -120.5 -303.5t-299.5 -122.5q-181 0 -301.5 122.5t-120.5 307.5zM203 973q0 -153 94.5 -251.5t241.5 -98.5q148 0 241.5 99.5t93.5 254.5q0 151 -95 249.5t-240 98.5q-146 0 -241 -99t-95 -253z M360 733v479h236q67 0 107 -36.5t40 -98.5q0 -46 -17 -71.5t-58 -40.5q35 -12 50 -40t17 -81q2 -78 25 -111h-105q-8 34 -12 107q-3 80 -78 80h-110v-187h-95zM453 993h122q70 0 70 72q0 35 -18 51.5t-58 16.5h-116v-140z" />
<glyph unicode="&#xaf;" horiz-adv-x="1024" d="M223 1194v113h576v-113h-576z" />
<glyph unicode="&#xb0;" horiz-adv-x="788" d="M92 1065q0 125 88.5 213t214.5 88t213.5 -88.5t87.5 -216.5q0 -123 -88.5 -211t-212.5 -88q-126 0 -214.5 88.5t-88.5 214.5zM186 1065q0 -88 61.5 -149.5t147.5 -61.5q83 0 145 61t62 144q0 91 -61 153t-150 62q-83 0 -144 -62t-61 -147z" />
<glyph unicode="&#xb1;" d="M102 41v129h887v-129h-887zM102 606v129h379v377h129v-377h379v-129h-379v-366h-129v366h-379z" />
<glyph unicode="&#xb2;" horiz-adv-x="722" d="M76 545q6 122 62 198t196 154q121 70 161 115t40 110q0 66 -44.5 107t-113.5 41q-78 0 -117.5 -50.5t-44.5 -154.5h-115q0 146 73 224.5t210 78.5q123 0 197.5 -67t74.5 -177q0 -95 -54.5 -159t-209.5 -152q-98 -54 -134.5 -86.5t-55.5 -81.5h448v-100h-573z" />
<glyph unicode="&#xb3;" horiz-adv-x="722" d="M61 791v20h115q3 -89 49 -135.5t131 -46.5q78 0 128.5 42.5t50.5 108.5q0 71 -49 109.5t-140 38.5q-11 0 -57 -4v96q23 -2 43 -2q77 0 121.5 33.5t44.5 93.5q0 55 -39.5 89t-104.5 34q-75 0 -116.5 -45t-42.5 -131h-115q3 132 75.5 203t204.5 71q116 0 187 -59t71 -156 q0 -109 -104 -168q141 -53 141 -192q0 -117 -83 -189t-218 -72q-133 0 -213 71t-80 190z" />
<glyph unicode="&#xb4;" horiz-adv-x="1024" d="M422 1126l141 273h201l-229 -273h-113z" />
<glyph unicode="&#xb5;" horiz-adv-x="1024" d="M100 -340v1323h154v-553q0 -102 12.5 -151t50.5 -91q77 -86 187 -86q120 0 194 96.5t74 250.5v534h154v-983h-154v184q-43 -109 -108.5 -160t-163.5 -51q-81 0 -140 36t-106 114v-463h-154z" />
<glyph unicode="&#xb6;" d="M72 1004q0 101 43 183t118 126q95 53 267 53h485v-109h-88v-1642h-133v1642h-176v-1642h-133v1032q-64 0 -92 4.5t-72 18.5q-103 37 -161 125.5t-58 208.5z" />
<glyph unicode="&#xb7;" horiz-adv-x="509" d="M145 518q0 47 33.5 82t77.5 35q46 0 78.5 -35t32.5 -82t-33.5 -82t-79.5 -35q-43 0 -76 35t-33 82z" />
<glyph unicode="&#xb8;" horiz-adv-x="1024" d="M279 -375l34 68q73 -25 131 -25q46 0 75.5 21t29.5 55q0 32 -27 54t-67 22q-23 0 -76 -15l-31 33l121 162h80l-86 -117q43 11 65 11q74 0 120 -38.5t46 -99.5q0 -76 -64.5 -123t-170.5 -47q-86 0 -180 39z" />
<glyph unicode="&#xb9;" horiz-adv-x="722" d="M145 1130v87q115 0 170.5 33t77.5 116h94v-819h-127v583h-55h-59h-66h-35z" />
<glyph unicode="&#xba;" horiz-adv-x="794" d="M92 608v68h608v-68h-608zM121 1094q0 132 75.5 209t204.5 77q123 0 197 -78t74 -208q0 -135 -72.5 -212t-200.5 -77q-127 0 -202.5 78.5t-75.5 210.5zM227 1092q0 -92 46 -145.5t126 -53.5q77 0 121.5 54t44.5 147q0 90 -45.5 144t-120.5 54q-80 0 -126 -53.5t-46 -146.5 z" />
<glyph unicode="&#xbb;" horiz-adv-x="888" d="M123 199v161l190 146l-190 149v164l291 -231v-162zM496 195v163l194 146l-194 151v168l297 -237v-162z" />
<glyph unicode="&#xbc;" horiz-adv-x="1757" d="M145 1130v87q115 0 170.5 33t77.5 116h94v-819h-127v583h-55h-59h-66h-35zM436 0l783 1350h108l-776 -1350h-115zM1092 195v100l391 524h94v-528h117v-96h-117v-195h-111v195h-374zM1196 291h35h51h184v221q0 92 2 143q-57 -81 -84 -120l-110 -148q-38 -48 -78 -96z" />
<glyph unicode="&#xbd;" horiz-adv-x="1755" d="M145 1130v87q115 0 170.5 33t77.5 116h94v-819h-127v583h-55h-59h-66h-35zM436 0l783 1350h108l-776 -1350h-115zM1110 0q6 122 62 198t196 154q122 71 161.5 115t39.5 108q0 66 -44 107t-114 41q-154 0 -160 -205h-116q0 146 72.5 223.5t209.5 77.5q123 0 198 -66 t75 -175q0 -95 -55.5 -159t-209.5 -151q-97 -53 -133.5 -85.5t-56.5 -82.5h448v-100h-573z" />
<glyph unicode="&#xbe;" horiz-adv-x="1757" d="M61 791v20h115q3 -89 49 -135.5t131 -46.5q78 0 128.5 42.5t50.5 108.5q0 71 -49 109.5t-140 38.5q-11 0 -57 -4v96q23 -2 43 -2q77 0 121.5 33.5t44.5 93.5q0 55 -39.5 89t-104.5 34q-75 0 -116.5 -45t-42.5 -131h-115q3 132 75.5 203t204.5 71q116 0 187 -59t71 -156 q0 -109 -104 -168q141 -53 141 -192q0 -117 -83 -189t-218 -72q-133 0 -213 71t-80 190zM434 0l783 1350h110l-776 -1350h-117zM1090 195v100l391 524h94v-528h117v-96h-117v-195h-111v195h-374zM1194 291h35h51h184v221q0 92 2 143q-57 -81 -84 -120l-110 -148 q-14 -16 -78 -96z" />
<glyph unicode="&#xbf;" horiz-adv-x="1021" d="M82 -37q0 130 72 230q22 30 43 52.5t108 106.5q71 66 92 122t21 179h157q-2 -122 -16 -181.5t-53.5 -115t-140.5 -155.5q-60 -60 -84.5 -111.5t-24.5 -116.5q0 -107 63.5 -171t169.5 -64q126 0 193.5 76.5t77.5 232.5h160q-4 -98 -19 -157t-49 -113q-57 -89 -151.5 -137 t-213.5 -48q-184 0 -294.5 101t-110.5 270zM389 901q0 47 33.5 82t77.5 35q45 0 77.5 -34.5t32.5 -82.5q0 -47 -33 -82t-79 -35q-43 0 -76 35t-33 82z" />
<glyph unicode="&#xc0;" horiz-adv-x="1296" d="M12 0l537 1370h203l532 -1370h-199l-153 420h-574l-155 -420h-191zM369 1735h213l155 -260h-133zM412 565h467l-136 363q-72 193 -96 276q-6 -17 -41 -114q-20 -45 -57 -154z" />
<glyph unicode="&#xc1;" horiz-adv-x="1296" d="M12 0l537 1370h203l532 -1370h-199l-153 420h-574l-155 -420h-191zM412 565h467l-136 363q-72 193 -96 276q-6 -17 -41 -114q-20 -45 -57 -154zM559 1475l156 260h215l-238 -260h-133z" />
<glyph unicode="&#xc2;" horiz-adv-x="1296" d="M12 0l537 1370h203l532 -1370h-199l-153 420h-574l-155 -420h-191zM360 1477l199 254h203l201 -254h-185l-121 165l-129 -165h-168zM412 565h467l-136 363q-72 193 -96 276q-6 -17 -41 -114q-20 -45 -57 -154z" />
<glyph unicode="&#xc3;" horiz-adv-x="1296" d="M12 0l537 1370h203l532 -1370h-199l-153 420h-574l-155 -420h-191zM328 1493q12 101 64.5 156t135.5 55q39 0 70.5 -9.5t138.5 -52.5q27 -10 58 -10q71 0 92 86h96q-13 -102 -65 -158.5t-132 -56.5q-30 0 -62.5 9.5t-137.5 48.5q-43 16 -76 16q-34 0 -55.5 -20t-34.5 -64 h-92zM412 565h467l-136 363q-72 193 -96 276q-6 -17 -41 -114q-20 -45 -57 -154z" />
<glyph unicode="&#xc4;" horiz-adv-x="1296" d="M12 0l537 1370h203l532 -1370h-199l-153 420h-574l-155 -420h-191zM328 1593q0 47 33 82t77 35q46 0 78.5 -35t32.5 -82t-33.5 -81.5t-79.5 -34.5q-43 0 -75.5 34.5t-32.5 81.5zM412 565h467l-136 363q-72 193 -96 276q-6 -17 -41 -114q-20 -45 -57 -154zM748 1593 q0 47 33 82t77 35q46 0 78.5 -35t32.5 -82t-33.5 -81.5t-79.5 -34.5q-43 0 -75.5 34.5t-32.5 81.5z" />
<glyph unicode="&#xc5;" horiz-adv-x="1296" d="M12 0l537 1370h203l532 -1370h-199l-153 420h-574l-155 -420h-191zM412 565h467l-136 363q-72 193 -96 276q-6 -17 -41 -114q-20 -45 -57 -154zM432 1667q0 89 64.5 152t156.5 63q88 0 151.5 -64t63.5 -153q0 -90 -63.5 -153.5t-153.5 -63.5q-92 0 -155.5 63.5 t-63.5 155.5zM528 1665q0 -49 35 -84t84 -35q51 0 87 35t36 84q0 48 -36 83.5t-85 35.5q-51 0 -86 -34t-35 -85z" />
<glyph unicode="&#xc6;" horiz-adv-x="1814" d="M-6 0l696 1366h1030v-158h-671v-432h632v-145h-632v-473h684v-158h-865v401h-471l-196 -401h-207zM471 547h397v665h-75z" />
<glyph unicode="&#xc7;" horiz-adv-x="1384" d="M90 680q0 318 184 526q170 191 469 191q273 0 433 -172q112 -121 127 -269h-183q-19 99 -94 177q-104 110 -287 110q-211 0 -339 -153t-128 -404q0 -226 101 -379q63 -95 151 -139.5t211 -44.5q206 0 312 143q79 111 88 250h180q-19 -239 -174 -391t-387 -156l-64 -86 q44 8 68 8q68 0 114 -38t46 -95q0 -78 -63.5 -127t-166.5 -49q-74 0 -184 39l33 72q65 -27 135 -27q44 0 71 21.5t27 58.5q0 31 -26.5 50.5t-69.5 19.5q-28 0 -74 -13l-31 35l101 131q-108 3 -209 47t-174 121q-197 200 -197 543z" />
<glyph unicode="&#xc8;" horiz-adv-x="1196" d="M158 0v1366h946v-158h-766v-432h715v-145h-715v-473h776v-158h-956zM399 1735h215l156 -260h-133z" />
<glyph unicode="&#xc9;" horiz-adv-x="1196" d="M158 0v1366h946v-158h-766v-432h715v-145h-715v-473h776v-158h-956zM537 1475l155 260h215l-237 -260h-133z" />
<glyph unicode="&#xca;" horiz-adv-x="1196" d="M158 0v1366h946v-158h-766v-432h715v-145h-715v-473h776v-158h-956zM332 1477l196 254h205l201 -254h-184l-123 165l-127 -165h-168z" />
<glyph unicode="&#xcb;" horiz-adv-x="1196" d="M158 0v1366h946v-158h-766v-432h715v-145h-715v-473h776v-158h-956zM311 1593q0 47 33.5 82t77.5 35q45 0 77.5 -34.5t32.5 -82.5q0 -47 -33 -81.5t-79 -34.5q-43 0 -76 34.5t-33 81.5zM733 1593q0 47 33.5 82t77.5 35q45 0 77.5 -34.5t32.5 -82.5q0 -47 -33 -81.5 t-79 -34.5q-43 0 -76 34.5t-33 81.5z" />
<glyph unicode="&#xcc;" horiz-adv-x="493" d="M-33 1735h215l156 -260h-133zM158 0v1366h180v-1366h-180z" />
<glyph unicode="&#xcd;" horiz-adv-x="493" d="M158 0v1366h180v-1366h-180zM158 1475l155 260h215l-237 -260h-133z" />
<glyph unicode="&#xce;" horiz-adv-x="493" d="M-41 1477l184 254h203l189 -254h-187l-106 165l-115 -165h-168zM156 0v1366h180v-1366h-180z" />
<glyph unicode="&#xcf;" horiz-adv-x="493" d="M-12 1593q0 47 33 82t77 35q46 0 78.5 -35t32.5 -82t-33.5 -81.5t-79.5 -34.5q-43 0 -75.5 34.5t-32.5 81.5zM158 0v1366h180v-1366h-180zM285 1593q0 47 33 82t77 35q46 0 78.5 -35t32.5 -82t-33.5 -81.5t-79.5 -34.5q-43 0 -75.5 34.5t-32.5 81.5z" />
<glyph unicode="&#xd0;" horiz-adv-x="1372" d="M20 641v137h138v588h489q155 0 255 -30.5t179 -102.5q98 -86 149.5 -220t51.5 -302q0 -361 -192 -559q-85 -86 -176 -119t-246 -33h-510v641h-138zM338 158h295q139 0 211 22.5t127 83.5q129 147 129 438q0 252 -113 380t-336 128h-313v-432h354v-137h-354v-483z" />
<glyph unicode="&#xd1;" horiz-adv-x="1406" d="M158 0v1366h194l510 -778q162 -244 228 -373q-11 237 -11 467l-2 684h172v-1366h-198l-488 737q-135 208 -176 276t-70 130q11 -143 13 -453v-690h-172zM391 1493q10 101 62.5 156t136.5 55q40 0 72.5 -9.5t136.5 -52.5q30 -10 59 -10q71 0 92 86h94q-13 -103 -64.5 -159 t-131.5 -56q-29 0 -64 10t-137 48q-43 16 -76 16q-34 0 -55.5 -20t-34.5 -64h-90z" />
<glyph unicode="&#xd2;" horiz-adv-x="1486" d="M90 682q0 325 181 520t483 195q188 0 334.5 -89.5t227.5 -251.5t81 -370q0 -324 -180 -520.5t-476 -196.5q-293 0 -472 196t-179 517zM272 686q0 -256 129 -409.5t344 -153.5q212 0 340.5 153.5t128.5 407.5q0 249 -128.5 404t-335.5 155q-220 0 -349 -150.5t-129 -406.5 zM504 1735h215l155 -260h-133z" />
<glyph unicode="&#xd3;" horiz-adv-x="1486" d="M90 682q0 325 181 520t483 195q188 0 334.5 -89.5t227.5 -251.5t81 -370q0 -324 -180 -520.5t-476 -196.5q-293 0 -472 196t-179 517zM272 686q0 -256 129 -409.5t344 -153.5q212 0 340.5 153.5t128.5 407.5q0 249 -128.5 404t-335.5 155q-220 0 -349 -150.5t-129 -406.5 zM641 1475l156 260h213l-236 -260h-133z" />
<glyph unicode="&#xd4;" horiz-adv-x="1486" d="M90 682q0 325 181 520t483 195q188 0 334.5 -89.5t227.5 -251.5t81 -370q0 -324 -180 -520.5t-476 -196.5q-293 0 -472 196t-179 517zM272 686q0 -256 129 -409.5t344 -153.5q212 0 340.5 153.5t128.5 407.5q0 249 -128.5 404t-335.5 155q-220 0 -349 -150.5t-129 -406.5 zM442 1477l197 254h205l200 -254h-184l-123 165l-127 -165h-168z" />
<glyph unicode="&#xd5;" horiz-adv-x="1486" d="M90 682q0 325 181 520t483 195q188 0 334.5 -89.5t227.5 -251.5t81 -370q0 -324 -180 -520.5t-476 -196.5q-293 0 -472 196t-179 517zM272 686q0 -256 129 -409.5t344 -153.5q212 0 340.5 153.5t128.5 407.5q0 249 -128.5 404t-335.5 155q-220 0 -349 -150.5t-129 -406.5 zM430 1493q12 101 64 156t137 55q39 0 70.5 -9.5t136.5 -52.5q30 -10 59 -10q71 0 92 86h94q-13 -103 -64.5 -159t-131.5 -56q-29 0 -62 9.5t-137 48.5q-46 16 -76 16q-35 0 -56.5 -20t-33.5 -64h-92z" />
<glyph unicode="&#xd6;" horiz-adv-x="1486" d="M90 682q0 325 181 520t483 195q188 0 334.5 -89.5t227.5 -251.5t81 -370q0 -324 -180 -520.5t-476 -196.5q-293 0 -472 196t-179 517zM272 686q0 -256 129 -409.5t344 -153.5q212 0 340.5 153.5t128.5 407.5q0 249 -128.5 404t-335.5 155q-220 0 -349 -150.5t-129 -406.5 zM422 1593q0 47 33 82t77 35q46 0 78.5 -35t32.5 -82t-33.5 -81.5t-79.5 -34.5q-43 0 -75.5 34.5t-32.5 81.5zM844 1593q0 47 33 82t77 35q46 0 78.5 -35t32.5 -82t-33.5 -81.5t-79.5 -34.5q-43 0 -75.5 34.5t-32.5 81.5z" />
<glyph unicode="&#xd7;" d="M162 377l293 293l-293 291l92 92l291 -293l293 293l92 -92l-293 -291l293 -293l-92 -92l-293 293l-291 -293z" />
<glyph unicode="&#xd8;" horiz-adv-x="1486" d="M59 43l164 178q-133 188 -133 463q0 321 180 517t473 196q251 0 422 -146l152 164l82 -78l-156 -170q82 -109 118 -221.5t36 -257.5q0 -324 -180 -521.5t-476 -197.5q-134 0 -240.5 40t-201.5 126l-158 -172zM272 688q0 -189 72 -336l707 774q-120 117 -310 117 q-212 0 -340.5 -151.5t-128.5 -403.5zM412 260q140 -137 333 -137q212 0 340.5 153.5t128.5 407.5q0 201 -90 352z" />
<glyph unicode="&#xd9;" horiz-adv-x="1372" d="M137 571v795h180v-799q0 -130 9.5 -187.5t40.5 -111.5q80 -145 327 -145q237 0 312 135q30 53 40.5 117t10.5 192v799h180v-797q0 -169 -18.5 -250.5t-75.5 -160.5q-132 -189 -451 -189q-176 0 -292 52t-185 161q-44 69 -61 153.5t-17 235.5zM434 1735h213l156 -260h-133 z" />
<glyph unicode="&#xda;" horiz-adv-x="1372" d="M137 571v795h180v-799q0 -130 9.5 -187.5t40.5 -111.5q80 -145 327 -145q237 0 312 135q30 53 40.5 117t10.5 192v799h180v-797q0 -169 -18.5 -250.5t-75.5 -160.5q-132 -189 -451 -189q-176 0 -292 52t-185 161q-44 69 -61 153.5t-17 235.5zM598 1475l156 260h213 l-236 -260h-133z" />
<glyph unicode="&#xdb;" horiz-adv-x="1372" d="M137 571v795h180v-799q0 -130 9.5 -187.5t40.5 -111.5q80 -145 327 -145q237 0 312 135q30 53 40.5 117t10.5 192v799h180v-797q0 -169 -18.5 -250.5t-75.5 -160.5q-132 -189 -451 -189q-176 0 -292 52t-185 161q-44 69 -61 153.5t-17 235.5zM385 1477l199 254h202 l201 -254h-184l-121 165l-129 -165h-168z" />
<glyph unicode="&#xdc;" horiz-adv-x="1372" d="M137 571v795h180v-799q0 -130 9.5 -187.5t40.5 -111.5q80 -145 327 -145q237 0 312 135q30 53 40.5 117t10.5 192v799h180v-797q0 -169 -18.5 -250.5t-75.5 -160.5q-132 -189 -451 -189q-176 0 -292 52t-185 161q-44 69 -61 153.5t-17 235.5zM367 1593q0 47 33 82t77 35 q46 0 78.5 -35t32.5 -82t-33.5 -81.5t-79.5 -34.5q-43 0 -75.5 34.5t-32.5 81.5zM786 1593q0 47 33.5 82t77.5 35q46 0 78.5 -35t32.5 -82t-33.5 -81.5t-79.5 -34.5q-43 0 -76 34.5t-33 81.5z" />
<glyph unicode="&#xdd;" horiz-adv-x="1198" d="M-20 1366h217l321 -510q8 -12 39 -63q34 -53 49 -84q19 33 86 143l320 514h207l-527 -807v-559h-180v559zM508 1475l156 260h215l-238 -260h-133z" />
<glyph unicode="&#xde;" horiz-adv-x="1241" d="M158 0v1366h180v-205h362q120 0 189.5 -15.5t128.5 -55.5q158 -110 158 -324q0 -231 -160 -340q-61 -40 -125.5 -55t-181.5 -15h-371v-356h-180zM338 502h348q149 0 215 49q44 32 68 86t24 119q0 147 -106 211q-39 22 -88 30.5t-140 8.5h-321v-504z" />
<glyph unicode="&#xdf;" horiz-adv-x="1060" d="M143 0v891q0 159 12 225.5t50 120.5q47 72 132 110.5t193 38.5q175 0 279 -90.5t104 -244.5q0 -105 -52.5 -181.5t-141.5 -99.5q124 -23 192 -115.5t68 -238.5q0 -207 -150 -336q-118 -103 -303 -103q-22 0 -73 7v135q46 -6 65 -6q136 0 215.5 80.5t79.5 218.5 q0 145 -80.5 211.5t-253.5 66.5q-14 0 -26 -2v131q81 1 113.5 6t68.5 21q113 55 113 194q0 95 -60.5 152t-159.5 57q-134 0 -186 -86q-23 -38 -30 -85t-7 -158v-920h-162z" />
<glyph unicode="&#xe0;" horiz-adv-x="1036" d="M63 254q0 79 32 142t91 98q52 29 133.5 49.5t229.5 42.5q107 13 144.5 39t37.5 86q0 82 -53.5 119.5t-169.5 37.5q-121 0 -176.5 -42.5t-67.5 -143.5h-162q8 90 31.5 143t77.5 97q106 90 315 90q367 0 367 -264v-572q0 -55 49 -55q31 0 51 10v-127q-47 -27 -119 -27 q-68 0 -101 37.5t-36 116.5q-130 -154 -344 -154q-155 0 -242.5 73.5t-87.5 203.5zM236 268q0 -72 49.5 -109.5t144.5 -37.5q126 0 212.5 63.5t86.5 157.5v168l-10 -4l-17 -10q-40 -19 -88 -25l-168 -25q-210 -30 -210 -178zM264 1399h201l143 -273h-112z" />
<glyph unicode="&#xe1;" horiz-adv-x="1036" d="M63 254q0 79 32 142t91 98q52 29 133.5 49.5t229.5 42.5q107 13 144.5 39t37.5 86q0 82 -53.5 119.5t-169.5 37.5q-121 0 -176.5 -42.5t-67.5 -143.5h-162q8 90 31.5 143t77.5 97q106 90 315 90q367 0 367 -264v-572q0 -55 49 -55q31 0 51 10v-127q-47 -27 -119 -27 q-68 0 -101 37.5t-36 116.5q-130 -154 -344 -154q-155 0 -242.5 73.5t-87.5 203.5zM236 268q0 -72 49.5 -109.5t144.5 -37.5q126 0 212.5 63.5t86.5 157.5v168l-10 -4l-17 -10q-40 -19 -88 -25l-168 -25q-210 -30 -210 -178zM408 1126l143 273h201l-232 -273h-112z" />
<glyph unicode="&#xe2;" horiz-adv-x="1036" d="M63 254q0 79 32 142t91 98q52 29 133.5 49.5t229.5 42.5q107 13 144.5 39t37.5 86q0 82 -53.5 119.5t-169.5 37.5q-121 0 -176.5 -42.5t-67.5 -143.5h-162q8 90 31.5 143t77.5 97q106 90 315 90q367 0 367 -264v-572q0 -55 49 -55q31 0 51 10v-127q-47 -27 -119 -27 q-68 0 -101 37.5t-36 116.5q-130 -154 -344 -154q-155 0 -242.5 73.5t-87.5 203.5zM217 1133l197 274h178l201 -274h-166l-127 184l-135 -184h-148zM236 268q0 -72 49.5 -109.5t144.5 -37.5q126 0 212.5 63.5t86.5 157.5v168l-10 -4l-17 -10q-40 -19 -88 -25l-168 -25 q-210 -30 -210 -178z" />
<glyph unicode="&#xe3;" horiz-adv-x="1036" d="M63 254q0 79 32 142t91 98q52 29 133.5 49.5t229.5 42.5q107 13 144.5 39t37.5 86q0 82 -53.5 119.5t-169.5 37.5q-121 0 -176.5 -42.5t-67.5 -143.5h-162q8 90 31.5 143t77.5 97q106 90 315 90q367 0 367 -264v-572q0 -55 49 -55q31 0 51 10v-127q-47 -27 -119 -27 q-68 0 -101 37.5t-36 116.5q-130 -154 -344 -154q-155 0 -242.5 73.5t-87.5 203.5zM207 1161q10 102 57.5 157.5t124.5 55.5q38 0 67 -9t124 -52q23 -10 51 -10q62 0 82 83h90q-15 -103 -61.5 -157.5t-118.5 -54.5q-43 0 -117 30t-93.5 36.5t-39.5 6.5q-30 0 -49 -20.5 t-31 -65.5h-86zM236 268q0 -72 49.5 -109.5t144.5 -37.5q126 0 212.5 63.5t86.5 157.5v168l-10 -4l-17 -10q-40 -19 -88 -25l-168 -25q-210 -30 -210 -178z" />
<glyph unicode="&#xe4;" horiz-adv-x="1036" d="M63 254q0 79 32 142t91 98q52 29 133.5 49.5t229.5 42.5q107 13 144.5 39t37.5 86q0 82 -53.5 119.5t-169.5 37.5q-121 0 -176.5 -42.5t-67.5 -143.5h-162q8 90 31.5 143t77.5 97q106 90 315 90q367 0 367 -264v-572q0 -55 49 -55q31 0 51 10v-127q-47 -27 -119 -27 q-68 0 -101 37.5t-36 116.5q-130 -154 -344 -154q-155 0 -242.5 73.5t-87.5 203.5zM213 1249q0 47 33.5 82t77.5 35q45 0 77.5 -34.5t32.5 -82.5q0 -47 -33 -81.5t-79 -34.5q-43 0 -76 34.5t-33 81.5zM236 268q0 -72 49.5 -109.5t144.5 -37.5q126 0 212.5 63.5t86.5 157.5 v168l-10 -4l-17 -10q-40 -19 -88 -25l-168 -25q-210 -30 -210 -178zM575 1249q0 47 33.5 82t77.5 35q46 0 78.5 -35t32.5 -82t-33.5 -81.5t-79.5 -34.5q-43 0 -76 34.5t-33 81.5z" />
<glyph unicode="&#xe5;" horiz-adv-x="1036" d="M63 254q0 79 32 142t91 98q52 29 133.5 49.5t229.5 42.5q107 13 144.5 39t37.5 86q0 82 -53.5 119.5t-169.5 37.5q-121 0 -176.5 -42.5t-67.5 -143.5h-162q8 90 31.5 143t77.5 97q106 90 315 90q367 0 367 -264v-572q0 -55 49 -55q31 0 51 10v-127q-47 -27 -119 -27 q-68 0 -101 37.5t-36 116.5q-130 -154 -344 -154q-155 0 -242.5 73.5t-87.5 203.5zM236 268q0 -72 49.5 -109.5t144.5 -37.5q126 0 212.5 63.5t86.5 157.5v168l-10 -4l-17 -10q-40 -19 -88 -25l-168 -25q-210 -30 -210 -178zM297 1300q0 86 61.5 145.5t149.5 59.5 q83 0 143 -61t60 -146q0 -86 -60.5 -146t-146.5 -60t-146.5 60t-60.5 148zM381 1298q0 -49 34.5 -83.5t84.5 -34.5q51 0 87 34.5t36 83.5q0 48 -36 83.5t-85 35.5q-51 0 -86 -34t-35 -85z" />
<glyph unicode="&#xe6;" horiz-adv-x="1685" d="M63 254q0 81 32 143.5t91 96.5q52 29 133.5 49.5t229.5 42.5q107 13 144.5 39t37.5 86q0 82 -53.5 119.5t-169.5 37.5q-121 0 -176.5 -42.5t-67.5 -143.5h-162q8 90 31.5 143t77.5 97q106 90 315 90q258 0 334 -131q44 63 127 99t182 36q207 0 325 -135.5t118 -376.5v-49 h-719v-19q0 -151 77.5 -239t209.5 -88q198 0 262 202h162q-38 -163 -152.5 -251.5t-284.5 -88.5q-254 0 -356 203q-69 -93 -179 -145t-237 -52q-157 0 -244.5 73t-87.5 204zM236 268q0 -72 49.5 -109.5t144.5 -37.5q126 0 212.5 63.5t86.5 157.5v170l-10 -6l-17 -8 q-44 -20 -88 -25l-168 -24q-210 -30 -210 -181zM891 588h553q-8 135 -82 213t-197 78q-72 0 -134 -33t-97 -90q-33 -58 -43 -168z" />
<glyph unicode="&#xe7;" horiz-adv-x="1040" d="M82 496q0 240 129.5 384t345.5 144q221 0 338 -139q37 -43 56 -91t28 -120h-170q-46 213 -258 213q-83 0 -141 -31.5t-99 -99.5q-63 -100 -63 -248q0 -184 81 -288.5t224 -104.5q217 0 272 252h160q-17 -177 -138.5 -285t-295.5 -102l-70 -93q54 7 66 7q75 0 118.5 -36 t43.5 -98q0 -80 -62 -127t-166 -47q-86 0 -184 39l35 70q64 -25 127 -25q50 0 77 20t27 56q0 34 -27 54t-71 20q-23 0 -70 -13l-30 33l108 140q-186 28 -288.5 163.5t-102.5 352.5z" />
<glyph unicode="&#xe8;" horiz-adv-x="1064" d="M82 489q0 232 130 380.5t333 148.5q135 0 242 -68.5t159 -189.5q50 -114 47 -305h-743q9 -346 311 -346q103 0 165 49t97 159h160q-79 -346 -432 -346q-218 0 -343.5 139t-125.5 379zM252 588h573q-11 138 -86 216.5t-198 78.5t-196.5 -75t-92.5 -220zM287 1399h200 l142 -273h-113z" />
<glyph unicode="&#xe9;" horiz-adv-x="1064" d="M82 489q0 232 130 380.5t333 148.5q135 0 242 -68.5t159 -189.5q50 -114 47 -305h-743q9 -346 311 -346q103 0 165 49t97 159h160q-79 -346 -432 -346q-218 0 -343.5 139t-125.5 379zM252 588h573q-11 138 -86 216.5t-198 78.5t-196.5 -75t-92.5 -220zM451 1126l141 273 h201l-230 -273h-112z" />
<glyph unicode="&#xea;" horiz-adv-x="1064" d="M82 489q0 232 130 380.5t333 148.5q135 0 242 -68.5t159 -189.5q50 -114 47 -305h-743q9 -346 311 -346q103 0 165 49t97 159h160q-79 -346 -432 -346q-218 0 -343.5 139t-125.5 379zM252 588h573q-11 138 -86 216.5t-198 78.5t-196.5 -75t-92.5 -220zM252 1133l199 274 h176l200 -274h-163l-129 184l-136 -184h-147z" />
<glyph unicode="&#xeb;" horiz-adv-x="1064" d="M82 489q0 232 130 380.5t333 148.5q135 0 242 -68.5t159 -189.5q50 -114 47 -305h-743q9 -346 311 -346q103 0 165 49t97 159h160q-79 -346 -432 -346q-218 0 -343.5 139t-125.5 379zM248 1249q0 47 33 82t77 35q46 0 78.5 -35t32.5 -82t-33.5 -81.5t-79.5 -34.5 q-43 0 -75.5 34.5t-32.5 81.5zM252 588h573q-11 138 -86 216.5t-198 78.5t-196.5 -75t-92.5 -220zM610 1249q0 47 33.5 82t77.5 35q45 0 77.5 -34.5t32.5 -82.5q0 -47 -33 -81.5t-79 -34.5q-43 0 -76 34.5t-33 81.5z" />
<glyph unicode="&#xec;" horiz-adv-x="448" d="M-23 1399h195l135 -273h-112zM143 0v989h162v-989h-162z" />
<glyph unicode="&#xed;" horiz-adv-x="448" d="M143 0v989h162v-989h-162zM150 1126l135 273h192l-215 -273h-112z" />
<glyph unicode="&#xee;" horiz-adv-x="448" d="M-49 1133l184 274h176l187 -274h-164l-115 184l-121 -184h-147zM143 0v989h162v-989h-162z" />
<glyph unicode="&#xef;" horiz-adv-x="448" d="M-18 1249q0 47 33 82t77 35q46 0 78.5 -35t32.5 -82t-33.5 -81.5t-79.5 -34.5q-43 0 -75.5 34.5t-32.5 81.5zM143 0v989h162v-989h-162zM248 1249q0 47 33 82t77 35q46 0 78.5 -35t32.5 -82t-33.5 -81.5t-79.5 -34.5q-43 0 -75.5 34.5t-32.5 81.5z" />
<glyph unicode="&#xf0;" horiz-adv-x="1118" d="M82 494q0 229 129.5 375.5t331.5 146.5q58 0 147 -21l-86 154l-162 -66l-45 93l156 65l-84 133l115 47l84 -131l170 74l45 -94l-158 -68l164 -266q89 -142 120 -233.5t31 -208.5q0 -238 -129.5 -380.5t-347.5 -142.5t-349.5 142.5t-131.5 380.5zM248 494 q0 -180 85 -282.5t234 -102.5q143 0 225 104t82 285q0 175 -83.5 279t-223.5 104q-148 0 -233.5 -103.5t-85.5 -283.5z" />
<glyph unicode="&#xf1;" horiz-adv-x="1101" d="M143 0v989h152v-153q64 95 146 138.5t198 43.5q98 0 173 -38t112 -106q23 -43 32 -93.5t9 -141.5v-639h-162v582q0 97 -7 142t-26 75q-56 82 -182 82q-84 0 -150.5 -40.5t-97.5 -109.5q-20 -42 -27.5 -97t-7.5 -155v-479h-162zM260 1161q10 102 57.5 157.5t124.5 55.5 q37 0 65.5 -9t123.5 -52q27 -10 53 -10q62 0 82 83h88q-13 -102 -59.5 -157t-118.5 -55q-44 0 -117 30q-72 29 -93 36t-40 7q-60 0 -80 -86h-86z" />
<glyph unicode="&#xf2;" horiz-adv-x="1118" d="M82 494q0 243 131 383.5t356 140.5q215 0 343 -141.5t128 -380.5q0 -246 -126 -385.5t-347 -139.5q-223 0 -354 142t-131 381zM248 494q0 -180 84.5 -282.5t232.5 -102.5q145 0 227 103.5t82 285.5q0 175 -83.5 279t-223.5 104q-148 0 -233.5 -103.5t-85.5 -283.5z M313 1399h201l141 -273h-112z" />
<glyph unicode="&#xf3;" horiz-adv-x="1118" d="M82 494q0 243 131 383.5t356 140.5q215 0 343 -141.5t128 -380.5q0 -246 -126 -385.5t-347 -139.5q-223 0 -354 142t-131 381zM248 494q0 -180 84.5 -282.5t232.5 -102.5q145 0 227 103.5t82 285.5q0 175 -83.5 279t-223.5 104q-148 0 -233.5 -103.5t-85.5 -283.5z M471 1126l141 273h201l-229 -273h-113z" />
<glyph unicode="&#xf4;" horiz-adv-x="1118" d="M82 494q0 243 131 383.5t356 140.5q215 0 343 -141.5t128 -380.5q0 -246 -126 -385.5t-347 -139.5q-223 0 -354 142t-131 381zM248 494q0 -180 84.5 -282.5t232.5 -102.5q145 0 227 103.5t82 285.5q0 175 -83.5 279t-223.5 104q-148 0 -233.5 -103.5t-85.5 -283.5z M272 1133l197 274h178l201 -274h-166l-127 184l-135 -184h-148z" />
<glyph unicode="&#xf5;" horiz-adv-x="1118" d="M82 494q0 243 131 383.5t356 140.5q215 0 343 -141.5t128 -380.5q0 -246 -126 -385.5t-347 -139.5q-223 0 -354 142t-131 381zM248 494q0 -180 84.5 -282.5t232.5 -102.5q145 0 227 103.5t82 285.5q0 175 -83.5 279t-223.5 104q-148 0 -233.5 -103.5t-85.5 -283.5z M268 1161q12 103 59.5 158t123.5 55q38 0 66 -9t124 -52q27 -10 53 -10q60 0 80 83h90q-15 -102 -61 -157t-117 -55q-46 0 -119 30q-71 29 -92 36t-41 7q-58 0 -78 -86h-88z" />
<glyph unicode="&#xf6;" horiz-adv-x="1118" d="M82 494q0 243 131 383.5t356 140.5q215 0 343 -141.5t128 -380.5q0 -246 -126 -385.5t-347 -139.5q-223 0 -354 142t-131 381zM248 494q0 -180 84.5 -282.5t232.5 -102.5q145 0 227 103.5t82 285.5q0 175 -83.5 279t-223.5 104q-148 0 -233.5 -103.5t-85.5 -283.5z M268 1249q0 47 33.5 82t77.5 35q45 0 77.5 -34.5t32.5 -82.5q0 -47 -33 -81.5t-79 -34.5q-43 0 -76 34.5t-33 81.5zM631 1249q0 47 33 82t77 35q46 0 78.5 -35t32.5 -82t-33.5 -81.5t-79.5 -34.5q-43 0 -75.5 34.5t-32.5 81.5z" />
<glyph unicode="&#xf7;" d="M102 606v129h887v-129h-887zM434 348q0 46 33.5 78.5t79.5 32.5q45 0 77.5 -33t32.5 -78q0 -47 -32 -79.5t-78 -32.5q-47 0 -80 32.5t-33 79.5zM434 991q0 46 33.5 78.5t79.5 32.5q45 0 77.5 -33t32.5 -78q0 -47 -32 -79.5t-78 -32.5q-47 0 -80 32.5t-33 79.5z" />
<glyph unicode="&#xf8;" horiz-adv-x="1118" d="M53 23l121 135q-96 137 -96 338q0 238 130.5 380t348.5 142q188 0 309 -100l109 122l76 -69l-115 -127q100 -137 100 -348q0 -245 -125.5 -385t-345.5 -140q-194 0 -321 109l-117 -129zM244 500q0 -133 43 -217l477 522q-82 76 -205 76q-143 0 -229 -104t-86 -277z M346 195q86 -86 219 -86q141 0 223 103.5t82 283.5q0 135 -47 225z" />
<glyph unicode="&#xf9;" horiz-adv-x="1105" d="M137 348v641h162v-583q0 -93 7 -140t26 -76q52 -81 182 -81q80 0 145 38t103 107q22 41 30.5 97.5t8.5 158.5v479h162v-989h-152v154q-56 -88 -144 -135.5t-200 -47.5q-178 0 -264 109q-35 43 -50.5 105t-15.5 163zM307 1399h201l141 -273h-112z" />
<glyph unicode="&#xfa;" horiz-adv-x="1105" d="M137 348v641h162v-583q0 -93 7 -140t26 -76q52 -81 182 -81q80 0 145 38t103 107q22 41 30.5 97.5t8.5 158.5v479h162v-989h-152v154q-56 -88 -144 -135.5t-200 -47.5q-178 0 -264 109q-35 43 -50.5 105t-15.5 163zM463 1126l143 273h201l-232 -273h-112z" />
<glyph unicode="&#xfb;" horiz-adv-x="1105" d="M137 348v641h162v-583q0 -93 7 -140t26 -76q52 -81 182 -81q80 0 145 38t103 107q22 41 30.5 97.5t8.5 158.5v479h162v-989h-152v154q-56 -88 -144 -135.5t-200 -47.5q-178 0 -264 109q-35 43 -50.5 105t-15.5 163zM266 1133l197 274h176l201 -274h-164l-129 184 l-135 -184h-146z" />
<glyph unicode="&#xfc;" horiz-adv-x="1105" d="M137 348v641h162v-583q0 -93 7 -140t26 -76q52 -81 182 -81q80 0 145 38t103 107q22 41 30.5 97.5t8.5 158.5v479h162v-989h-152v154q-56 -88 -144 -135.5t-200 -47.5q-178 0 -264 109q-35 43 -50.5 105t-15.5 163zM262 1249q0 47 33.5 82t77.5 35q45 0 77.5 -34.5 t32.5 -82.5q0 -47 -33 -81.5t-79 -34.5q-43 0 -76 34.5t-33 81.5zM623 1249q0 47 33 82t77 35q46 0 78.5 -35t32.5 -82t-33.5 -81.5t-79.5 -34.5q-43 0 -75.5 34.5t-32.5 81.5z" />
<glyph unicode="&#xfd;" horiz-adv-x="927" d="M2 989h182l217 -579q32 -86 76 -230q49 153 80 244l199 565h172l-365 -956q-68 -179 -90 -231.5t-45 -88.5q-69 -112 -213 -112q-45 0 -94 12l-25 4v147q73 -22 105 -22q43 0 68.5 19.5t51 70.5t72.5 174zM383 1126l141 273h201l-229 -273h-113z" />
<glyph unicode="&#xfe;" horiz-adv-x="1159" d="M143 -383v1749h162v-514q57 87 134 127.5t186 40.5q206 0 330 -144.5t124 -383.5q0 -232 -122.5 -374.5t-321.5 -142.5q-219 0 -330 162v-520h-162zM299 498q0 -179 83 -282t228 -103q138 0 220.5 103.5t82.5 275.5q0 175 -84 283t-219 108q-146 0 -228.5 -102 t-82.5 -283z" />
<glyph unicode="&#xff;" horiz-adv-x="927" d="M2 989h182l217 -579q32 -86 76 -230q49 153 80 244l199 565h172l-365 -956q-68 -179 -90 -231.5t-45 -88.5q-69 -112 -213 -112q-45 0 -94 12l-25 4v147q73 -22 105 -22q43 0 68.5 19.5t51 70.5t72.5 174zM174 1249q0 47 33.5 82t77.5 35q45 0 77.5 -34.5t32.5 -82.5 q0 -47 -33 -81.5t-79 -34.5q-43 0 -76 34.5t-33 81.5zM537 1249q0 47 33 82t77 35q46 0 78.5 -35t32.5 -82t-33.5 -81.5t-79.5 -34.5q-43 0 -75.5 34.5t-32.5 81.5z" />
<glyph unicode="&#x152;" horiz-adv-x="2078" d="M90 680q0 208 80 370.5t225 252.5t330 90q256 0 362 -146v119h898v-158h-730v-432h668v-145h-668v-473h742v-158h-910v139q-76 -88 -165 -127t-209 -39q-183 0 -324.5 88.5t-220 249.5t-78.5 369zM272 688q0 -252 126.5 -406.5t332.5 -154.5q189 0 297 129q47 58 47 154 v553q0 70 -9 98.5t-42 64.5q-101 113 -279 113q-212 0 -342.5 -152.5t-130.5 -398.5z" />
<glyph unicode="&#x153;" horiz-adv-x="1738" d="M82 496q0 243 122 382.5t333 139.5q245 0 344 -184q109 184 344 184q127 0 227.5 -57t151.5 -158q35 -70 49 -148t14 -200h-719v-33q0 -140 80 -228t207 -88q194 0 260 207h162q-34 -160 -148.5 -251t-283.5 -91q-263 0 -353 203q-40 -97 -130 -150t-214 -53 q-104 0 -192.5 41t-149.5 119q-104 128 -104 365zM248 496q0 -183 75 -285t209 -102q132 0 202.5 103.5t70.5 297.5q0 178 -70.5 275.5t-199.5 97.5q-137 0 -212 -101.5t-75 -285.5zM946 588h553q-5 103 -45 168q-38 60 -99 93.5t-132 33.5q-120 0 -193 -78.5t-84 -216.5z " />
<glyph unicode="&#x178;" horiz-adv-x="1198" d="M-20 1366h217l321 -510q8 -12 39 -63q34 -53 49 -84q19 33 86 143l320 514h207l-527 -807v-559h-180v559zM283 1593q0 47 33 82t77 35t77.5 -35t33.5 -82t-33.5 -81.5t-79.5 -34.5q-44 0 -76 34.5t-32 81.5zM705 1593q0 47 33 82t77 35t77.5 -35t33.5 -82t-33.5 -81.5 t-79.5 -34.5q-44 0 -76 34.5t-32 81.5z" />
<glyph unicode="&#x2c6;" horiz-adv-x="1024" d="M225 1133l197 274h178l201 -274h-166l-127 184l-135 -184h-148z" />
<glyph unicode="&#x2dc;" horiz-adv-x="1024" d="M215 1161q10 102 57.5 157.5t124.5 55.5q38 0 67 -9t124 -52q23 -10 51 -10q62 0 82 83h90q-15 -103 -61.5 -157.5t-118.5 -54.5q-43 0 -117 30t-93.5 36.5t-39.5 6.5q-30 0 -49 -20.5t-31 -65.5h-86z" />
<glyph unicode="&#x2000;" horiz-adv-x="941" />
<glyph unicode="&#x2001;" horiz-adv-x="1882" />
<glyph unicode="&#x2002;" horiz-adv-x="941" />
<glyph unicode="&#x2003;" horiz-adv-x="1882" />
<glyph unicode="&#x2004;" horiz-adv-x="627" />
<glyph unicode="&#x2005;" horiz-adv-x="470" />
<glyph unicode="&#x2006;" horiz-adv-x="313" />
<glyph unicode="&#x2007;" horiz-adv-x="313" />
<glyph unicode="&#x2008;" horiz-adv-x="235" />
<glyph unicode="&#x2009;" horiz-adv-x="376" />
<glyph unicode="&#x200a;" horiz-adv-x="104" />
<glyph unicode="&#x2010;" horiz-adv-x="464" d="M0 428v164h465v-164h-465z" />
<glyph unicode="&#x2011;" horiz-adv-x="464" d="M0 428v164h465v-164h-465z" />
<glyph unicode="&#x2012;" horiz-adv-x="464" d="M0 428v164h465v-164h-465z" />
<glyph unicode="&#x2013;" d="M137 428v164h819v-164h-819z" />
<glyph unicode="&#x2014;" horiz-adv-x="1386" d="M0 428v164h1386v-164h-1386z" />
<glyph unicode="&#x2018;" horiz-adv-x="509" d="M133 1067q0 141 74 231q31 36 64.5 54t90.5 28v-96q-54 -12 -89 -58.5t-33 -103.5q3 1 10.5 2t11.5 2h6q47 0 84 -35t37 -81q0 -57 -35 -95t-86 -38q-63 0 -99 50.5t-36 139.5z" />
<glyph unicode="&#x2019;" horiz-adv-x="509" d="M133 1268q0 57 35 95t86 38q63 0 99 -51t36 -140q0 -141 -74 -231q-31 -36 -64.5 -54t-90.5 -28v96q54 12 89.5 58.5t33.5 103.5q-3 -1 -11 -2t-12 -2h-6q-47 0 -84 35.5t-37 81.5z" />
<glyph unicode="&#x201a;" horiz-adv-x="509" d="M133 109q0 57 34.5 95t86.5 38q63 0 99 -51t36 -140q0 -141 -74 -231q-31 -35 -64.5 -53.5t-90.5 -30.5v98q54 10 89.5 56.5t33.5 105.5q-6 -4 -23 -4h-6q-47 0 -84 35.5t-37 81.5z" />
<glyph unicode="&#x201c;" horiz-adv-x="847" d="M119 1075q0 144 78 228q29 34 60.5 50.5t88.5 26.5v-96q-113 -27 -125 -151h2q4 0 8 2l15 2h6q51 0 85 -34t34 -85q0 -54 -35 -90.5t-86 -36.5q-60 0 -95.5 50.5t-35.5 133.5zM467 1079q0 136 78 224q31 34 62.5 50.5t86.5 26.5v-96q-57 -13 -88.5 -52.5t-34.5 -98.5 q7 0 9 2h6q2 2 10 2h6q51 0 85 -34t34 -85q0 -52 -35.5 -89.5t-85.5 -37.5q-60 0 -96.5 51.5t-36.5 136.5z" />
<glyph unicode="&#x201d;" horiz-adv-x="847" d="M119 1255q0 51 36 88t85 37q60 0 96.5 -51.5t36.5 -136.5q0 -135 -78 -223q-32 -33 -64 -50.5t-86 -27.5v96q117 31 123 152h-8l-6 -2h-10h-6q-51 0 -85 33t-34 85zM469 1253q0 54 35 90.5t86 36.5q60 0 95.5 -50.5t35.5 -133.5q0 -143 -78 -227q-30 -33 -61.5 -49.5 t-87.5 -28.5v96q112 29 124 152q-6 -2 -24 -2h-6q-51 0 -85 32.5t-34 83.5z" />
<glyph unicode="&#x201e;" horiz-adv-x="847" d="M119 115q0 51 36 88t85 37q60 0 96.5 -52t36.5 -137q0 -135 -78 -223q-31 -33 -63 -49.5t-87 -28.5v96q117 31 123 152h-8l-6 -2h-10h-6q-51 0 -85 34t-34 85zM469 113q0 54 35 90.5t86 36.5q60 0 95.5 -50.5t35.5 -134.5q0 -140 -78 -227q-30 -33 -61.5 -49.5 t-87.5 -28.5v96q112 29 124 152q-4 0 -10 -2h-4h-10h-6q-51 0 -85 33t-34 84z" />
<glyph unicode="&#x2022;" horiz-adv-x="1366" d="M401 694q0 120 83.5 203.5t203.5 83.5q114 0 195.5 -84t81.5 -201q0 -120 -82 -203t-199 -83t-200 83.5t-83 200.5z" />
<glyph unicode="&#x2026;" horiz-adv-x="1531" d="M145 117q0 47 33.5 81.5t77.5 34.5q46 0 78.5 -34.5t32.5 -81.5t-33.5 -82t-79.5 -35q-43 0 -76 35t-33 82zM655 117q0 47 33.5 81.5t77.5 34.5q46 0 78.5 -34.5t32.5 -81.5t-33.5 -82t-79.5 -35q-43 0 -76 35t-33 82zM1167 117q0 47 33.5 81.5t77.5 34.5 q46 0 78.5 -34.5t32.5 -81.5t-33.5 -82t-79.5 -35q-43 0 -76 35t-33 82z" />
<glyph unicode="&#x202f;" horiz-adv-x="376" />
<glyph unicode="&#x2039;" horiz-adv-x="509" d="M96 422v168l291 231v-166l-192 -147l192 -146v-165z" />
<glyph unicode="&#x203a;" horiz-adv-x="509" d="M123 197v165l192 146l-192 147v166l291 -231v-168z" />
<glyph unicode="&#x205f;" horiz-adv-x="470" />
<glyph unicode="&#x20ac;" horiz-adv-x="1120" d="M2 502l51 119h99v43q0 38 2 75h-152l51 119h115q41 258 170 394.5t330 136.5q232 0 422 -152l-66 -154q-136 92 -205 121t-153 29q-258 0 -326 -375h586l-52 -119h-550q-2 -33 -2 -73v-45h501l-51 -119h-436q68 -371 334 -371q79 0 140.5 22.5t213.5 106.5v-188 q-168 -101 -367 -101q-204 0 -331 137t-164 394h-160z" />
<glyph unicode="&#x2122;" horiz-adv-x="1755" d="M23 1262v104h622v-104h-248v-684h-129v684h-245zM774 578v788h197l231 -594l223 594h199v-788h-125v655h-4l-250 -655h-90l-252 655h-4v-655h-125z" />
<glyph unicode="&#x25fc;" horiz-adv-x="993" d="M0 0v993h993v-993h-993z" />
</font>
</defs>
</svg>
